<svg width="327" height="190" viewBox="0 0 327 190" fill="none" xmlns="http://www.w3.org/2000/svg">
<rect width="327" height="190" rx="16" fill="#1D3A70"/>
<mask id="mask0_20_100" style="mask-type:alpha" maskUnits="userSpaceOnUse" x="0" y="0" width="327" height="190">
<rect width="327" height="190" rx="16" fill="#1DAB87"/>
</mask>
<g mask="url(#mask0_20_100)">
<path d="M46.189 -20C25.5764 2.22301 -14.8864 54.3126 -11.8369 84.8869C-8.02495 123.105 40.7333 114.474 47.883 112.064C52.8968 110.374 106.332 83.613 116.074 56.0112C125.815 28.4094 96.1418 30.9422 93.2024 31.8065C80.4926 35.5437 61.0129 43.6965 42.3769 79.7912C23.7409 115.886 20.776 142.638 34.3295 155.378C45.1723 165.569 70.2495 164.654 93.4667 162.918C133.837 159.9 166.307 134.315 187.653 119.708C209 105.1 289.446 47.6599 327 20.7658" stroke="#1DAB87" stroke-width="0.5" stroke-linecap="round"/>
<rect x="20.25" y="24.25" width="31.5" height="23.881" rx="3.75" fill="white" stroke="#1D3A70" stroke-width="0.5"/>
<path d="M20.5 31.5H29C30.1046 31.5 31 32.3954 31 33.5V37.375M31 47.9V43.25M31 43.25V37.375M31 43.25H20.5M31 37.375H20.5" stroke="#1D3A70" stroke-width="0.5"/>
<path d="M51.5 31.5H41.5M41.5 31.5V37.375M41.5 31.5V24.5M41.5 47.9V43.25M41.5 43.25V37.375M41.5 43.25H51.5M41.5 37.375H51.5" stroke="#1D3A70" stroke-width="0.5"/>
<path d="M76.1601 28.9099C79.4801 33.2099 79.4801 38.7999 76.1601 43.0999" stroke="white" stroke-width="1.5" stroke-linecap="round" stroke-linejoin="round"/>
<path d="M79.6401 26C84.3201 32.06 84.3201 39.94 79.6401 46" stroke="white" stroke-width="1.5" stroke-linecap="round" stroke-linejoin="round"/>
<path d="M72.51 30.79C74.95 33.94 74.95 38.05 72.51 41.2" stroke="white" stroke-width="1.5" stroke-linecap="round" stroke-linejoin="round"/>
<path d="M68.85 33.4C70.07 34.98 70.07 37.03 68.85 38.61" stroke="white" stroke-width="1.5" stroke-linecap="round" stroke-linejoin="round"/>
<path d="M27.6562 96.2812V97.8262H20.4854L20.3896 96.6299L24.5391 90.0469H26.1045L24.4092 92.8838L22.3447 96.2812H27.6562ZM26.5283 90.0469V100H24.5596V90.0469H26.5283ZM35.8313 98.4619V100H29.0227V98.6875L32.2424 95.2354C32.566 94.8753 32.8212 94.5586 33.008 94.2852C33.1949 94.0072 33.3293 93.7588 33.4113 93.54C33.4979 93.3167 33.5412 93.1048 33.5412 92.9043C33.5412 92.6035 33.4911 92.346 33.3908 92.1318C33.2906 91.9131 33.1424 91.7445 32.9465 91.626C32.7551 91.5075 32.5181 91.4482 32.2355 91.4482C31.9348 91.4482 31.675 91.5212 31.4563 91.667C31.2421 91.8128 31.078 92.0156 30.9641 92.2754C30.8547 92.5352 30.8 92.8291 30.8 93.1572H28.8244C28.8244 92.5648 28.9657 92.0225 29.2482 91.5303C29.5308 91.0335 29.9296 90.6393 30.4445 90.3477C30.9595 90.0514 31.5702 89.9033 32.2766 89.9033C32.9738 89.9033 33.5617 90.0173 34.0402 90.2451C34.5233 90.4684 34.8879 90.792 35.134 91.2158C35.3846 91.6351 35.51 92.1364 35.51 92.7197C35.51 93.0479 35.4576 93.3691 35.3527 93.6836C35.2479 93.9935 35.0975 94.3034 34.9016 94.6133C34.7102 94.9186 34.4777 95.2285 34.2043 95.543C33.9309 95.8574 33.6278 96.1833 33.2951 96.5205L31.5656 98.4619H35.8313ZM44.3344 96.2812V97.8262H37.1635L37.0678 96.6299L41.2172 90.0469H42.7826L41.0873 92.8838L39.0229 96.2812H44.3344ZM43.2064 90.0469V100H41.2377V90.0469H43.2064ZM52.5094 98.4619V100H45.7008V98.6875L48.9205 95.2354C49.2441 94.8753 49.4993 94.5586 49.6861 94.2852C49.873 94.0072 50.0074 93.7588 50.0895 93.54C50.176 93.3167 50.2193 93.1048 50.2193 92.9043C50.2193 92.6035 50.1692 92.346 50.0689 92.1318C49.9687 91.9131 49.8206 91.7445 49.6246 91.626C49.4332 91.5075 49.1962 91.4482 48.9137 91.4482C48.6129 91.4482 48.3531 91.5212 48.1344 91.667C47.9202 91.8128 47.7561 92.0156 47.6422 92.2754C47.5328 92.5352 47.4781 92.8291 47.4781 93.1572H45.5025C45.5025 92.5648 45.6438 92.0225 45.9264 91.5303C46.2089 91.0335 46.6077 90.6393 47.1227 90.3477C47.6376 90.0514 48.2483 89.9033 48.9547 89.9033C49.652 89.9033 50.2398 90.0173 50.7184 90.2451C51.2014 90.4684 51.566 90.792 51.8121 91.2158C52.0628 91.6351 52.1881 92.1364 52.1881 92.7197C52.1881 93.0479 52.1357 93.3691 52.0309 93.6836C51.926 93.9935 51.7757 94.3034 51.5797 94.6133C51.3883 94.9186 51.1559 95.2285 50.8824 95.543C50.609 95.8574 50.3059 96.1833 49.9732 96.5205L48.2437 98.4619H52.5094ZM72.3715 96.2812V97.8262H65.2006L65.1049 96.6299L69.2543 90.0469H70.8197L69.1244 92.8838L67.06 96.2812H72.3715ZM71.2436 90.0469V100H69.2748V90.0469H71.2436ZM80.5465 98.4619V100H73.7379V98.6875L76.9576 95.2354C77.2812 94.8753 77.5364 94.5586 77.7232 94.2852C77.9101 94.0072 78.0445 93.7588 78.1266 93.54C78.2132 93.3167 78.2564 93.1048 78.2564 92.9043C78.2564 92.6035 78.2063 92.346 78.1061 92.1318C78.0058 91.9131 77.8577 91.7445 77.6617 91.626C77.4703 91.5075 77.2333 91.4482 76.9508 91.4482C76.65 91.4482 76.3902 91.5212 76.1715 91.667C75.9573 91.8128 75.7932 92.0156 75.6793 92.2754C75.5699 92.5352 75.5152 92.8291 75.5152 93.1572H73.5396C73.5396 92.5648 73.6809 92.0225 73.9635 91.5303C74.246 91.0335 74.6448 90.6393 75.1598 90.3477C75.6747 90.0514 76.2854 89.9033 76.9918 89.9033C77.6891 89.9033 78.277 90.0173 78.7555 90.2451C79.2385 90.4684 79.6031 90.792 79.8492 91.2158C80.0999 91.6351 80.2252 92.1364 80.2252 92.7197C80.2252 93.0479 80.1728 93.3691 80.068 93.6836C79.9632 93.9935 79.8128 94.3034 79.6168 94.6133C79.4254 94.9186 79.193 95.2285 78.9195 95.543C78.6461 95.8574 78.343 96.1833 78.0104 96.5205L76.2809 98.4619H80.5465ZM89.0496 96.2812V97.8262H81.8787L81.783 96.6299L85.9324 90.0469H87.4979L85.8025 92.8838L83.7381 96.2812H89.0496ZM87.9217 90.0469V100H85.9529V90.0469H87.9217ZM97.2246 98.4619V100H90.416V98.6875L93.6357 95.2354C93.9593 94.8753 94.2145 94.5586 94.4014 94.2852C94.5882 94.0072 94.7227 93.7588 94.8047 93.54C94.8913 93.3167 94.9346 93.1048 94.9346 92.9043C94.9346 92.6035 94.8844 92.346 94.7842 92.1318C94.6839 91.9131 94.5358 91.7445 94.3398 91.626C94.1484 91.5075 93.9115 91.4482 93.6289 91.4482C93.3281 91.4482 93.0684 91.5212 92.8496 91.667C92.6354 91.8128 92.4714 92.0156 92.3574 92.2754C92.248 92.5352 92.1934 92.8291 92.1934 93.1572H90.2178C90.2178 92.5648 90.359 92.0225 90.6416 91.5303C90.9242 91.0335 91.3229 90.6393 91.8379 90.3477C92.3529 90.0514 92.9635 89.9033 93.6699 89.9033C94.3672 89.9033 94.9551 90.0173 95.4336 90.2451C95.9167 90.4684 96.2812 90.792 96.5273 91.2158C96.778 91.6351 96.9033 92.1364 96.9033 92.7197C96.9033 93.0479 96.8509 93.3691 96.7461 93.6836C96.6413 93.9935 96.4909 94.3034 96.2949 94.6133C96.1035 94.9186 95.8711 95.2285 95.5977 95.543C95.3242 95.8574 95.0212 96.1833 94.6885 96.5205L92.959 98.4619H97.2246ZM117.087 96.2812V97.8262H109.916L109.82 96.6299L113.97 90.0469H115.535L113.84 92.8838L111.775 96.2812H117.087ZM115.959 90.0469V100H113.99V90.0469H115.959ZM125.262 98.4619V100H118.453V98.6875L121.673 95.2354C121.996 94.8753 122.252 94.5586 122.438 94.2852C122.625 94.0072 122.76 93.7588 122.842 93.54C122.928 93.3167 122.972 93.1048 122.972 92.9043C122.972 92.6035 122.922 92.346 122.821 92.1318C122.721 91.9131 122.573 91.7445 122.377 91.626C122.186 91.5075 121.949 91.4482 121.666 91.4482C121.365 91.4482 121.105 91.5212 120.887 91.667C120.673 91.8128 120.508 92.0156 120.395 92.2754C120.285 92.5352 120.23 92.8291 120.23 93.1572H118.255C118.255 92.5648 118.396 92.0225 118.679 91.5303C118.961 91.0335 119.36 90.6393 119.875 90.3477C120.39 90.0514 121.001 89.9033 121.707 89.9033C122.404 89.9033 122.992 90.0173 123.471 90.2451C123.954 90.4684 124.318 90.792 124.564 91.2158C124.815 91.6351 124.94 92.1364 124.94 92.7197C124.94 93.0479 124.888 93.3691 124.783 93.6836C124.678 93.9935 124.528 94.3034 124.332 94.6133C124.141 94.9186 123.908 95.2285 123.635 95.543C123.361 95.8574 123.058 96.1833 122.726 96.5205L120.996 98.4619H125.262ZM133.765 96.2812V97.8262H126.594L126.498 96.6299L130.648 90.0469H132.213L130.518 92.8838L128.453 96.2812H133.765ZM132.637 90.0469V100H130.668V90.0469H132.637ZM141.94 98.4619V100H135.131V98.6875L138.351 95.2354C138.675 94.8753 138.93 94.5586 139.117 94.2852C139.303 94.0072 139.438 93.7588 139.52 93.54C139.607 93.3167 139.65 93.1048 139.65 92.9043C139.65 92.6035 139.6 92.346 139.499 92.1318C139.399 91.9131 139.251 91.7445 139.055 91.626C138.864 91.5075 138.627 91.4482 138.344 91.4482C138.043 91.4482 137.784 91.5212 137.565 91.667C137.351 91.8128 137.187 92.0156 137.073 92.2754C136.963 92.5352 136.909 92.8291 136.909 93.1572H134.933C134.933 92.5648 135.074 92.0225 135.357 91.5303C135.639 91.0335 136.038 90.6393 136.553 90.3477C137.068 90.0514 137.679 89.9033 138.385 89.9033C139.082 89.9033 139.67 90.0173 140.149 90.2451C140.632 90.4684 140.996 90.792 141.243 91.2158C141.493 91.6351 141.619 92.1364 141.619 92.7197C141.619 93.0479 141.566 93.3691 141.461 93.6836C141.357 93.9935 141.206 94.3034 141.01 94.6133C140.819 94.9186 140.586 95.2285 140.313 95.543C140.039 95.8574 139.736 96.1833 139.404 96.5205L137.674 98.4619H141.94ZM161.802 96.2812V97.8262H154.631L154.535 96.6299L158.685 90.0469H160.25L158.555 92.8838L156.49 96.2812H161.802ZM160.674 90.0469V100H158.705V90.0469H160.674ZM169.977 98.4619V100H163.168V98.6875L166.388 95.2354C166.712 94.8753 166.967 94.5586 167.154 94.2852C167.341 94.0072 167.475 93.7588 167.557 93.54C167.644 93.3167 167.687 93.1048 167.687 92.9043C167.687 92.6035 167.637 92.346 167.537 92.1318C167.436 91.9131 167.288 91.7445 167.092 91.626C166.901 91.5075 166.664 91.4482 166.381 91.4482C166.08 91.4482 165.821 91.5212 165.602 91.667C165.388 91.8128 165.224 92.0156 165.11 92.2754C165 92.5352 164.946 92.8291 164.946 93.1572H162.97C162.97 92.5648 163.111 92.0225 163.394 91.5303C163.677 91.0335 164.075 90.6393 164.59 90.3477C165.105 90.0514 165.716 89.9033 166.422 89.9033C167.12 89.9033 167.707 90.0173 168.186 90.2451C168.669 90.4684 169.034 90.792 169.28 91.2158C169.53 91.6351 169.656 92.1364 169.656 92.7197C169.656 93.0479 169.603 93.3691 169.498 93.6836C169.394 93.9935 169.243 94.3034 169.047 94.6133C168.856 94.9186 168.623 95.2285 168.35 95.543C168.077 95.8574 167.774 96.1833 167.441 96.5205L165.711 98.4619H169.977ZM178.48 96.2812V97.8262H171.309L171.213 96.6299L175.363 90.0469H176.928L175.233 92.8838L173.169 96.2812H178.48ZM177.352 90.0469V100H175.383V90.0469H177.352ZM186.655 98.4619V100H179.846V98.6875L183.066 95.2354C183.39 94.8753 183.645 94.5586 183.832 94.2852C184.019 94.0072 184.153 93.7588 184.235 93.54C184.322 93.3167 184.365 93.1048 184.365 92.9043C184.365 92.6035 184.315 92.346 184.215 92.1318C184.114 91.9131 183.966 91.7445 183.77 91.626C183.579 91.5075 183.342 91.4482 183.059 91.4482C182.759 91.4482 182.499 91.5212 182.28 91.667C182.066 91.8128 181.902 92.0156 181.788 92.2754C181.679 92.5352 181.624 92.8291 181.624 93.1572H179.648C179.648 92.5648 179.79 92.0225 180.072 91.5303C180.355 91.0335 180.753 90.6393 181.268 90.3477C181.783 90.0514 182.394 89.9033 183.1 89.9033C183.798 89.9033 184.386 90.0173 184.864 90.2451C185.347 90.4684 185.712 90.792 185.958 91.2158C186.208 91.6351 186.334 92.1364 186.334 92.7197C186.334 93.0479 186.281 93.3691 186.177 93.6836C186.072 93.9935 185.921 94.3034 185.725 94.6133C185.534 94.9186 185.302 95.2285 185.028 95.543C184.755 95.8574 184.452 96.1833 184.119 96.5205L182.389 98.4619H186.655Z" fill="white"/>
</g>
<path d="M0 126H327V166C327 173.455 327 177.183 325.782 180.123C324.158 184.043 321.043 187.158 317.123 188.782C314.183 190 310.455 190 303 190H24C16.5449 190 12.8174 190 9.87706 188.782C5.95662 187.158 2.84183 184.043 1.21793 180.123C0 177.183 0 173.455 0 166V126Z" fill="#CEDCFF"/>
<path d="M25.0107 147.979V141.047H26.8906V147.979C26.8906 148.639 26.7471 149.207 26.46 149.681C26.1729 150.15 25.7809 150.51 25.2842 150.761C24.7874 151.011 24.2269 151.137 23.6025 151.137C22.96 151.137 22.3903 151.03 21.8936 150.815C21.3968 150.597 21.0072 150.264 20.7246 149.817C20.4466 149.371 20.3076 148.803 20.3076 148.115H22.1943C22.1943 148.489 22.2513 148.79 22.3652 149.018C22.4792 149.245 22.641 149.41 22.8506 149.51C23.0648 149.61 23.3154 149.66 23.6025 149.66C23.8805 149.66 24.1243 149.596 24.334 149.469C24.5482 149.337 24.7145 149.145 24.833 148.895C24.9515 148.644 25.0107 148.339 25.0107 147.979ZM28.5988 147.377V147.233C28.5988 146.691 28.6763 146.192 28.8313 145.736C28.9862 145.276 29.2118 144.877 29.508 144.54C29.8042 144.203 30.1665 143.941 30.5949 143.754C31.0233 143.562 31.5109 143.467 32.0578 143.467C32.6138 143.467 33.106 143.562 33.5344 143.754C33.9673 143.941 34.3319 144.203 34.6281 144.54C34.9243 144.877 35.1499 145.276 35.3049 145.736C35.4598 146.192 35.5373 146.691 35.5373 147.233V147.377C35.5373 147.915 35.4598 148.414 35.3049 148.874C35.1499 149.33 34.9243 149.729 34.6281 150.07C34.3319 150.408 33.9696 150.67 33.5412 150.856C33.1128 151.043 32.6229 151.137 32.0715 151.137C31.5246 151.137 31.0347 151.043 30.6018 150.856C30.1688 150.67 29.8042 150.408 29.508 150.07C29.2118 149.729 28.9862 149.33 28.8313 148.874C28.6763 148.414 28.5988 147.915 28.5988 147.377ZM30.4035 147.233V147.377C30.4035 147.701 30.4354 148.004 30.4992 148.286C30.563 148.569 30.661 148.817 30.7932 149.031C30.9253 149.245 31.0962 149.414 31.3059 149.537C31.5201 149.656 31.7753 149.715 32.0715 149.715C32.3632 149.715 32.6138 149.656 32.8234 149.537C33.0331 149.414 33.204 149.245 33.3361 149.031C33.4729 148.817 33.5731 148.569 33.6369 148.286C33.7007 148.004 33.7326 147.701 33.7326 147.377V147.233C33.7326 146.914 33.7007 146.616 33.6369 146.338C33.5731 146.055 33.4729 145.807 33.3361 145.593C33.204 145.374 33.0308 145.203 32.8166 145.08C32.607 144.952 32.354 144.889 32.0578 144.889C31.7661 144.889 31.5155 144.952 31.3059 145.08C31.0962 145.203 30.9253 145.374 30.7932 145.593C30.661 145.807 30.563 146.055 30.4992 146.338C30.4354 146.616 30.4035 146.914 30.4035 147.233ZM38.9203 140.5V151H37.1088V140.5H38.9203ZM38.6332 147.035H38.1C38.1 146.52 38.1684 146.046 38.3051 145.613C38.4418 145.18 38.6355 144.804 38.8861 144.485C39.1368 144.162 39.4353 143.911 39.7816 143.733C40.1326 143.556 40.5199 143.467 40.9438 143.467C41.3083 143.467 41.6387 143.519 41.935 143.624C42.2357 143.724 42.4932 143.886 42.7074 144.109C42.9216 144.333 43.0857 144.624 43.1996 144.984C43.3181 145.34 43.3773 145.773 43.3773 146.283V151H41.559V146.27C41.559 145.928 41.5089 145.659 41.4086 145.463C41.3083 145.262 41.1648 145.119 40.9779 145.032C40.7956 144.946 40.5701 144.902 40.3012 144.902C40.0095 144.902 39.7589 144.959 39.5492 145.073C39.3396 145.183 39.1664 145.335 39.0297 145.531C38.8975 145.727 38.7973 145.953 38.7289 146.208C38.6651 146.463 38.6332 146.739 38.6332 147.035ZM47.0406 145.183V151H45.2359V143.604H46.9312L47.0406 145.183ZM46.7535 147.035H46.2203C46.2249 146.497 46.2978 146.01 46.4391 145.572C46.5803 145.135 46.7786 144.759 47.0338 144.444C47.2936 144.13 47.6012 143.888 47.9566 143.72C48.3121 143.551 48.7086 143.467 49.1461 143.467C49.5016 143.467 49.8229 143.517 50.11 143.617C50.3971 143.717 50.6432 143.877 50.8482 144.096C51.0579 144.314 51.2174 144.602 51.3268 144.957C51.4407 145.308 51.4977 145.741 51.4977 146.256V151H49.6793V146.242C49.6793 145.905 49.6292 145.638 49.5289 145.442C49.4332 145.246 49.2919 145.107 49.1051 145.025C48.9228 144.943 48.6972 144.902 48.4283 144.902C48.1503 144.902 47.9065 144.959 47.6969 145.073C47.4918 145.183 47.3186 145.335 47.1773 145.531C47.0406 145.727 46.9358 145.953 46.8629 146.208C46.79 146.463 46.7535 146.739 46.7535 147.035ZM60.2871 151H58.1406L58.1543 149.523H60.2871C60.8659 149.523 61.3512 149.396 61.7432 149.141C62.1351 148.881 62.4313 148.509 62.6318 148.026C62.8324 147.539 62.9326 146.955 62.9326 146.276V145.764C62.9326 145.24 62.8757 144.777 62.7617 144.376C62.6478 143.975 62.4792 143.638 62.2559 143.364C62.0371 143.091 61.766 142.883 61.4424 142.742C61.1188 142.601 60.7474 142.53 60.3281 142.53H58.0996V141.047H60.3281C60.9935 141.047 61.5996 141.159 62.1465 141.382C62.6979 141.605 63.1742 141.926 63.5752 142.346C63.9808 142.76 64.2907 143.257 64.5049 143.836C64.7236 144.415 64.833 145.062 64.833 145.777V146.276C64.833 146.987 64.7236 147.634 64.5049 148.218C64.2907 148.797 63.9808 149.293 63.5752 149.708C63.1742 150.123 62.6956 150.442 62.1396 150.665C61.5837 150.888 60.9661 151 60.2871 151ZM59.1934 141.047V151H57.3135V141.047H59.1934ZM66.2746 147.377V147.233C66.2746 146.691 66.3521 146.192 66.507 145.736C66.662 145.276 66.8876 144.877 67.1838 144.54C67.48 144.203 67.8423 143.941 68.2707 143.754C68.6991 143.562 69.1867 143.467 69.7336 143.467C70.2896 143.467 70.7818 143.562 71.2102 143.754C71.6431 143.941 72.0077 144.203 72.3039 144.54C72.6001 144.877 72.8257 145.276 72.9807 145.736C73.1356 146.192 73.2131 146.691 73.2131 147.233V147.377C73.2131 147.915 73.1356 148.414 72.9807 148.874C72.8257 149.33 72.6001 149.729 72.3039 150.07C72.0077 150.408 71.6454 150.67 71.217 150.856C70.7886 151.043 70.2987 151.137 69.7473 151.137C69.2004 151.137 68.7105 151.043 68.2775 150.856C67.8446 150.67 67.48 150.408 67.1838 150.07C66.8876 149.729 66.662 149.33 66.507 148.874C66.3521 148.414 66.2746 147.915 66.2746 147.377ZM68.0793 147.233V147.377C68.0793 147.701 68.1112 148.004 68.175 148.286C68.2388 148.569 68.3368 148.817 68.4689 149.031C68.6011 149.245 68.772 149.414 68.9816 149.537C69.1958 149.656 69.451 149.715 69.7473 149.715C70.0389 149.715 70.2896 149.656 70.4992 149.537C70.7089 149.414 70.8798 149.245 71.0119 149.031C71.1486 148.817 71.2489 148.569 71.3127 148.286C71.3765 148.004 71.4084 147.701 71.4084 147.377V147.233C71.4084 146.914 71.3765 146.616 71.3127 146.338C71.2489 146.055 71.1486 145.807 71.0119 145.593C70.8798 145.374 70.7066 145.203 70.4924 145.08C70.2827 144.952 70.0298 144.889 69.7336 144.889C69.4419 144.889 69.1913 144.952 68.9816 145.08C68.772 145.203 68.6011 145.374 68.4689 145.593C68.3368 145.807 68.2388 146.055 68.175 146.338C68.1112 146.616 68.0793 146.914 68.0793 147.233ZM78.1479 151.137C77.5873 151.137 77.0837 151.046 76.6371 150.863C76.1905 150.681 75.81 150.428 75.4955 150.104C75.1856 149.776 74.9464 149.396 74.7777 148.963C74.6137 148.525 74.5316 148.056 74.5316 147.555V147.281C74.5316 146.712 74.6137 146.194 74.7777 145.729C74.9418 145.26 75.1742 144.857 75.475 144.52C75.7758 144.182 76.1358 143.923 76.5551 143.74C76.9743 143.558 77.4369 143.467 77.9428 143.467C78.4669 143.467 78.9294 143.556 79.3305 143.733C79.7315 143.907 80.0665 144.153 80.3354 144.472C80.6042 144.791 80.807 145.174 80.9437 145.62C81.0805 146.062 81.1488 146.552 81.1488 147.09V147.849H75.352V146.604H79.3715V146.468C79.3624 146.181 79.3077 145.919 79.2074 145.682C79.1072 145.44 78.9522 145.249 78.7426 145.107C78.5329 144.962 78.2618 144.889 77.9291 144.889C77.6602 144.889 77.4255 144.948 77.225 145.066C77.029 145.18 76.865 145.344 76.7328 145.559C76.6052 145.768 76.5095 146.019 76.4457 146.311C76.3819 146.602 76.35 146.926 76.35 147.281V147.555C76.35 147.865 76.391 148.152 76.473 148.416C76.5596 148.68 76.685 148.91 76.849 149.106C77.0176 149.298 77.2182 149.448 77.4506 149.558C77.6876 149.662 77.9564 149.715 78.2572 149.715C78.6355 149.715 78.9773 149.642 79.2826 149.496C79.5925 149.346 79.8614 149.125 80.0893 148.833L80.9984 149.776C80.8435 150.004 80.6339 150.223 80.3695 150.433C80.1098 150.642 79.7953 150.813 79.4262 150.945C79.057 151.073 78.6309 151.137 78.1479 151.137Z" fill="black"/>
<path opacity="0.6" d="M23.5596 162.852V170H22.6562V163.979L20.835 164.644V163.828L23.418 162.852H23.5596ZM31.174 169.258V170H26.5207V169.351L28.8498 166.758C29.1363 166.439 29.3576 166.169 29.5139 165.947C29.6734 165.723 29.784 165.522 29.8459 165.347C29.911 165.168 29.9436 164.985 29.9436 164.8C29.9436 164.565 29.8947 164.354 29.7971 164.165C29.7027 163.973 29.5627 163.82 29.3771 163.706C29.1916 163.592 28.967 163.535 28.7033 163.535C28.3876 163.535 28.1239 163.597 27.9123 163.721C27.704 163.841 27.5477 164.01 27.4436 164.229C27.3394 164.447 27.2873 164.697 27.2873 164.98H26.384C26.384 164.58 26.4719 164.214 26.6477 163.882C26.8234 163.55 27.0839 163.286 27.4289 163.091C27.774 162.892 28.1988 162.793 28.7033 162.793C29.1525 162.793 29.5367 162.873 29.8557 163.032C30.1747 163.188 30.4188 163.41 30.5881 163.696C30.7606 163.979 30.8469 164.312 30.8469 164.692C30.8469 164.901 30.8111 165.112 30.7395 165.327C30.6711 165.539 30.5751 165.75 30.4514 165.962C30.3309 166.174 30.1893 166.382 30.0266 166.587C29.8671 166.792 29.6962 166.994 29.5139 167.192L27.6096 169.258H31.174ZM35.683 162.891L32.7191 170.61H31.9428L34.9115 162.891H35.683ZM38.19 166.001H38.8346C39.1503 166.001 39.4107 165.949 39.6158 165.845C39.8242 165.737 39.9788 165.592 40.0797 165.41C40.1839 165.225 40.2359 165.016 40.2359 164.785C40.2359 164.512 40.1904 164.282 40.0992 164.097C40.0081 163.911 39.8714 163.771 39.6891 163.677C39.5068 163.582 39.2757 163.535 38.9957 163.535C38.7418 163.535 38.5172 163.586 38.3219 163.687C38.1298 163.784 37.9785 163.924 37.8678 164.106C37.7604 164.289 37.7066 164.504 37.7066 164.751H36.8033C36.8033 164.39 36.8945 164.061 37.0768 163.765C37.259 163.468 37.5146 163.232 37.8434 163.057C38.1754 162.881 38.5595 162.793 38.9957 162.793C39.4254 162.793 39.8014 162.869 40.1236 163.022C40.4459 163.172 40.6965 163.397 40.8756 163.696C41.0546 163.993 41.1441 164.362 41.1441 164.805C41.1441 164.984 41.1018 165.176 41.0172 165.381C40.9358 165.583 40.8072 165.771 40.6314 165.947C40.4589 166.123 40.2343 166.268 39.9576 166.382C39.6809 166.493 39.3489 166.548 38.9615 166.548H38.19V166.001ZM38.19 166.743V166.201H38.9615C39.414 166.201 39.7883 166.255 40.0846 166.362C40.3808 166.47 40.6135 166.613 40.7828 166.792C40.9553 166.971 41.0758 167.168 41.1441 167.383C41.2158 167.594 41.2516 167.806 41.2516 168.018C41.2516 168.35 41.1946 168.644 41.0807 168.901C40.97 169.159 40.8121 169.377 40.607 169.556C40.4052 169.735 40.1676 169.87 39.8941 169.961C39.6207 170.052 39.3229 170.098 39.0006 170.098C38.6913 170.098 38.4 170.054 38.1266 169.966C37.8564 169.878 37.6171 169.751 37.4088 169.585C37.2005 169.416 37.0377 169.209 36.9205 168.965C36.8033 168.717 36.7447 168.436 36.7447 168.12H37.648C37.648 168.368 37.7018 168.584 37.8092 168.77C37.9199 168.955 38.0761 169.1 38.2779 169.204C38.483 169.305 38.7239 169.355 39.0006 169.355C39.2773 169.355 39.5149 169.308 39.7135 169.214C39.9153 169.116 40.0699 168.97 40.1773 168.774C40.288 168.579 40.3434 168.333 40.3434 168.037C40.3434 167.741 40.2815 167.498 40.1578 167.31C40.0341 167.118 39.8583 166.976 39.6305 166.885C39.4059 166.79 39.1406 166.743 38.8346 166.743H38.19ZM47.2596 165.879V166.963C47.2596 167.546 47.2075 168.037 47.1033 168.438C46.9992 168.838 46.8494 169.16 46.6541 169.404C46.4588 169.648 46.2228 169.826 45.9461 169.937C45.6727 170.044 45.3634 170.098 45.0184 170.098C44.7449 170.098 44.4926 170.063 44.2615 169.995C44.0304 169.927 43.8221 169.818 43.6365 169.668C43.4542 169.515 43.298 169.316 43.1678 169.072C43.0376 168.828 42.9383 168.532 42.8699 168.184C42.8016 167.835 42.7674 167.428 42.7674 166.963V165.879C42.7674 165.296 42.8195 164.808 42.9236 164.414C43.0311 164.02 43.1824 163.704 43.3777 163.467C43.573 163.226 43.8074 163.053 44.0809 162.949C44.3576 162.845 44.6668 162.793 45.0086 162.793C45.2853 162.793 45.5392 162.827 45.7703 162.896C46.0047 162.961 46.213 163.066 46.3953 163.213C46.5776 163.356 46.7322 163.548 46.8592 163.789C46.9894 164.027 47.0887 164.318 47.157 164.663C47.2254 165.008 47.2596 165.413 47.2596 165.879ZM46.3514 167.109V165.728C46.3514 165.409 46.3318 165.129 46.2928 164.888C46.257 164.644 46.2033 164.435 46.1316 164.263C46.06 164.09 45.9689 163.95 45.8582 163.843C45.7508 163.735 45.6255 163.657 45.4822 163.608C45.3423 163.556 45.1844 163.53 45.0086 163.53C44.7938 163.53 44.6033 163.571 44.4373 163.652C44.2713 163.73 44.1313 163.856 44.0174 164.028C43.9067 164.201 43.8221 164.427 43.7635 164.707C43.7049 164.987 43.6756 165.327 43.6756 165.728V167.109C43.6756 167.428 43.6935 167.71 43.7293 167.954C43.7684 168.198 43.8253 168.41 43.9002 168.589C43.9751 168.765 44.0662 168.91 44.1736 169.023C44.2811 169.137 44.4048 169.222 44.5447 169.277C44.688 169.329 44.8458 169.355 45.0184 169.355C45.2397 169.355 45.4334 169.313 45.5994 169.229C45.7654 169.144 45.9038 169.012 46.0145 168.833C46.1284 168.651 46.213 168.418 46.2684 168.135C46.3237 167.848 46.3514 167.507 46.3514 167.109Z" fill="black"/>
</svg>
