<svg width="396" height="270" viewBox="0 0 396 270" fill="none" xmlns="http://www.w3.org/2000/svg">
<path d="M0 0H393V270H0V0Z" fill="#000824"/>
<path d="M132.42 171.86C77.89 137.725 21.4192 141.992 0 148.392V270H393V218.441C389.095 215.715 373.971 205.285 344.718 185.372C308.152 160.482 293.241 157.282 265.195 158.348C237.149 159.415 200.583 214.53 132.42 171.86Z" fill="#1B1657"/>
<g clip-path="url(#clip0_1_220)">
<path d="M25.8269 262.42C25.6313 262.429 25.4377 262.377 25.2723 262.273C25.1069 262.168 24.9777 262.014 24.9022 261.834C24.8267 261.653 24.8085 261.453 24.8501 261.261C24.8918 261.07 24.9912 260.896 25.1349 260.762C25.159 260.667 25.1763 260.598 25.2004 260.502C25.1917 260.481 25.1831 260.46 25.1744 260.439C24.9774 259.973 24.6473 259.576 24.2255 259.297C23.8038 259.019 23.3092 258.871 22.8039 258.873C22.2986 258.875 21.8051 259.026 21.3854 259.308C20.9658 259.59 20.6386 259.99 20.4451 260.457C19.6716 262.323 18.6868 264.192 18.4443 266.165C18.3375 267.037 18.3826 267.921 18.5774 268.777C16.7607 264.808 15.8173 260.494 15.8113 256.128C15.8109 255.032 15.8717 253.937 15.9933 252.849C16.0939 251.956 16.2334 251.07 16.4118 250.19C17.3855 245.415 19.4762 240.94 22.512 237.132C23.9814 236.329 25.1697 235.094 25.9167 233.594C26.1874 233.055 26.3787 232.479 26.4847 231.885C26.3189 231.907 26.1504 231.92 25.9847 231.931C25.9331 231.934 25.8787 231.937 25.8271 231.939L25.8076 231.94C25.6254 231.949 25.4448 231.904 25.2874 231.812C25.13 231.719 25.0026 231.583 24.9206 231.42C24.8385 231.257 24.8052 231.074 24.8248 230.892C24.8443 230.711 24.9158 230.539 25.0308 230.397C25.1023 230.309 25.1739 230.221 25.2456 230.132C25.3543 229.996 25.4657 229.863 25.5744 229.727C25.5869 229.714 25.5987 229.7 25.6097 229.686C25.7347 229.531 25.8597 229.379 25.9847 229.223C25.7565 228.869 25.4497 228.572 25.088 228.355C23.8353 227.62 22.1072 228.129 21.2023 229.264C20.2947 230.399 20.1236 231.991 20.4387 233.409C20.7487 234.616 21.2615 235.76 21.955 236.795C21.8871 236.882 21.8164 236.966 21.7485 237.053C20.5067 238.652 19.4243 240.37 18.517 242.18C18.7377 240.152 18.4743 238.1 17.7487 236.193C17.0132 234.416 15.6347 232.92 14.4207 231.383C12.9625 229.538 9.97246 230.343 9.71556 232.683C9.71308 232.705 9.71065 232.728 9.70828 232.75C9.8886 232.852 10.0651 232.96 10.2378 233.075C10.4547 233.22 10.6229 233.427 10.7201 233.67C10.8173 233.912 10.8391 234.179 10.7827 234.434C10.7263 234.689 10.5942 234.921 10.4038 235.1C10.2134 235.278 9.97355 235.395 9.71568 235.435L9.68928 235.439C9.75351 236.09 9.86705 236.735 10.0289 237.369C10.498 239.138 11.3268 240.79 12.4635 242.223C13.6002 243.657 15.0202 244.839 16.6346 245.697C16.7406 245.751 16.8438 245.805 16.9498 245.857C16.0382 248.444 15.4664 251.14 15.2488 253.875C15.1256 255.488 15.1328 257.109 15.2705 258.721L15.2624 258.664C14.9145 256.871 13.9595 255.254 12.5587 254.084C10.4781 252.372 7.53851 251.742 5.29388 250.366C5.05533 250.213 4.77795 250.131 4.49446 250.13C4.21098 250.129 3.93321 250.21 3.69392 250.362C3.45462 250.514 3.26378 250.732 3.14391 250.989C3.02404 251.246 2.98013 251.533 3.01737 251.814C3.02038 251.834 3.02344 251.854 3.02655 251.874C3.36116 252.011 3.68695 252.168 4.00204 252.345C4.18235 252.447 4.35885 252.555 4.53155 252.669C4.7485 252.815 4.9166 253.022 5.01384 253.265C5.11108 253.507 5.13291 253.773 5.07647 254.028C5.02003 254.284 4.88796 254.516 4.69756 254.694C4.50716 254.873 4.2673 254.99 4.00943 255.03L3.98301 255.034C3.96398 255.037 3.94768 255.039 3.92869 255.042C4.50041 256.409 5.30285 257.668 6.30085 258.762C7.53371 260.087 9.02379 261.146 10.6797 261.874C12.3357 262.601 14.1225 262.983 15.9308 262.994H15.9336C16.4244 265.131 17.1356 267.21 18.0557 269.199H25.6369C25.6641 269.115 25.6885 269.028 25.713 268.943C25.0113 268.988 24.3068 268.945 23.6152 268.818C24.1777 268.127 24.7402 267.43 25.3027 266.739C25.3152 266.726 25.327 266.712 25.338 266.698C25.6233 266.344 25.9113 265.993 26.1966 265.639L26.1968 265.639C26.212 264.555 26.0877 263.473 25.8271 262.42L25.8269 262.42Z" fill="#A9A9A9"/>
<path d="M92.1731 262.42C92.3687 262.429 92.5623 262.377 92.7276 262.273C92.893 262.168 93.0223 262.014 93.0978 261.834C93.1733 261.653 93.1915 261.453 93.1498 261.261C93.1082 261.07 93.0088 260.896 92.865 260.762C92.841 260.667 92.8237 260.598 92.7996 260.502C92.8082 260.481 92.8169 260.46 92.8256 260.439C93.0226 259.973 93.3527 259.576 93.7745 259.297C94.1962 259.019 94.6908 258.871 95.1961 258.873C95.7014 258.875 96.1949 259.026 96.6145 259.308C97.0342 259.59 97.3614 259.99 97.5549 260.457C98.3284 262.323 99.3132 264.192 99.5557 266.165C99.6625 267.037 99.6174 267.921 99.4225 268.777C101.239 264.808 102.183 260.494 102.189 256.128C102.189 255.032 102.128 253.937 102.007 252.849C101.906 251.956 101.767 251.07 101.588 250.19C100.614 245.415 98.5238 240.94 95.4879 237.132C94.0186 236.329 92.8303 235.094 92.0832 233.594C91.8126 233.055 91.6213 232.479 91.5153 231.885C91.6811 231.907 91.8495 231.92 92.0153 231.931C92.0669 231.934 92.1213 231.937 92.1729 231.939L92.1924 231.94C92.3745 231.949 92.5552 231.904 92.7126 231.812C92.8699 231.719 92.9973 231.583 93.0794 231.42C93.1615 231.257 93.1948 231.074 93.1752 230.892C93.1557 230.711 93.0841 230.539 92.9692 230.397C92.8977 230.309 92.826 230.221 92.7544 230.132C92.6457 229.996 92.5343 229.863 92.4256 229.727C92.4131 229.714 92.4013 229.7 92.3903 229.686C92.2653 229.531 92.1403 229.379 92.0153 229.223C92.2435 228.869 92.5503 228.572 92.912 228.355C94.1647 227.62 95.8928 228.129 96.7977 229.264C97.7052 230.399 97.8764 231.991 97.5612 233.409C97.2513 234.616 96.7385 235.76 96.045 236.795C96.1129 236.882 96.1836 236.966 96.2515 237.053C97.4933 238.652 98.5756 240.37 99.483 242.18C99.2623 240.152 99.5257 238.1 100.251 236.193C100.987 234.416 102.365 232.92 103.579 231.383C105.037 229.538 108.028 230.343 108.284 232.683C108.287 232.705 108.289 232.728 108.292 232.75C108.111 232.852 107.935 232.96 107.762 233.075C107.545 233.22 107.377 233.427 107.28 233.67C107.183 233.912 107.161 234.179 107.217 234.434C107.274 234.689 107.406 234.921 107.596 235.1C107.787 235.278 108.026 235.395 108.284 235.435L108.311 235.439C108.246 236.09 108.133 236.735 107.971 237.369C107.502 239.138 106.673 240.79 105.536 242.223C104.4 243.657 102.98 244.839 101.365 245.697C101.259 245.751 101.156 245.805 101.05 245.857C101.962 248.444 102.534 251.14 102.751 253.875C102.874 255.488 102.867 257.109 102.729 258.721L102.738 258.664C103.085 256.871 104.04 255.254 105.441 254.084C107.522 252.372 110.461 251.742 112.706 250.366C112.945 250.213 113.222 250.131 113.506 250.13C113.789 250.129 114.067 250.21 114.306 250.362C114.545 250.514 114.736 250.732 114.856 250.989C114.976 251.246 115.02 251.533 114.983 251.814C114.98 251.834 114.977 251.854 114.973 251.874C114.639 252.011 114.313 252.168 113.998 252.345C113.818 252.447 113.641 252.555 113.468 252.669C113.251 252.815 113.083 253.022 112.986 253.265C112.889 253.507 112.867 253.773 112.924 254.028C112.98 254.284 113.112 254.516 113.302 254.694C113.493 254.873 113.733 254.99 113.991 255.03L114.017 255.034C114.036 255.037 114.052 255.039 114.071 255.042C113.5 256.409 112.697 257.668 111.699 258.762C110.466 260.087 108.976 261.146 107.32 261.874C105.664 262.601 103.877 262.983 102.069 262.994H102.066C101.576 265.131 100.864 267.21 99.9442 269.199H92.3631C92.3359 269.115 92.3114 269.028 92.287 268.943C92.9887 268.988 93.6932 268.945 94.3847 268.818C93.8223 268.127 93.2598 267.43 92.6973 266.739C92.6848 266.726 92.673 266.712 92.662 266.698C92.3767 266.344 92.0886 265.993 91.8033 265.639L91.8032 265.639C91.788 264.555 91.9125 263.473 92.1731 262.42Z" fill="#A9A9A9"/>
<path d="M28.2404 265.162L30.4567 266.108L35.1544 257.996L31.8833 256.6L28.2404 265.162Z" fill="#A0616A"/>
<path d="M46.5551 267.263L48.9641 267.262L50.1103 257.956L46.5546 257.956L46.5551 267.263Z" fill="#A0616A"/>
<path d="M46.4702 269.779L53.8785 269.779V269.685C53.8784 268.919 53.5746 268.185 53.0339 267.643C52.4931 267.102 51.7597 266.797 50.995 266.797L49.6416 265.769L47.1168 266.798L46.4701 266.798L46.4702 269.779Z" fill="#2F2E41"/>
<path d="M26.8929 266.773L33.7081 269.682L33.7448 269.596C34.0446 268.891 34.0527 268.096 33.7672 267.385C33.4818 266.675 32.9262 266.107 32.2227 265.807L31.3802 264.329L28.655 264.284L28.0601 264.03L26.8929 266.773Z" fill="#2F2E41"/>
<path d="M48.9182 212.182L52.5795 234.511L51.5831 237.838L52.8906 240.195L50.9705 260.89L51.7499 262.609L49.5723 263.954H45.141L44.9058 245.218L43.8112 242.467V240.951L41.583 229.526L41.3453 243.714L40.6339 245.089L34.2609 261.798H29.292L29.6763 258.832C28.7861 258.381 31.0129 257.062 31.2269 256.086L30.4953 254.437L31.2269 251.322L32.9122 242.661L31.1903 232.392L31.807 225.781L31.4859 223.52L31.5102 222.789C31.5102 222.789 32.3596 222.461 31.5485 221.642C30.4256 215.266 31.807 213.883 31.807 213.883L37.3358 210.642L48.9182 212.182Z" fill="#2F2E41"/>
<path d="M40.0019 182.777C42.7752 182.777 45.0233 180.525 45.0233 177.747C45.0233 174.97 42.7752 172.718 40.0019 172.718C37.2287 172.718 34.9805 174.97 34.9805 177.747C34.9805 180.525 37.2287 182.777 40.0019 182.777Z" fill="#A0616A"/>
<path d="M33.7064 168.1C33.73 168.388 33.6903 168.678 33.5899 168.95C33.4896 169.221 33.3311 169.467 33.1255 169.67C32.92 169.874 32.6724 170.029 32.4003 170.126C32.1282 170.224 31.8381 170.26 31.5506 170.232L28.6329 176.63L26.6967 173.532L29.7642 167.932C29.842 167.451 30.0932 167.015 30.4702 166.708C30.8473 166.4 31.3239 166.242 31.8098 166.262C32.2957 166.283 32.7572 166.481 33.1067 166.82C33.4563 167.159 33.6696 167.614 33.7064 168.1Z" fill="#A0616A"/>
<path d="M49.2473 212.663C49.2578 212.738 49.2498 212.815 49.2243 212.887C49.1987 212.958 49.1562 213.023 49.1004 213.075C49.0447 213.126 48.9772 213.164 48.9039 213.184C48.8306 213.204 48.7535 213.206 48.6792 213.19C46.0502 212.621 35.201 213.986 31.6075 217.654C31.5395 217.724 31.4516 217.772 31.3557 217.79C31.2598 217.808 31.1606 217.796 31.0716 217.756C30.9826 217.716 30.9082 217.649 30.8584 217.565C30.8087 217.481 30.7861 217.384 30.7936 217.286C30.8571 216.498 32.0012 212.93 32.0012 212.93L32.3499 210.707C32.3579 210.656 32.3579 210.603 32.3499 210.551L32.0302 208.712C32.0129 208.616 31.9668 208.527 31.8981 208.458L31.7898 208.349C31.7009 208.26 31.6511 208.139 31.6511 208.013C31.6511 207.887 31.7009 207.766 31.7898 207.677L32.2099 207.259C32.2608 207.207 32.2994 207.144 32.3227 207.075C32.346 207.005 32.3535 206.932 32.3447 206.859L31.7871 202.731C31.7845 202.723 31.7845 202.713 31.7819 202.705L29.3193 189.679C29.3002 189.576 29.3154 189.47 29.3627 189.377C29.41 189.283 29.4867 189.208 29.5808 189.163L33.7662 187.16C33.8097 187.14 33.8498 187.113 33.8851 187.08L36.8075 184.365C36.8945 184.286 37.0071 184.241 37.1246 184.238L42.3774 184.199C42.4503 184.199 42.5223 184.215 42.5878 184.247C42.6532 184.279 42.7105 184.326 42.7552 184.384L44.3538 186.466C44.4107 186.54 44.4879 186.595 44.5758 186.625L45.6591 186.993L48.7876 188.057L48.9329 188.107C49.0228 188.138 49.1011 188.196 49.1577 188.272C49.2143 188.349 49.2464 188.441 49.25 188.536C49.2522 188.55 49.253 188.564 49.2526 188.578L48.4705 204.79C48.4682 204.861 48.4807 204.933 48.5075 204.999L48.8827 205.875C48.9201 205.964 48.9298 206.062 48.9104 206.156C48.8911 206.251 48.8436 206.337 48.7744 206.404C48.6634 206.51 48.5365 206.632 48.4573 206.722C48.2961 206.899 48.6396 208.304 48.6924 208.508C48.6972 208.525 48.7008 208.543 48.703 208.561L48.8959 210.014C48.9071 210.099 48.8948 210.186 48.8603 210.265C48.8259 210.344 48.7706 210.412 48.7004 210.461C48.647 210.499 48.6021 210.548 48.5686 210.605C48.5351 210.661 48.5136 210.724 48.5057 210.789C48.4977 210.854 48.5034 210.921 48.5224 210.983C48.5413 211.046 48.5732 211.105 48.6158 211.154L49.0386 211.655C49.0962 211.725 49.1337 211.81 49.1469 211.901L49.2473 212.663Z" fill="#6C63FF"/>
<path d="M38.7173 182.53C38.6959 182.483 38.6745 182.436 38.6532 182.388C38.6614 182.388 38.6695 182.389 38.6777 182.39L38.7173 182.53Z" fill="#2F2E41"/>
<path d="M56.5963 211.008C56.6207 210.72 56.5817 210.43 56.4821 210.158C56.3824 209.887 56.2245 209.641 56.0195 209.437C55.8145 209.233 55.5674 209.077 55.2955 208.979C55.0236 208.881 54.7336 208.844 54.446 208.871L51.5448 202.466L49.6006 205.559L52.6537 211.166C52.7303 211.647 52.9804 212.084 53.3566 212.392C53.7329 212.701 54.2091 212.861 54.6951 212.841C55.181 212.822 55.643 212.625 55.9934 212.287C56.3438 211.949 56.5583 211.494 56.5963 211.008Z" fill="#A0616A"/>
<path d="M52.6638 204.284L52.5026 204.586L50.8036 207.767L50.5658 208.212L48.9065 205.923L43.4607 198.412L44.2349 193.702L45.6591 187.8L47.7703 187.678L49.25 188.284C49.8802 188.563 50.3972 189.048 50.716 189.66C51.0348 190.272 51.1365 190.974 51.0044 191.651L49.6939 198.372L52.6638 204.284Z" fill="#6C63FF"/>
<path d="M44.3737 173.222C44.2986 172.804 44.1306 172.409 43.8822 172.065C43.757 171.916 43.6019 171.795 43.4269 171.71C43.2519 171.625 43.0611 171.578 42.8668 171.573C42.6725 171.567 42.4791 171.602 42.2993 171.676C42.1196 171.75 41.9574 171.861 41.8234 172.002C41.902 171.774 41.9248 171.53 41.8901 171.29C41.5234 171.466 41.1311 171.583 40.7278 171.637L41.6189 170.705L37.1833 171.113C36.7255 171.155 36.2305 171.215 35.8943 171.563C35.5582 171.911 35.5395 172.655 35.9644 172.849C35.1272 172.533 34.1658 172.991 33.6134 173.759C33.061 174.527 32.8576 175.54 32.8203 176.523C32.7719 177.797 33.009 179.154 33.7857 180.092C34.2935 180.706 34.986 181.088 35.548 181.64L35.5648 181.657C36.1803 182.289 36.952 182.747 37.8014 182.984C38.6508 183.221 39.5477 183.229 40.4009 183.006C40.4968 182.98 40.5919 182.95 40.6876 182.923C41.1656 183.14 41.7608 182.844 42.0626 182.362C42.3843 181.849 42.4479 181.192 42.4615 180.566C42.4793 179.748 42.429 178.93 42.311 178.12C42.178 177.208 42.0581 176.04 42.7793 175.582C43.3408 175.225 44.0384 175.577 44.6036 175.926C44.6579 175.018 44.5805 174.108 44.3737 173.222Z" fill="#2F2E41"/>
<path d="M33.6662 196.504L30.3203 196.262L24.5134 189.142L20.2029 182.953L21.1956 180.438L25.888 173.705L25.8394 173.123L26.3587 173.03L26.3678 172.33L26.7988 172.398L27.9532 170.742L30.5955 172.859L29.1012 177.255L29.0101 178.152L28.4932 179.044L28.7459 180.269L27.7578 181.208L27.282 182.608C29.3345 183.959 31.281 185.982 33.1788 188.513L33.6662 196.504Z" fill="#6C63FF"/>
<path d="M79.2655 204.248L78.9027 207.617L79.1162 212.035L69.3461 210.872L68.4279 204.248L69.5976 204.259L79.2655 204.248Z" fill="#FFB6B6"/>
<path d="M70.7585 193.176L73.08 191.781L74.1931 190.06L77.6281 190.59L81.8271 193.409L81.786 199.803L79.1825 206.434L68.2711 205.039L67.8565 202.7C67.8565 202.7 64.8384 198.64 68.0886 196.315L70.7585 193.176Z" fill="#6C63FF"/>
<path d="M56.8245 174.19C56.7145 174.425 56.6572 174.681 56.6568 174.941C56.6563 175.2 56.7127 175.456 56.8219 175.692C56.9311 175.927 57.0905 176.136 57.2889 176.302C57.4872 176.469 57.7197 176.591 57.9699 176.658L65.5286 190.942L68.5796 188.584L60.1903 175.284C60.2751 174.856 60.2001 174.411 59.9794 174.034C59.7587 173.657 59.4077 173.375 58.9928 173.24C58.5779 173.105 58.128 173.127 57.7284 173.302C57.3288 173.477 57.0071 173.793 56.8245 174.19Z" fill="#FFB6B6"/>
<path d="M69.2236 195.769C69.2236 195.769 68.5231 196.391 67.527 194.673C66.7296 193.298 62.7526 187.139 62.1895 185.004C61.8806 185.013 61.5776 184.918 61.3282 184.736C61.0788 184.553 60.8972 184.292 60.812 183.995L65.0839 182.334C66.0125 182.799 65.7548 183.444 65.5193 183.777L67.1103 186.167L72.4023 192.115L69.7378 195.328L69.2236 195.769Z" fill="#6C63FF"/>
<path d="M84.3331 265.414H82.1971L81.1803 257.162H84.3331V265.414Z" fill="#FFB6B6"/>
<path d="M85.4604 269.121H83.9286L83.6551 267.672L82.9548 269.121H78.892C78.6972 269.121 78.5076 269.059 78.3507 268.943C78.1939 268.827 78.078 268.665 78.02 268.478C77.9621 268.292 77.9651 268.092 78.0286 267.908C78.0921 267.724 78.2128 267.564 78.373 267.454L81.6175 265.209V263.745L85.0301 263.949L85.4604 269.121Z" fill="#2F2E41"/>
<path d="M72.3345 265.414H70.1985L69.1817 257.162H72.3345V265.414Z" fill="#FFB6B6"/>
<path d="M73.4618 269.121H71.93L71.6566 267.672L70.9563 269.121H66.8934C66.6987 269.121 66.509 269.059 66.3522 268.943C66.1953 268.827 66.0794 268.665 66.0214 268.478C65.9635 268.292 65.9665 268.092 66.03 267.908C66.0935 267.724 66.2142 267.564 66.3745 267.454L69.6189 265.209V263.745L73.0315 263.949L73.4618 269.121Z" fill="#2F2E41"/>
<path d="M85.2546 258.298H85.2314L84.8206 244.881C85.0865 244.367 85.2214 243.796 85.2133 243.217C85.2053 242.639 85.0546 242.072 84.7746 241.566L84.7158 241.459L84.8683 240.751C85.0642 239.841 84.9743 238.893 84.611 238.037L84.2278 225.521C85.5969 216.634 79.0719 210.838 79.0719 210.838H69.2973L68.5987 213.242L67.8516 213.878L68.1345 214.839L67.3232 215.995L67.1988 218.059C65.8115 231.596 66.0632 244.787 68.2646 257.567L68.2046 257.598C68.0908 257.661 68.0058 257.766 67.9672 257.891C67.9287 258.016 67.9395 258.151 67.9975 258.268C68.0992 258.563 68.3569 258.741 68.573 258.667L73.7351 258.487C73.849 258.423 73.934 258.318 73.9725 258.194C74.0111 258.069 74.0002 257.934 73.9422 257.817C73.8405 257.522 73.5828 257.343 73.3667 257.418L73.0157 257.596L73.7643 244.649L73.6812 242.284L73.8524 239.601L74.6436 227.533L77.6386 242.373L80.6979 258.448C80.6135 258.524 80.5543 258.624 80.5281 258.735C80.5018 258.846 80.5098 258.963 80.5509 259.069C80.592 259.175 80.6643 259.267 80.7583 259.331C80.8523 259.395 80.9636 259.429 81.0774 259.429H85.2546C85.4043 259.429 85.5479 259.369 85.6538 259.263C85.7596 259.157 85.8191 259.014 85.8191 258.864C85.8191 258.714 85.7596 258.57 85.6538 258.464C85.5479 258.358 85.4043 258.298 85.2546 258.298Z" fill="#2F2E41"/>
<path d="M95.9595 216.359C96.0626 216.121 96.1124 215.863 96.1053 215.604C96.0981 215.344 96.0343 215.089 95.9183 214.857C95.8023 214.625 95.6369 214.422 95.4338 214.261C95.2306 214.1 94.9947 213.985 94.7426 213.925L86.7709 199.868L83.7899 202.315L92.5632 215.363C92.4909 215.794 92.5788 216.236 92.8104 216.607C93.042 216.977 93.4011 217.249 93.8198 217.372C94.2384 217.494 94.6874 217.459 95.0818 217.272C95.4762 217.086 95.7885 216.761 95.9595 216.359Z" fill="#FFB6B6"/>
<path d="M81.1625 193.399C81.1625 193.399 81.8445 192.756 82.8903 194.444C83.7274 195.796 89.6566 203.588 90.2817 205.706C90.5902 205.688 90.8958 205.774 91.1504 205.949C91.4051 206.125 91.5942 206.38 91.688 206.675L87.4663 208.46C86.5245 208.022 86.0858 207.203 86.3115 206.863L84.6515 204.52L78.428 197.324L80.6613 193.854L81.1625 193.399Z" fill="#6C63FF"/>
<path d="M72.5236 180.781C71.1023 183.587 72.0308 186.837 74.6683 188.546C77.5203 190.394 81.2233 189.989 82.421 186.398C83.7548 182.398 82.6591 180.683 80.2764 178.633C77.4841 176.231 74.0593 177.749 72.5236 180.781Z" fill="#2F2E41"/>
<path d="M79.5201 187.031C78.7965 187.981 77.7262 188.604 76.5444 188.763C75.3626 188.923 74.1658 188.606 73.217 187.882C72.2682 187.159 71.645 186.088 71.4842 184.904C71.3234 183.721 71.6383 182.522 72.3596 181.57L72.3986 181.519C73.1357 180.595 74.206 179.998 75.3785 179.857C76.551 179.716 77.7318 180.043 78.6662 180.766C79.6006 181.489 80.2137 182.552 80.3733 183.723C80.5328 184.895 80.226 186.083 79.519 187.03L79.5201 187.031Z" fill="#FFB6B6"/>
<path d="M71.1462 180.327C71.8776 181.024 72.769 181.53 73.7418 181.8C73.9368 181.574 74.168 181.382 74.4259 181.232C74.3024 181.489 74.2178 181.763 74.1748 182.045C74.6087 182.947 76.3808 183.595 78.0744 184.258L80.3177 180.293L77.3484 178.608C74.9626 176.956 72.1539 177.661 71.1462 180.327Z" fill="#2F2E41"/>
<path d="M82.0098 178.638C82.2263 178.558 82.4594 178.534 82.6878 178.567C82.9161 178.601 83.1325 178.691 83.3172 178.829C83.6787 179.104 83.971 179.46 84.1707 179.869C84.5338 180.53 84.7948 181.242 84.9445 181.981C85.0726 182.621 85.0509 183.394 84.478 183.728C83.9999 184.006 83.3164 183.831 82.877 183.459C82.4698 183.069 82.1609 182.588 81.9757 182.055C81.7939 181.526 81.524 181.032 81.1776 180.593L81.5734 180.778C81.4483 180.397 81.39 179.998 81.4011 179.598C81.4101 179.398 81.4711 179.205 81.5778 179.037C81.6846 178.868 81.8335 178.731 82.0098 178.638Z" fill="#2F2E41"/>
<path d="M76.8742 179.158L80.0597 180.965C80.4862 181.208 80.8609 181.531 81.1625 181.918C81.464 182.306 81.6865 182.748 81.8172 183.222C81.9479 183.695 81.9843 184.189 81.9242 184.676C81.8642 185.164 81.7089 185.634 81.4672 186.061C80.7562 187.318 79.603 188.264 78.233 188.714C76.8629 189.164 75.3745 189.087 74.0584 188.497L76.9693 185.923L73.0205 187.938L72.1774 187.46C76.4124 186.688 77.2293 183.361 76.8742 179.158Z" fill="#2F2E41"/>
<path d="M46.112 129L35.6322 146.475L46.1477 152.693L46.112 129Z" fill="#8C8C8C"/>
<path d="M56.6378 146.475L46.112 129L46.1476 152.693L56.6378 146.475Z" fill="#333333"/>
<path d="M35.6322 146.475L46.135 141.68L46.1477 152.693L35.6322 146.475Z" fill="#383838"/>
<path d="M56.6378 146.475L46.1349 141.68L46.1577 152.29L56.6378 146.475Z" fill="#141414"/>
<path d="M56.6121 148.476L46.122 154.694V163.271L56.6121 148.476Z" fill="#333333"/>
<path d="M35.6316 148.476L46.122 154.694V163.271L35.6316 148.476Z" fill="#8C8C8C"/>
</g>
<path d="M371.791 237.766C384.653 226.141 389.222 210.254 381.997 202.281C374.773 194.309 358.489 197.269 345.628 208.894C332.766 220.519 328.197 236.406 335.422 244.378C342.647 252.351 358.93 249.39 371.791 237.766Z" fill="#A9A9A9"/>
<path d="M334.908 269.591C333.206 266.029 332.602 262.017 332.899 258.088C333.221 254.184 334.358 250.394 336.236 246.969C338.06 243.663 340.373 240.66 343.095 238.064C345.955 235.291 349.18 232.936 352.573 230.878C356.156 228.706 359.921 226.859 363.729 225.131C364.204 224.916 364.679 224.702 365.155 224.49C365.468 224.351 365.197 223.887 364.887 224.025C361.004 225.756 357.153 227.581 353.471 229.721C349.954 231.766 346.588 234.105 343.582 236.869C340.749 239.433 338.308 242.409 336.339 245.7C334.324 249.086 333.017 252.856 332.5 256.774C332.003 260.721 332.387 264.824 333.865 268.527C334.045 268.979 334.24 269.424 334.449 269.862C334.598 270.174 335.057 269.901 334.908 269.591Z" fill="#A9A9A9"/>
<path d="M348.905 232.728C348.723 229.644 348.949 226.549 349.575 223.527C350.199 220.504 351.213 217.58 352.588 214.833C353.362 213.291 354.25 211.811 355.242 210.408C355.451 210.114 354.974 209.831 354.768 210.123C352.985 212.652 351.541 215.418 350.476 218.346C349.409 221.274 348.724 224.334 348.44 227.448C348.28 229.203 348.251 230.968 348.356 232.728C348.377 233.089 348.926 233.092 348.905 232.728Z" fill="#A9A9A9"/>
<path d="M291.366 227.65C308.106 212.519 314.054 191.841 304.65 181.464C295.246 171.087 274.052 174.94 257.311 190.071C240.571 205.202 234.623 225.88 244.027 236.258C253.431 246.635 274.625 242.781 291.366 227.65Z" fill="#A9A9A9"/>
<path d="M242.78 268.475C240.509 263.907 239.705 258.761 240.101 253.722C240.493 248.714 242.081 243.857 244.551 239.46C246.942 235.202 250.103 231.39 253.695 228.039C257.509 224.481 261.808 221.462 266.332 218.822C271.11 216.035 276.129 213.667 281.208 211.451C281.84 211.175 282.474 210.901 283.109 210.629C283.526 210.45 283.165 209.855 282.751 210.033C277.574 212.253 272.44 214.592 267.53 217.338C262.84 219.96 258.353 222.961 254.344 226.506C250.605 229.813 247.272 233.597 244.687 237.833C242 242.176 240.258 247.011 239.568 252.036C238.906 257.098 239.418 262.362 241.388 267.111C241.628 267.69 241.888 268.261 242.168 268.823C242.366 269.223 242.978 268.873 242.78 268.475Z" fill="#A9A9A9"/>
<path d="M262.079 220.657C261.846 216.768 262.136 212.866 262.941 209.056C263.744 205.244 265.046 201.557 266.815 198.094C267.81 196.149 268.951 194.284 270.228 192.515C270.496 192.143 269.883 191.787 269.618 192.155C267.325 195.344 265.468 198.832 264.1 202.523C262.728 206.215 261.847 210.074 261.482 214C261.275 216.212 261.239 218.438 261.373 220.657C261.401 221.113 262.107 221.116 262.079 220.657Z" fill="#A9A9A9"/>
<path d="M323.294 135L316.294 148.253L323.279 153L323.294 135Z" fill="#8C8C8C"/>
<path d="M316.294 148.483L323.294 145L323.285 153L316.294 148.483Z" fill="#383838"/>
<path d="M323.294 135L332.294 148.253L323.314 153L323.294 135Z" fill="#333333"/>
<path d="M332.294 148.483L323.294 145L323.305 153L332.294 148.483Z" fill="#141414"/>
<path d="M316.294 149L323.294 160V153.623L316.294 149Z" fill="#8C8C8C"/>
<path d="M332.294 149L323.294 160V153.623L332.294 149Z" fill="#333333"/>
<path d="M324.294 170C320 170 315.721 167.092 312.247 161.811C309.192 157.168 307.294 151.396 307.294 146.749C307.294 144.549 307.734 142.371 308.588 140.339C309.442 138.307 310.695 136.461 312.273 134.906C313.852 133.35 315.726 132.117 317.788 131.275C319.851 130.433 322.062 130 324.294 130C326.527 130 328.737 130.433 330.8 131.275C332.862 132.117 334.736 133.35 336.315 134.906C337.893 136.461 339.146 138.307 340 140.339C340.854 142.371 341.294 144.549 341.294 146.749C341.294 151.396 339.396 157.168 336.341 161.811C332.867 167.092 328.588 170 324.294 170ZM324.294 130.394C319.893 130.399 315.674 132.124 312.562 135.19C309.45 138.256 307.699 142.413 307.694 146.749C307.694 155.775 315.131 169.606 324.294 169.606C333.457 169.606 340.894 155.775 340.894 146.749C340.889 142.413 339.139 138.256 336.027 135.19C332.915 132.124 328.695 130.399 324.294 130.394Z" fill="#3F3D56"/>
<path d="M325.334 174H322.255C322.111 174 321.969 173.966 321.839 173.902C321.709 173.837 321.595 173.743 321.505 173.626C321.415 173.509 321.352 173.373 321.319 173.227C321.286 173.081 321.286 172.929 321.317 172.783L321.911 170H325.677L326.271 172.783C326.302 172.929 326.302 173.081 326.269 173.227C326.236 173.373 326.173 173.509 326.083 173.626C325.993 173.743 325.879 173.837 325.749 173.902C325.619 173.966 325.477 174 325.334 174ZM322.219 170.4L321.692 172.87C321.673 172.958 321.674 173.049 321.693 173.136C321.713 173.224 321.751 173.305 321.805 173.375C321.859 173.446 321.927 173.502 322.005 173.541C322.083 173.58 322.168 173.6 322.255 173.6H325.334C325.42 173.6 325.505 173.58 325.583 173.541C325.661 173.502 325.729 173.446 325.783 173.375C325.837 173.305 325.875 173.224 325.895 173.136C325.914 173.049 325.915 172.958 325.896 172.87L325.369 170.4H322.219Z" fill="#3F3D56"/>
<path d="M321.486 170.667C325.041 170.487 329.086 170.391 331.856 172.988C333.011 174.072 333.74 175.524 333.696 177.12C333.648 178.857 332.757 180.484 331.652 181.789C329.274 184.598 325.786 186.354 322.441 187.77C318.886 189.275 315.182 190.45 311.766 192.265C308.767 193.859 305.972 196.011 304.16 198.91C303.269 200.315 302.678 201.886 302.423 203.526C302.19 205.17 302.274 206.844 302.671 208.457C303.469 211.763 305.433 214.685 308.051 216.856C310.699 219.053 313.908 220.516 317.233 221.391C321.18 222.428 325.292 222.663 329.358 222.687C333.558 222.711 337.761 222.507 341.958 222.741C342.979 222.797 343.998 222.881 345.014 222.998C345.389 223.041 345.386 222.458 345.014 222.415C340.821 221.933 336.595 222.044 332.384 222.091C328.255 222.137 324.091 222.123 320.013 221.401C316.498 220.778 313.051 219.611 310.069 217.631C307.213 215.735 304.885 213.077 303.707 209.85C302.556 206.699 302.568 203.211 304.109 200.19C305.652 197.166 308.343 194.877 311.267 193.207C314.641 191.28 318.357 190.074 321.942 188.605C325.327 187.217 328.791 185.562 331.391 182.939C332.596 181.724 333.628 180.245 334.069 178.581C334.285 177.803 334.337 176.989 334.222 176.19C334.107 175.391 333.828 174.624 333.402 173.937C332.549 172.643 331.332 171.627 329.901 171.013C328.175 170.242 326.259 170.02 324.382 170.001C323.416 169.992 322.451 170.035 321.486 170.084C321.11 170.103 321.107 170.686 321.486 170.667Z" fill="#3F3D56"/>
<path d="M303.294 266.509L301.066 267L298.294 257.725L301.583 257L303.294 266.509Z" fill="#FFB8B8"/>
<path d="M304.294 268.343L296.375 270L296.355 269.895C296.274 269.47 296.274 269.032 296.354 268.607C296.435 268.181 296.594 267.777 296.823 267.416C297.053 267.056 297.347 266.746 297.69 266.505C298.033 266.264 298.418 266.096 298.823 266.012L298.823 266.012L303.66 265L304.294 268.343Z" fill="#2F2E41"/>
<path d="M325.294 267L323.415 267L321.294 258L324.068 258L325.294 267Z" fill="#FFB8B8"/>
<path d="M326.294 270L319.294 270V269.905C319.294 269.524 319.365 269.146 319.501 268.793C319.638 268.441 319.839 268.121 320.092 267.851C320.345 267.581 320.645 267.367 320.976 267.221C321.307 267.075 321.661 267 322.019 267L326.294 267L326.294 270Z" fill="#2F2E41"/>
<path d="M319.839 241.175C320.029 240.93 320.165 240.644 320.236 240.339C320.308 240.033 320.313 239.715 320.252 239.408C320.191 239.1 320.065 238.809 319.884 238.557C319.702 238.305 319.468 238.096 319.2 237.947L314.437 219L310.294 220.918L316.279 238.939C316.064 239.42 316.029 239.964 316.179 240.47C316.329 240.976 316.654 241.408 317.093 241.683C317.532 241.959 318.054 242.06 318.56 241.966C319.066 241.872 319.521 241.591 319.839 241.175Z" fill="#FFB8B8"/>
<path d="M315.566 222.855L310.923 223.974C310.79 224.006 310.653 224.008 310.52 223.981C310.387 223.954 310.261 223.898 310.151 223.817C310.041 223.735 309.95 223.631 309.883 223.51C309.816 223.389 309.776 223.255 309.764 223.117L309.361 218.279C309.205 217.588 309.324 216.862 309.692 216.261C310.059 215.659 310.646 215.231 311.322 215.07C311.999 214.909 312.71 215.028 313.301 215.402C313.891 215.776 314.312 216.373 314.472 217.063L316.227 221.559C316.277 221.688 316.3 221.826 316.293 221.965C316.286 222.103 316.25 222.239 316.187 222.361C316.125 222.484 316.037 222.592 315.93 222.677C315.822 222.762 315.699 222.823 315.566 222.855Z" fill="#6C63FF"/>
<path d="M299.554 264C299.354 264 299.161 263.931 299.006 263.804C298.852 263.677 298.746 263.5 298.706 263.303L296.405 252.174C296.261 251.473 296.257 250.75 296.392 250.048C296.527 249.345 296.799 248.676 297.192 248.08L304.442 237.123V228.911L312.859 227L312.895 227.03C317.262 230.622 317.01 235.05 316.984 235.392L325.256 262.455C325.296 262.586 325.305 262.724 325.282 262.859C325.259 262.994 325.205 263.122 325.124 263.232C325.044 263.342 324.938 263.432 324.817 263.493C324.696 263.555 324.562 263.587 324.426 263.587H321.942C321.768 263.588 321.599 263.536 321.455 263.437C321.311 263.339 321.2 263.2 321.136 263.037L312.221 241.583L301.728 250.284C301.644 250.353 301.578 250.443 301.535 250.544C301.493 250.645 301.475 250.755 301.484 250.864L302.451 262.827C302.471 263.054 302.401 263.279 302.257 263.455C302.114 263.631 301.907 263.743 301.682 263.767L299.652 263.994C299.619 263.998 299.586 264 299.554 264Z" fill="#2F2E41"/>
<path d="M310.294 211C313.055 211 315.294 208.761 315.294 206C315.294 203.239 313.055 201 310.294 201C307.533 201 305.294 203.239 305.294 206C305.294 208.761 307.533 211 310.294 211Z" fill="#FFB8B8"/>
<path d="M305.381 230C305.212 230 305.046 229.947 304.905 229.848C304.764 229.749 304.654 229.608 304.589 229.443C303.03 225.416 303.056 220.33 303.74 217.309C304.031 216.03 304.74 214.898 305.743 214.113C306.747 213.327 307.98 212.936 309.229 213.009C309.973 213.05 310.699 213.255 311.363 213.609C312.027 213.963 312.614 214.458 313.085 215.064C313.556 215.67 313.902 216.373 314.101 217.127C314.299 217.882 314.345 218.671 314.237 219.446C313.872 222.044 313.724 225.704 313.678 227.156C313.671 227.35 313.604 227.537 313.488 227.688C313.372 227.839 313.213 227.946 313.034 227.994L305.59 229.973C305.522 229.991 305.452 230 305.381 230Z" fill="#6C63FF"/>
<path d="M305.079 201.042C304.983 201.084 304.883 201.118 304.782 201.143L301.517 210.454L302.963 212.316L300.6 215L297.737 211.967C297.506 211.722 297.356 211.404 297.309 211.061C297.263 210.718 297.323 210.368 297.48 210.064L302.594 200.15C302.394 199.78 302.304 199.354 302.338 198.928C302.371 198.503 302.526 198.098 302.781 197.768C303.037 197.438 303.381 197.199 303.767 197.081C304.154 196.964 304.566 196.974 304.947 197.111C305.328 197.247 305.661 197.504 305.902 197.846C306.142 198.189 306.278 198.601 306.293 199.028C306.307 199.454 306.199 199.876 305.982 200.235C305.765 200.595 305.45 200.876 305.079 201.042Z" fill="#FFB8B8"/>
<path d="M299.463 214.196L302.199 210.396C302.277 210.287 302.378 210.197 302.496 210.129C302.614 210.062 302.746 210.02 302.882 210.005C303.018 209.991 303.157 210.005 303.287 210.047C303.417 210.088 303.537 210.156 303.637 210.245L307.157 213.381C307.734 213.765 308.127 214.352 308.252 215.013C308.377 215.674 308.222 216.355 307.822 216.908C307.422 217.46 306.809 217.838 306.118 217.959C305.427 218.079 304.714 217.933 304.135 217.552L299.829 215.534C299.706 215.477 299.597 215.394 299.51 215.292C299.423 215.191 299.36 215.072 299.325 214.945C299.29 214.818 299.285 214.686 299.308 214.556C299.332 214.427 299.385 214.304 299.463 214.196Z" fill="#6C63FF"/>
<path d="M310.29 212C309.922 211.625 310.137 210.981 310.477 210.58C310.817 210.18 311.277 209.84 311.411 209.333C311.639 208.468 310.787 207.68 309.937 207.401C309.087 207.122 308.135 207.1 307.387 206.61C306.252 205.868 305.994 204.176 306.646 202.987C307.297 201.799 308.66 201.118 310.012 201.016C311.365 200.914 312.708 201.318 313.946 201.872C315.143 202.408 316.298 203.105 317.139 204.111C317.98 205.116 318.475 206.468 318.232 207.755C317.935 209.328 316.596 210.542 315.108 211.135C313.62 211.728 311.985 211.806 310.384 211.877L310.29 212Z" fill="#2F2E41"/>
<path d="M315.884 203.273C317.367 201.874 319.352 201.063 321.439 201.004C323.525 200.944 325.558 201.64 327.126 202.951C329.744 205.139 330.742 208.743 333.49 210.781C335.964 212.616 339.679 212.753 342.294 211.105C341.1 212.433 339.885 213.78 338.356 214.748C336.827 215.717 334.917 216.277 333.133 215.861C331.039 215.373 329.515 213.675 328.332 211.959C327.149 210.243 326.106 208.363 324.391 207.12C323.09 206.184 321.501 205.684 319.871 205.699C318.873 205.711 317.855 205.915 316.89 205.67C315.926 205.425 315.04 204.488 315.361 203.588L315.884 203.273Z" fill="#2F2E41"/>
<circle cx="263.5" cy="158.5" r="11.5" fill="#FEC424"/>
<path d="M263.471 151.07L263.371 151.409V161.235L263.471 161.334L268.032 158.638L263.471 151.07Z" fill="#343434"/>
<path d="M263.471 151.07L258.91 158.638L263.471 161.334V156.565V151.07Z" fill="#8C8C8C"/>
<path d="M263.471 162.198L263.415 162.267V165.767L263.471 165.931L268.035 159.503L263.471 162.198Z" fill="#3C3C3B"/>
<path d="M263.471 165.931V162.198L258.91 159.503L263.471 165.931Z" fill="#8C8C8C"/>
<path d="M263.471 161.334L268.032 158.638L263.471 156.565V161.334Z" fill="#141414"/>
<path d="M258.91 158.638L263.471 161.334V156.565L258.91 158.638Z" fill="#393939"/>
<circle cx="343.5" cy="183.5" r="6.5" fill="#FEC424"/>
<path d="M343.484 179.301L343.427 179.492V185.046L343.484 185.102L346.062 183.578L343.484 179.301Z" fill="#343434"/>
<path d="M343.484 179.301L340.906 183.578L343.484 185.102V182.406V179.301Z" fill="#8C8C8C"/>
<path d="M343.484 185.59L343.452 185.629V187.607L343.484 187.7L346.063 184.067L343.484 185.59Z" fill="#3C3C3B"/>
<path d="M343.484 187.7V185.59L340.906 184.067L343.484 187.7Z" fill="#8C8C8C"/>
<path d="M343.484 185.102L346.062 183.578L343.484 182.406V185.102Z" fill="#141414"/>
<path d="M340.906 183.578L343.484 185.102V182.406L340.906 183.578Z" fill="#393939"/>
<circle cx="223" cy="247" r="8" fill="#FEC424"/>
<path d="M222.98 241.831L222.91 242.067V248.903L222.98 248.972L226.153 247.096L222.98 241.831Z" fill="#343434"/>
<path d="M222.98 241.831L219.807 247.096L222.98 248.972V245.654V241.831Z" fill="#8C8C8C"/>
<path d="M222.98 249.573L222.941 249.62V252.055L222.98 252.169L226.155 247.698L222.98 249.573Z" fill="#3C3C3B"/>
<path d="M222.98 252.169V249.573L219.807 247.698L222.98 252.169Z" fill="#8C8C8C"/>
<path d="M222.98 248.972L226.153 247.096L222.98 245.654V248.972Z" fill="#141414"/>
<path d="M219.807 247.096L222.98 248.972V245.654L219.807 247.096Z" fill="#393939"/>
<rect x="78" y="85" width="237" height="34" rx="5" fill="#130F3E"/>
<path d="M109.033 98.2727V107H107.626L103.514 101.055H103.442V107H101.861V98.2727H103.276L107.384 104.222H107.46V98.2727H109.033ZM113.542 107.128C112.903 107.128 112.349 106.987 111.88 106.706C111.412 106.425 111.048 106.031 110.789 105.526C110.534 105.02 110.406 104.429 110.406 103.753C110.406 103.077 110.534 102.484 110.789 101.976C111.048 101.467 111.412 101.072 111.88 100.791C112.349 100.51 112.903 100.369 113.542 100.369C114.181 100.369 114.735 100.51 115.204 100.791C115.673 101.072 116.035 101.467 116.291 101.976C116.549 102.484 116.679 103.077 116.679 103.753C116.679 104.429 116.549 105.02 116.291 105.526C116.035 106.031 115.673 106.425 115.204 106.706C114.735 106.987 114.181 107.128 113.542 107.128ZM113.551 105.892C113.897 105.892 114.187 105.797 114.42 105.607C114.653 105.413 114.826 105.155 114.94 104.831C115.056 104.507 115.115 104.146 115.115 103.749C115.115 103.348 115.056 102.986 114.94 102.662C114.826 102.335 114.653 102.075 114.42 101.882C114.187 101.689 113.897 101.592 113.551 101.592C113.196 101.592 112.9 101.689 112.664 101.882C112.431 102.075 112.257 102.335 112.14 102.662C112.027 102.986 111.97 103.348 111.97 103.749C111.97 104.146 112.027 104.507 112.14 104.831C112.257 105.155 112.431 105.413 112.664 105.607C112.9 105.797 113.196 105.892 113.551 105.892ZM119.151 107L117.302 100.455H118.874L120.025 105.057H120.085L121.261 100.455H122.816L123.992 105.031H124.056L125.19 100.455H126.766L124.913 107H123.306L122.079 102.577H121.989L120.762 107H119.151ZM130.82 109.455V100.455H132.337V101.537H132.426C132.506 101.378 132.618 101.209 132.763 101.03C132.908 100.848 133.104 100.693 133.351 100.565C133.598 100.435 133.914 100.369 134.297 100.369C134.803 100.369 135.259 100.499 135.665 100.757C136.074 101.013 136.398 101.392 136.637 101.895C136.878 102.395 136.999 103.009 136.999 103.736C136.999 104.455 136.881 105.065 136.645 105.568C136.409 106.071 136.088 106.455 135.682 106.719C135.276 106.983 134.816 107.115 134.301 107.115C133.926 107.115 133.615 107.053 133.368 106.928C133.121 106.803 132.922 106.652 132.772 106.476C132.624 106.297 132.509 106.128 132.426 105.969H132.363V109.455H130.82ZM132.333 103.727C132.333 104.151 132.392 104.521 132.512 104.839C132.634 105.158 132.809 105.406 133.036 105.585C133.266 105.761 133.544 105.849 133.871 105.849C134.212 105.849 134.498 105.759 134.728 105.577C134.958 105.392 135.131 105.141 135.248 104.822C135.367 104.501 135.426 104.136 135.426 103.727C135.426 103.321 135.368 102.96 135.252 102.645C135.135 102.33 134.962 102.082 134.732 101.903C134.502 101.724 134.215 101.635 133.871 101.635C133.542 101.635 133.262 101.722 133.032 101.895C132.801 102.068 132.627 102.311 132.507 102.624C132.391 102.936 132.333 103.304 132.333 103.727ZM140.203 107.132C139.789 107.132 139.415 107.058 139.083 106.911C138.753 106.76 138.492 106.538 138.299 106.246C138.108 105.953 138.013 105.592 138.013 105.163C138.013 104.794 138.081 104.489 138.218 104.247C138.354 104.006 138.54 103.812 138.776 103.668C139.012 103.523 139.277 103.413 139.573 103.339C139.871 103.263 140.179 103.207 140.498 103.173C140.881 103.134 141.192 103.098 141.431 103.067C141.669 103.033 141.843 102.982 141.951 102.913C142.061 102.842 142.117 102.733 142.117 102.585V102.56C142.117 102.239 142.022 101.99 141.831 101.814C141.641 101.638 141.367 101.55 141.009 101.55C140.631 101.55 140.331 101.632 140.11 101.797C139.891 101.962 139.743 102.156 139.667 102.381L138.226 102.176C138.34 101.778 138.527 101.446 138.789 101.179C139.05 100.909 139.37 100.707 139.748 100.574C140.125 100.438 140.543 100.369 141 100.369C141.316 100.369 141.63 100.406 141.942 100.48C142.255 100.554 142.54 100.676 142.799 100.847C143.057 101.014 143.265 101.243 143.421 101.533C143.58 101.822 143.659 102.185 143.659 102.619V107H142.176V106.101H142.125C142.032 106.283 141.9 106.453 141.729 106.612C141.561 106.768 141.35 106.895 141.094 106.991C140.841 107.085 140.544 107.132 140.203 107.132ZM140.604 105.999C140.914 105.999 141.182 105.937 141.409 105.815C141.637 105.69 141.811 105.526 141.934 105.321C142.059 105.116 142.121 104.893 142.121 104.652V103.881C142.073 103.92 141.99 103.957 141.874 103.991C141.76 104.026 141.632 104.055 141.49 104.081C141.348 104.107 141.208 104.129 141.069 104.149C140.929 104.169 140.809 104.186 140.706 104.2C140.476 104.232 140.27 104.283 140.088 104.354C139.907 104.425 139.763 104.524 139.658 104.652C139.553 104.777 139.5 104.939 139.5 105.138C139.5 105.422 139.604 105.636 139.811 105.781C140.019 105.926 140.283 105.999 140.604 105.999ZM145.935 109.455C145.725 109.455 145.53 109.438 145.351 109.403C145.175 109.372 145.034 109.335 144.929 109.293L145.287 108.091C145.512 108.156 145.712 108.188 145.888 108.185C146.064 108.182 146.219 108.126 146.353 108.018C146.489 107.913 146.604 107.737 146.698 107.49L146.83 107.136L144.456 100.455H146.093L147.601 105.398H147.669L149.182 100.455H150.823L148.202 107.793C148.08 108.139 147.918 108.436 147.716 108.683C147.515 108.933 147.267 109.124 146.975 109.254C146.685 109.388 146.338 109.455 145.935 109.455ZM158.182 100.455V101.648H154.313V100.455H158.182ZM155.28 107V99.8366C155.28 99.3963 155.371 99.0298 155.553 98.7372C155.738 98.4446 155.985 98.2259 156.294 98.081C156.604 97.9361 156.948 97.8636 157.326 97.8636C157.593 97.8636 157.83 97.8849 158.037 97.9276C158.245 97.9702 158.398 98.0085 158.498 98.0426L158.191 99.2358C158.125 99.2159 158.043 99.196 157.944 99.1761C157.844 99.1534 157.733 99.142 157.611 99.142C157.324 99.142 157.121 99.2116 157.002 99.3509C156.885 99.4872 156.827 99.6832 156.827 99.9389V107H155.28ZM161.999 107.128C161.36 107.128 160.806 106.987 160.337 106.706C159.869 106.425 159.505 106.031 159.246 105.526C158.991 105.02 158.863 104.429 158.863 103.753C158.863 103.077 158.991 102.484 159.246 101.976C159.505 101.467 159.869 101.072 160.337 100.791C160.806 100.51 161.36 100.369 161.999 100.369C162.638 100.369 163.192 100.51 163.661 100.791C164.13 101.072 164.492 101.467 164.748 101.976C165.006 102.484 165.136 103.077 165.136 103.753C165.136 104.429 165.006 105.02 164.748 105.526C164.492 106.031 164.13 106.425 163.661 106.706C163.192 106.987 162.638 107.128 161.999 107.128ZM162.008 105.892C162.354 105.892 162.644 105.797 162.877 105.607C163.11 105.413 163.283 105.155 163.397 104.831C163.513 104.507 163.572 104.146 163.572 103.749C163.572 103.348 163.513 102.986 163.397 102.662C163.283 102.335 163.11 102.075 162.877 101.882C162.644 101.689 162.354 101.592 162.008 101.592C161.653 101.592 161.357 101.689 161.121 101.882C160.888 102.075 160.714 102.335 160.597 102.662C160.484 102.986 160.427 103.348 160.427 103.749C160.427 104.146 160.484 104.507 160.597 104.831C160.714 105.155 160.888 105.413 161.121 105.607C161.357 105.797 161.653 105.892 162.008 105.892ZM166.445 107V100.455H167.941V101.545H168.009C168.128 101.168 168.333 100.876 168.623 100.672C168.915 100.464 169.249 100.361 169.624 100.361C169.709 100.361 169.804 100.365 169.909 100.374C170.017 100.379 170.107 100.389 170.178 100.403V101.822C170.113 101.8 170.009 101.78 169.867 101.763C169.728 101.743 169.593 101.733 169.462 101.733C169.181 101.733 168.928 101.794 168.703 101.916C168.482 102.036 168.307 102.202 168.179 102.415C168.051 102.628 167.988 102.874 167.988 103.152V107H166.445ZM176.063 107.132C175.648 107.132 175.275 107.058 174.942 106.911C174.613 106.76 174.351 106.538 174.158 106.246C173.968 105.953 173.873 105.592 173.873 105.163C173.873 104.794 173.941 104.489 174.077 104.247C174.213 104.006 174.4 103.812 174.635 103.668C174.871 103.523 175.137 103.413 175.432 103.339C175.73 103.263 176.039 103.207 176.357 103.173C176.74 103.134 177.051 103.098 177.29 103.067C177.529 103.033 177.702 102.982 177.81 102.913C177.921 102.842 177.976 102.733 177.976 102.585V102.56C177.976 102.239 177.881 101.99 177.691 101.814C177.5 101.638 177.226 101.55 176.868 101.55C176.49 101.55 176.191 101.632 175.969 101.797C175.75 101.962 175.603 102.156 175.526 102.381L174.086 102.176C174.199 101.778 174.387 101.446 174.648 101.179C174.909 100.909 175.229 100.707 175.607 100.574C175.985 100.438 176.402 100.369 176.86 100.369C177.175 100.369 177.489 100.406 177.801 100.48C178.114 100.554 178.4 100.676 178.658 100.847C178.917 101.014 179.124 101.243 179.28 101.533C179.439 101.822 179.519 102.185 179.519 102.619V107H178.036V106.101H177.985C177.891 106.283 177.759 106.453 177.588 106.612C177.421 106.768 177.209 106.895 176.953 106.991C176.701 107.085 176.404 107.132 176.063 107.132ZM176.463 105.999C176.773 105.999 177.042 105.937 177.269 105.815C177.496 105.69 177.671 105.526 177.793 105.321C177.918 105.116 177.98 104.893 177.98 104.652V103.881C177.932 103.92 177.85 103.957 177.733 103.991C177.62 104.026 177.492 104.055 177.35 104.081C177.208 104.107 177.067 104.129 176.928 104.149C176.789 104.169 176.668 104.186 176.566 104.2C176.336 104.232 176.13 104.283 175.948 104.354C175.766 104.425 175.623 104.524 175.517 104.652C175.412 104.777 175.36 104.939 175.36 105.138C175.36 105.422 175.463 105.636 175.671 105.781C175.878 105.926 176.142 105.999 176.463 105.999ZM182.613 103.165V107H181.07V100.455H182.544V101.567H182.621C182.772 101.2 183.012 100.909 183.341 100.693C183.674 100.477 184.084 100.369 184.573 100.369C185.025 100.369 185.418 100.466 185.753 100.659C186.091 100.852 186.353 101.132 186.537 101.499C186.725 101.865 186.817 102.31 186.814 102.832V107H185.272V103.071C185.272 102.634 185.158 102.291 184.931 102.044C184.706 101.797 184.395 101.673 183.998 101.673C183.728 101.673 183.488 101.733 183.277 101.852C183.07 101.969 182.907 102.138 182.787 102.359C182.671 102.581 182.613 102.849 182.613 103.165ZM189.107 109.455C188.897 109.455 188.702 109.438 188.523 109.403C188.347 109.372 188.206 109.335 188.101 109.293L188.459 108.091C188.684 108.156 188.884 108.188 189.06 108.185C189.236 108.182 189.391 108.126 189.525 108.018C189.661 107.913 189.776 107.737 189.87 107.49L190.002 107.136L187.628 100.455H189.265L190.773 105.398H190.841L192.354 100.455H193.995L191.374 107.793C191.252 108.139 191.09 108.436 190.888 108.683C190.686 108.933 190.439 109.124 190.147 109.254C189.857 109.388 189.51 109.455 189.107 109.455ZM198.331 100.455V101.648H194.568V100.455H198.331ZM195.497 98.8864H197.039V105.031C197.039 105.239 197.071 105.398 197.133 105.509C197.199 105.616 197.284 105.69 197.389 105.73C197.494 105.77 197.61 105.79 197.738 105.79C197.835 105.79 197.923 105.783 198.002 105.768C198.085 105.754 198.147 105.741 198.19 105.73L198.45 106.936C198.368 106.964 198.25 106.996 198.096 107.03C197.946 107.064 197.761 107.084 197.542 107.089C197.156 107.101 196.808 107.043 196.498 106.915C196.189 106.784 195.943 106.582 195.761 106.31C195.582 106.037 195.494 105.696 195.497 105.287V98.8864ZM201.304 103.165V107H199.761V98.2727H201.27V101.567H201.347C201.5 101.197 201.737 100.906 202.058 100.693C202.382 100.477 202.794 100.369 203.294 100.369C203.749 100.369 204.145 100.464 204.483 100.655C204.821 100.845 205.082 101.124 205.267 101.49C205.455 101.857 205.548 102.304 205.548 102.832V107H204.006V103.071C204.006 102.631 203.892 102.288 203.665 102.044C203.44 101.797 203.125 101.673 202.719 101.673C202.446 101.673 202.202 101.733 201.986 101.852C201.773 101.969 201.605 102.138 201.483 102.359C201.364 102.581 201.304 102.849 201.304 103.165ZM207.121 107V100.455H208.663V107H207.121ZM207.896 99.5256C207.652 99.5256 207.442 99.4446 207.266 99.2827C207.089 99.1179 207.001 98.9205 207.001 98.6903C207.001 98.4574 207.089 98.2599 207.266 98.098C207.442 97.9332 207.652 97.8509 207.896 97.8509C208.143 97.8509 208.354 97.9332 208.527 98.098C208.703 98.2599 208.791 98.4574 208.791 98.6903C208.791 98.9205 208.703 99.1179 208.527 99.2827C208.354 99.4446 208.143 99.5256 207.896 99.5256ZM211.792 103.165V107H210.25V100.455H211.724V101.567H211.801C211.951 101.2 212.191 100.909 212.521 100.693C212.853 100.477 213.264 100.369 213.752 100.369C214.204 100.369 214.598 100.466 214.933 100.659C215.271 100.852 215.532 101.132 215.717 101.499C215.904 101.865 215.997 102.31 215.994 102.832V107H214.451V103.071C214.451 102.634 214.338 102.291 214.11 102.044C213.886 101.797 213.575 101.673 213.177 101.673C212.907 101.673 212.667 101.733 212.457 101.852C212.25 101.969 212.086 102.138 211.967 102.359C211.85 102.581 211.792 102.849 211.792 103.165ZM220.409 109.591C219.855 109.591 219.379 109.516 218.981 109.365C218.583 109.217 218.264 109.018 218.022 108.768C217.781 108.518 217.613 108.241 217.52 107.938L218.909 107.601C218.971 107.729 219.062 107.855 219.181 107.98C219.301 108.108 219.461 108.213 219.663 108.295C219.868 108.381 220.125 108.423 220.434 108.423C220.872 108.423 221.234 108.317 221.521 108.104C221.808 107.893 221.951 107.547 221.951 107.064V105.824H221.875C221.795 105.983 221.679 106.146 221.525 106.314C221.375 106.482 221.174 106.622 220.924 106.736C220.677 106.849 220.366 106.906 219.991 106.906C219.488 106.906 219.032 106.788 218.623 106.553C218.217 106.314 217.893 105.959 217.652 105.487C217.413 105.013 217.294 104.419 217.294 103.706C217.294 102.987 217.413 102.381 217.652 101.886C217.893 101.389 218.218 101.013 218.627 100.757C219.037 100.499 219.493 100.369 219.995 100.369C220.379 100.369 220.694 100.435 220.941 100.565C221.191 100.693 221.39 100.848 221.538 101.03C221.686 101.209 221.798 101.378 221.875 101.537H221.96V100.455H223.481V107.107C223.481 107.666 223.348 108.129 223.081 108.496C222.814 108.862 222.449 109.136 221.985 109.318C221.522 109.5 220.997 109.591 220.409 109.591ZM220.422 105.696C220.748 105.696 221.027 105.616 221.257 105.457C221.487 105.298 221.662 105.07 221.781 104.771C221.9 104.473 221.96 104.115 221.96 103.697C221.96 103.286 221.9 102.925 221.781 102.615C221.664 102.305 221.491 102.065 221.261 101.895C221.034 101.722 220.754 101.635 220.422 101.635C220.078 101.635 219.791 101.724 219.561 101.903C219.331 102.082 219.157 102.328 219.041 102.641C218.924 102.95 218.866 103.303 218.866 103.697C218.866 104.098 218.924 104.449 219.041 104.75C219.16 105.048 219.335 105.281 219.565 105.449C219.798 105.614 220.083 105.696 220.422 105.696ZM229.39 107L227.54 100.455H229.113L230.263 105.057H230.323L231.499 100.455H233.054L234.23 105.031H234.294L235.428 100.455H237.005L235.151 107H233.544L232.317 102.577H232.228L231 107H229.39ZM238.082 107V100.455H239.624V107H238.082ZM238.857 99.5256C238.613 99.5256 238.403 99.4446 238.227 99.2827C238.05 99.1179 237.962 98.9205 237.962 98.6903C237.962 98.4574 238.05 98.2599 238.227 98.098C238.403 97.9332 238.613 97.8509 238.857 97.8509C239.104 97.8509 239.315 97.9332 239.488 98.098C239.664 98.2599 239.752 98.4574 239.752 98.6903C239.752 98.9205 239.664 99.1179 239.488 99.2827C239.315 99.4446 239.104 99.5256 238.857 99.5256ZM244.479 100.455V101.648H240.716V100.455H244.479ZM241.645 98.8864H243.188V105.031C243.188 105.239 243.219 105.398 243.282 105.509C243.347 105.616 243.432 105.69 243.537 105.73C243.642 105.77 243.759 105.79 243.887 105.79C243.983 105.79 244.071 105.783 244.151 105.768C244.233 105.754 244.296 105.741 244.338 105.73L244.598 106.936C244.516 106.964 244.398 106.996 244.245 107.03C244.094 107.064 243.909 107.084 243.691 107.089C243.304 107.101 242.956 107.043 242.647 106.915C242.337 106.784 242.091 106.582 241.909 106.31C241.73 106.037 241.642 105.696 241.645 105.287V98.8864ZM247.452 103.165V107H245.91V98.2727H247.418V101.567H247.495C247.648 101.197 247.886 100.906 248.207 100.693C248.531 100.477 248.942 100.369 249.442 100.369C249.897 100.369 250.293 100.464 250.631 100.655C250.969 100.845 251.231 101.124 251.415 101.49C251.603 101.857 251.697 102.304 251.697 102.832V107H250.154V103.071C250.154 102.631 250.04 102.288 249.813 102.044C249.589 101.797 249.273 101.673 248.867 101.673C248.594 101.673 248.35 101.733 248.134 101.852C247.921 101.969 247.754 102.138 247.631 102.359C247.512 102.581 247.452 102.849 247.452 103.165ZM259.101 107.128C258.447 107.128 257.886 106.984 257.418 106.697C256.952 106.411 256.592 106.014 256.339 105.509C256.089 105 255.964 104.415 255.964 103.753C255.964 103.088 256.092 102.501 256.348 101.993C256.604 101.482 256.964 101.084 257.43 100.8C257.899 100.513 258.453 100.369 259.092 100.369C259.624 100.369 260.094 100.467 260.503 100.663C260.915 100.857 261.243 101.131 261.487 101.486C261.732 101.838 261.871 102.25 261.905 102.722H260.43C260.371 102.406 260.229 102.143 260.004 101.933C259.783 101.72 259.486 101.614 259.114 101.614C258.798 101.614 258.521 101.699 258.283 101.869C258.044 102.037 257.858 102.278 257.724 102.594C257.594 102.909 257.528 103.287 257.528 103.727C257.528 104.173 257.594 104.557 257.724 104.878C257.855 105.196 258.038 105.442 258.274 105.615C258.513 105.786 258.793 105.871 259.114 105.871C259.341 105.871 259.544 105.828 259.723 105.743C259.905 105.655 260.057 105.528 260.179 105.364C260.301 105.199 260.385 104.999 260.43 104.763H261.905C261.868 105.226 261.732 105.636 261.496 105.994C261.26 106.349 260.939 106.628 260.533 106.83C260.126 107.028 259.649 107.128 259.101 107.128ZM263.172 107V100.455H264.667V101.545H264.735C264.855 101.168 265.059 100.876 265.349 100.672C265.642 100.464 265.975 100.361 266.35 100.361C266.436 100.361 266.531 100.365 266.636 100.374C266.744 100.379 266.833 100.389 266.904 100.403V101.822C266.839 101.8 266.735 101.78 266.593 101.763C266.454 101.743 266.319 101.733 266.189 101.733C265.907 101.733 265.654 101.794 265.43 101.916C265.208 102.036 265.034 102.202 264.906 102.415C264.778 102.628 264.714 102.874 264.714 103.152V107H263.172ZM269.087 109.455C268.877 109.455 268.683 109.438 268.504 109.403C268.327 109.372 268.187 109.335 268.082 109.293L268.44 108.091C268.664 108.156 268.864 108.188 269.04 108.185C269.217 108.182 269.371 108.126 269.505 108.018C269.641 107.913 269.756 107.737 269.85 107.49L269.982 107.136L267.609 100.455H269.245L270.754 105.398H270.822L272.335 100.455H273.975L271.354 107.793C271.232 108.139 271.07 108.436 270.869 108.683C270.667 108.933 270.42 109.124 270.127 109.254C269.837 109.388 269.491 109.455 269.087 109.455ZM275.043 109.455V100.455H276.56V101.537H276.649C276.729 101.378 276.841 101.209 276.986 101.03C277.131 100.848 277.327 100.693 277.574 100.565C277.821 100.435 278.136 100.369 278.52 100.369C279.026 100.369 279.482 100.499 279.888 100.757C280.297 101.013 280.621 101.392 280.859 101.895C281.101 102.395 281.222 103.009 281.222 103.736C281.222 104.455 281.104 105.065 280.868 105.568C280.632 106.071 280.311 106.455 279.905 106.719C279.499 106.983 279.038 107.115 278.524 107.115C278.149 107.115 277.838 107.053 277.591 106.928C277.344 106.803 277.145 106.652 276.994 106.476C276.847 106.297 276.732 106.128 276.649 105.969H276.585V109.455H275.043ZM276.555 103.727C276.555 104.151 276.615 104.521 276.734 104.839C276.857 105.158 277.031 105.406 277.259 105.585C277.489 105.761 277.767 105.849 278.094 105.849C278.435 105.849 278.72 105.759 278.95 105.577C279.18 105.392 279.354 105.141 279.47 104.822C279.589 104.501 279.649 104.136 279.649 103.727C279.649 103.321 279.591 102.96 279.474 102.645C279.358 102.33 279.185 102.082 278.955 101.903C278.724 101.724 278.438 101.635 278.094 101.635C277.764 101.635 277.484 101.722 277.254 101.895C277.024 102.068 276.849 102.311 276.73 102.624C276.614 102.936 276.555 103.304 276.555 103.727ZM285.811 100.455V101.648H282.048V100.455H285.811ZM282.977 98.8864H284.52V105.031C284.52 105.239 284.551 105.398 284.614 105.509C284.679 105.616 284.764 105.69 284.869 105.73C284.974 105.77 285.091 105.79 285.219 105.79C285.315 105.79 285.403 105.783 285.483 105.768C285.565 105.754 285.628 105.741 285.67 105.73L285.93 106.936C285.848 106.964 285.73 106.996 285.577 107.03C285.426 107.064 285.241 107.084 285.023 107.089C284.636 107.101 284.288 107.043 283.979 106.915C283.669 106.784 283.423 106.582 283.241 106.31C283.063 106.037 282.974 105.696 282.977 105.287V98.8864ZM289.886 107.128C289.247 107.128 288.693 106.987 288.224 106.706C287.755 106.425 287.392 106.031 287.133 105.526C286.877 105.02 286.75 104.429 286.75 103.753C286.75 103.077 286.877 102.484 287.133 101.976C287.392 101.467 287.755 101.072 288.224 100.791C288.693 100.51 289.247 100.369 289.886 100.369C290.525 100.369 291.079 100.51 291.548 100.791C292.017 101.072 292.379 101.467 292.635 101.976C292.893 102.484 293.022 103.077 293.022 103.753C293.022 104.429 292.893 105.02 292.635 105.526C292.379 106.031 292.017 106.425 291.548 106.706C291.079 106.987 290.525 107.128 289.886 107.128ZM289.895 105.892C290.241 105.892 290.531 105.797 290.764 105.607C290.997 105.413 291.17 105.155 291.284 104.831C291.4 104.507 291.458 104.146 291.458 103.749C291.458 103.348 291.4 102.986 291.284 102.662C291.17 102.335 290.997 102.075 290.764 101.882C290.531 101.689 290.241 101.592 289.895 101.592C289.539 101.592 289.244 101.689 289.008 101.882C288.775 102.075 288.6 102.335 288.484 102.662C288.37 102.986 288.314 103.348 288.314 103.749C288.314 104.146 288.37 104.507 288.484 104.831C288.6 105.155 288.775 105.413 289.008 105.607C289.244 105.797 289.539 105.892 289.895 105.892Z" fill="white"/>
<defs>
<clipPath id="clip0_1_220">
<rect width="112" height="141" fill="white" transform="translate(3 129)"/>
</clipPath>
</defs>
</svg>
