<svg width="600" height="200" viewBox="0 0 600 200" fill="none" xmlns="http://www.w3.org/2000/svg">
<rect width="600" height="200" fill="#9DB8FD"/>
<path fill-rule="evenodd" clip-rule="evenodd" d="M0 13L25 40.8817C50 68.2828 100 124.046 150 124.046C200 124.046 268 100 318 100C368 100 400 124.046 450 151.447C500 179.329 550 179.329 575 179.329H600V200H575C550 200 500 200 450 200C400 200 350 200 300 200C250 200 200 200 150 200C100 200 50 200 25 200H0V13Z" fill="#CEDCFF"/>
<path d="M577.755 170.834C589.369 160.336 593.496 145.989 586.972 138.789C580.447 131.59 565.743 134.263 554.128 144.761C542.513 155.259 538.387 169.606 544.911 176.806C551.436 184.005 566.14 181.332 577.755 170.834Z" fill="#F2F2F2"/>
<path d="M544.447 199.574C542.91 196.358 542.365 192.734 542.633 189.186C542.923 185.661 543.951 182.238 545.647 179.145C547.293 176.16 549.382 173.448 551.84 171.103C554.423 168.599 557.335 166.473 560.399 164.614C563.635 162.652 567.035 160.984 570.474 159.424C570.903 159.23 571.332 159.037 571.762 158.845C572.044 158.72 571.8 158.301 571.52 158.426C568.013 159.989 564.536 161.636 561.211 163.569C558.034 165.416 554.995 167.528 552.28 170.024C549.721 172.34 547.517 175.027 545.739 177.999C543.919 181.057 542.739 184.461 542.272 188C541.824 191.563 542.17 195.269 543.505 198.613C543.668 199.021 543.844 199.423 544.033 199.819C544.167 200.1 544.582 199.854 544.447 199.574Z" fill="#E6E6E6"/>
<path d="M557.087 166.284C556.923 163.499 557.127 160.704 557.692 157.976C558.256 155.246 559.171 152.605 560.413 150.124C561.112 148.731 561.914 147.396 562.81 146.128C562.998 145.862 562.568 145.607 562.382 145.871C560.771 148.155 559.467 150.653 558.506 153.297C557.542 155.941 556.924 158.705 556.667 161.516C556.522 163.101 556.497 164.695 556.591 166.284C556.61 166.611 557.107 166.613 557.087 166.284Z" fill="#E6E6E6"/>
<path d="M505.126 161.699C520.244 148.035 525.615 129.361 517.122 119.99C508.63 110.619 489.491 114.099 474.373 127.763C459.255 141.427 453.884 160.101 462.376 169.472C470.869 178.843 490.008 175.363 505.126 161.699Z" fill="#F2F2F2"/>
<path d="M461.25 198.566C459.2 194.441 458.474 189.793 458.831 185.243C459.185 180.721 460.619 176.335 462.849 172.364C465.009 168.519 467.863 165.077 471.108 162.05C474.551 158.837 478.434 156.11 482.519 153.727C486.834 151.21 491.367 149.071 495.953 147.07C496.524 146.821 497.096 146.573 497.67 146.328C498.046 146.166 497.721 145.629 497.347 145.789C492.671 147.794 488.035 149.907 483.601 152.386C479.366 154.755 475.314 157.464 471.694 160.666C468.316 163.652 465.307 167.069 462.973 170.895C460.546 174.817 458.973 179.182 458.35 183.721C457.752 188.292 458.214 193.046 459.993 197.334C460.21 197.857 460.445 198.373 460.697 198.881C460.877 199.242 461.429 198.926 461.25 198.566Z" fill="#E6E6E6"/>
<path d="M478.679 155.384C478.468 151.872 478.73 148.348 479.457 144.908C480.182 141.465 481.358 138.136 482.955 135.008C483.854 133.252 484.884 131.567 486.037 129.97C486.279 129.634 485.726 129.312 485.486 129.645C483.415 132.525 481.739 135.674 480.503 139.008C479.264 142.341 478.469 145.827 478.139 149.372C477.953 151.37 477.92 153.38 478.041 155.384C478.066 155.795 478.704 155.798 478.679 155.384Z" fill="#E6E6E6"/>
<path d="M533.959 78.0305L527.638 89.9988L533.945 94.2856L533.959 78.0305Z" fill="#8C8C8C"/>
<path d="M527.638 90.2064L533.959 87.0611L533.951 94.2856L527.638 90.2064Z" fill="#383838"/>
<path d="M533.959 78.0305L542.087 89.9988L533.977 94.2856L533.959 78.0305Z" fill="#333333"/>
<path d="M542.087 90.2064L533.959 87.0611L533.969 94.2856L542.087 90.2064Z" fill="#141414"/>
<path d="M527.638 90.6734L533.959 100.607V94.8483L527.638 90.6734Z" fill="#8C8C8C"/>
<path d="M542.087 90.6734L533.959 100.607V94.8483L542.087 90.6734Z" fill="#333333"/>
<path d="M534.862 109.638C530.984 109.638 527.12 107.011 523.983 102.242C521.224 98.0492 519.51 92.8372 519.51 88.6404C519.51 86.6541 519.907 84.6873 520.679 82.8522C521.45 81.0172 522.581 79.3498 524.007 77.9453C525.432 76.5408 527.125 75.4267 528.987 74.6666C530.85 73.9065 532.846 73.5153 534.862 73.5153C536.878 73.5153 538.875 73.9065 540.737 74.6666C542.6 75.4267 544.292 76.5408 545.718 77.9453C547.143 79.3498 548.274 81.0172 549.046 82.8522C549.817 84.6873 550.214 86.6541 550.214 88.6404C550.214 92.8372 548.5 98.0492 545.742 102.242C542.604 107.011 538.74 109.638 534.862 109.638ZM534.862 73.8711C530.888 73.8756 527.077 75.433 524.267 78.2018C521.457 80.9706 519.876 84.7247 519.871 88.6404C519.871 96.7915 526.587 109.282 534.862 109.282C543.137 109.282 549.853 96.7915 549.853 88.6404C549.849 84.7247 548.268 80.9706 545.457 78.2018C542.647 75.433 538.837 73.8756 534.862 73.8711Z" fill="#3F3D56"/>
<path d="M535.801 113.25H533.02C532.89 113.25 532.762 113.219 532.645 113.161C532.528 113.102 532.425 113.017 532.344 112.912C532.262 112.806 532.205 112.683 532.176 112.551C532.146 112.42 532.145 112.283 532.174 112.151L532.71 109.638H536.111L536.648 112.151C536.676 112.283 536.675 112.42 536.646 112.551C536.616 112.683 536.559 112.806 536.477 112.912C536.396 113.017 536.293 113.102 536.176 113.161C536.059 113.219 535.931 113.25 535.801 113.25ZM532.988 109.999L532.512 112.229C532.495 112.308 532.496 112.391 532.513 112.47C532.531 112.549 532.566 112.622 532.614 112.686C532.663 112.749 532.725 112.8 532.795 112.835C532.865 112.87 532.942 112.889 533.02 112.889H535.801C535.879 112.889 535.956 112.87 536.026 112.835C536.096 112.8 536.158 112.749 536.207 112.686C536.256 112.622 536.29 112.549 536.308 112.47C536.325 112.391 536.326 112.308 536.309 112.229L535.833 109.999H532.988Z" fill="#3F3D56"/>
<path d="M532.327 110.24C535.537 110.077 539.189 109.99 541.691 112.336C542.734 113.315 543.393 114.626 543.353 116.067C543.31 117.636 542.505 119.105 541.507 120.284C539.359 122.82 536.209 124.407 533.189 125.685C529.978 127.044 526.634 128.105 523.549 129.744C520.841 131.184 518.316 133.127 516.68 135.745C515.875 137.014 515.341 138.432 515.112 139.914C514.901 141.398 514.976 142.909 515.335 144.366C516.056 147.352 517.83 149.991 520.193 151.951C522.586 153.936 525.483 155.257 528.486 156.046C532.05 156.983 535.763 157.196 539.435 157.217C543.228 157.239 547.024 157.055 550.814 157.265C551.736 157.317 552.656 157.392 553.573 157.498C553.912 157.536 553.909 157.01 553.573 156.971C549.787 156.536 545.971 156.636 542.168 156.679C538.439 156.72 534.679 156.708 530.997 156.055C527.822 155.493 524.709 154.439 522.016 152.651C519.437 150.939 517.335 148.538 516.271 145.625C515.232 142.779 515.243 139.629 516.634 136.901C518.027 134.17 520.457 132.103 523.098 130.595C526.145 128.855 529.501 127.766 532.738 126.439C535.795 125.186 538.923 123.691 541.272 121.322C542.359 120.225 543.291 118.889 543.69 117.387C543.884 116.684 543.931 115.949 543.828 115.228C543.724 114.506 543.472 113.814 543.087 113.193C542.317 112.025 541.218 111.107 539.926 110.552C538.367 109.856 536.637 109.656 534.942 109.639C534.07 109.63 533.198 109.669 532.327 109.713C531.987 109.731 531.984 110.257 532.327 110.24Z" fill="#3F3D56"/>
<path d="M515.898 196.791L513.886 197.234L511.383 188.858L514.353 188.204L515.898 196.791Z" fill="#FFB8B8"/>
<path d="M516.801 198.447L509.649 199.943L509.631 199.848C509.558 199.464 509.558 199.069 509.631 198.685C509.703 198.301 509.847 197.936 510.054 197.61C510.261 197.284 510.527 197.005 510.837 196.787C511.147 196.57 511.495 196.418 511.86 196.342L511.861 196.342L516.229 195.428L516.801 198.447Z" fill="#2F2E41"/>
<path d="M535.765 197.234L534.068 197.234L532.153 189.107L534.658 189.107L535.765 197.234Z" fill="#FFB8B8"/>
<path d="M536.668 199.943L530.347 199.943V199.858C530.347 199.513 530.411 199.172 530.534 198.854C530.658 198.535 530.839 198.246 531.068 198.003C531.296 197.759 531.567 197.566 531.866 197.434C532.164 197.302 532.484 197.234 532.807 197.234L536.668 197.234L536.668 199.943Z" fill="#2F2E41"/>
<path d="M530.839 173.913C531.011 173.691 531.133 173.433 531.198 173.157C531.262 172.882 531.267 172.595 531.212 172.317C531.157 172.039 531.043 171.776 530.879 171.549C530.715 171.321 530.504 171.132 530.262 170.997L525.961 153.887L522.219 155.619L527.624 171.893C527.43 172.327 527.398 172.819 527.534 173.276C527.669 173.733 527.963 174.123 528.359 174.372C528.755 174.621 529.227 174.711 529.684 174.627C530.141 174.542 530.552 174.288 530.839 173.913Z" fill="#FFB8B8"/>
<path d="M526.981 157.368L522.787 158.379C522.668 158.408 522.544 158.41 522.423 158.386C522.303 158.361 522.19 158.31 522.09 158.237C521.991 158.164 521.908 158.069 521.848 157.96C521.788 157.851 521.751 157.73 521.741 157.606L521.377 153.236C521.236 152.612 521.343 151.957 521.675 151.414C522.008 150.87 522.537 150.484 523.148 150.338C523.759 150.193 524.401 150.301 524.934 150.638C525.468 150.976 525.848 151.515 525.992 152.138L527.577 156.199C527.623 156.315 527.643 156.44 527.637 156.565C527.63 156.69 527.598 156.812 527.541 156.923C527.485 157.034 527.405 157.131 527.309 157.208C527.212 157.285 527.1 157.34 526.981 157.368Z" fill="#6C63FF"/>
<path d="M512.52 194.525C512.34 194.525 512.165 194.463 512.026 194.348C511.886 194.233 511.79 194.074 511.754 193.896L509.676 183.845C509.547 183.212 509.543 182.56 509.665 181.925C509.787 181.291 510.032 180.687 510.387 180.148L516.934 170.253V162.838L524.535 161.112L524.568 161.139C528.511 164.383 528.284 168.382 528.26 168.691L535.73 193.13C535.766 193.248 535.775 193.373 535.754 193.495C535.733 193.617 535.685 193.732 535.612 193.831C535.539 193.931 535.444 194.012 535.334 194.067C535.225 194.123 535.104 194.152 534.981 194.152H532.738C532.581 194.153 532.428 194.106 532.298 194.017C532.168 193.928 532.068 193.803 532.01 193.656L523.959 174.282L514.483 182.138C514.408 182.201 514.348 182.282 514.31 182.373C514.271 182.464 514.255 182.564 514.263 182.662L515.137 193.466C515.155 193.671 515.092 193.874 514.962 194.033C514.832 194.192 514.645 194.293 514.442 194.315L512.609 194.52C512.579 194.523 512.55 194.525 512.52 194.525Z" fill="#2F2E41"/>
<path d="M522.219 146.663C524.713 146.663 526.735 144.641 526.735 142.148C526.735 139.654 524.713 137.632 522.219 137.632C519.726 137.632 517.704 139.654 517.704 142.148C517.704 144.641 519.726 146.663 522.219 146.663Z" fill="#FFB8B8"/>
<path d="M517.783 163.821C517.63 163.821 517.48 163.773 517.353 163.684C517.225 163.594 517.126 163.467 517.068 163.318C515.659 159.682 515.683 155.089 516.3 152.36C516.563 151.205 517.204 150.183 518.11 149.474C519.016 148.764 520.13 148.411 521.258 148.477C521.929 148.514 522.585 148.699 523.185 149.019C523.785 149.338 524.314 149.786 524.74 150.333C525.165 150.88 525.478 151.515 525.657 152.196C525.836 152.878 525.878 153.591 525.78 154.29C525.451 156.636 525.317 159.941 525.275 161.253C525.269 161.428 525.209 161.597 525.104 161.733C524.999 161.869 524.855 161.966 524.694 162.009L517.971 163.796C517.909 163.813 517.846 163.821 517.783 163.821Z" fill="#6C63FF"/>
<path d="M517.51 137.67C517.423 137.708 517.333 137.739 517.241 137.762L514.293 146.17L515.599 147.851L513.465 150.275L510.88 147.536C510.671 147.315 510.535 147.028 510.493 146.718C510.451 146.408 510.505 146.092 510.647 145.817L515.266 136.865C515.085 136.531 515.004 136.146 515.034 135.762C515.064 135.377 515.204 135.012 515.435 134.714C515.665 134.416 515.976 134.199 516.325 134.093C516.675 133.987 517.046 133.997 517.391 134.12C517.735 134.244 518.035 134.475 518.253 134.785C518.47 135.094 518.593 135.466 518.606 135.851C518.619 136.236 518.521 136.617 518.325 136.942C518.13 137.267 517.845 137.521 517.51 137.67Z" fill="#FFB8B8"/>
<path d="M512.438 149.549L514.909 146.117C514.979 146.019 515.071 145.937 515.177 145.877C515.284 145.816 515.403 145.778 515.526 145.765C515.649 145.752 515.774 145.765 515.892 145.802C516.009 145.839 516.117 145.9 516.208 145.981L519.387 148.813C519.907 149.16 520.263 149.69 520.375 150.287C520.488 150.884 520.348 151.499 519.987 151.998C519.625 152.497 519.072 152.838 518.448 152.947C517.824 153.056 517.18 152.924 516.657 152.58L512.769 150.758C512.657 150.706 512.559 150.631 512.481 150.539C512.402 150.447 512.345 150.341 512.314 150.226C512.282 150.111 512.277 149.991 512.299 149.875C512.32 149.758 512.368 149.647 512.438 149.549Z" fill="#6C63FF"/>
<path d="M522.216 147.566C521.884 147.227 522.078 146.645 522.385 146.284C522.692 145.923 523.107 145.616 523.228 145.157C523.434 144.377 522.665 143.665 521.897 143.413C521.13 143.16 520.27 143.141 519.594 142.699C518.57 142.028 518.336 140.5 518.925 139.427C519.513 138.354 520.744 137.739 521.965 137.647C523.186 137.555 524.4 137.92 525.517 138.42C526.598 138.904 527.641 139.534 528.401 140.442C529.16 141.35 529.607 142.57 529.388 143.733C529.12 145.153 527.91 146.25 526.567 146.785C525.223 147.32 523.746 147.391 522.301 147.455L522.216 147.566Z" fill="#2F2E41"/>
<path d="M527.267 139.685C528.607 138.422 530.399 137.69 532.284 137.636C534.168 137.582 536.003 138.21 537.42 139.394C539.784 141.37 540.685 144.624 543.167 146.465C545.401 148.122 548.755 148.246 551.117 146.758C550.039 147.957 548.942 149.173 547.561 150.048C546.18 150.923 544.455 151.428 542.844 151.053C540.953 150.612 539.577 149.079 538.509 147.529C537.44 145.98 536.499 144.282 534.949 143.159C533.775 142.314 532.34 141.863 530.868 141.876C529.967 141.886 529.047 142.071 528.176 141.849C527.305 141.628 526.505 140.782 526.795 139.969L527.267 139.685Z" fill="#2F2E41"/>
<circle cx="478.5" cy="98.5" r="11.5" fill="#FEC424"/>
<path d="M478.471 91.0701L478.371 91.4088V101.235L478.471 101.334L483.032 98.6384L478.471 91.0701Z" fill="#343434"/>
<path d="M478.471 91.0701L473.91 98.6384L478.471 101.334V96.5651V91.0701Z" fill="#8C8C8C"/>
<path d="M478.471 102.198L478.415 102.267V105.767L478.471 105.931L483.035 99.5033L478.471 102.198Z" fill="#3C3C3B"/>
<path d="M478.471 105.931V102.198L473.91 99.5033L478.471 105.931Z" fill="#8C8C8C"/>
<path d="M478.471 101.334L483.032 98.6384L478.471 96.5651V101.334Z" fill="#141414"/>
<path d="M473.91 98.6384L478.471 101.334V96.5651L473.91 98.6384Z" fill="#393939"/>
<circle cx="559.5" cy="123.5" r="6.5" fill="#FEC424"/>
<path d="M559.484 119.301L559.427 119.492V125.046L559.484 125.102L562.062 123.578L559.484 119.301Z" fill="#343434"/>
<path d="M559.484 119.301L556.906 123.578L559.484 125.102V122.406V119.301Z" fill="#8C8C8C"/>
<path d="M559.484 125.59L559.452 125.629V127.607L559.484 127.7L562.063 124.067L559.484 125.59Z" fill="#3C3C3B"/>
<path d="M559.484 127.7V125.59L556.906 124.067L559.484 127.7Z" fill="#8C8C8C"/>
<path d="M559.484 125.102L562.062 123.578L559.484 122.406V125.102Z" fill="#141414"/>
<path d="M556.906 123.578L559.484 125.102V122.406L556.906 123.578Z" fill="#393939"/>
<circle cx="434" cy="180" r="8" fill="#FEC424"/>
<path d="M433.98 174.831L433.91 175.067V181.903L433.98 181.972L437.153 180.096L433.98 174.831Z" fill="#343434"/>
<path d="M433.98 174.831L430.807 180.096L433.98 181.972V178.654V174.831Z" fill="#8C8C8C"/>
<path d="M433.98 182.573L433.941 182.62V185.055L433.98 185.169L437.155 180.698L433.98 182.573Z" fill="#3C3C3B"/>
<path d="M433.98 185.169V182.573L430.807 180.698L433.98 185.169Z" fill="#8C8C8C"/>
<path d="M433.98 181.972L437.153 180.096L433.98 178.654V181.972Z" fill="#141414"/>
<path d="M430.807 180.096L433.98 181.972V178.654L430.807 180.096Z" fill="#393939"/>
<g clip-path="url(#clip0_7_150)">
<path d="M27.9353 194.033C27.7816 194.04 27.6295 193.999 27.4996 193.917C27.3696 193.834 27.2681 193.713 27.2088 193.571C27.1494 193.429 27.1352 193.271 27.1679 193.121C27.2006 192.97 27.2787 192.833 27.3916 192.728C27.4105 192.652 27.4241 192.598 27.443 192.523C27.4363 192.506 27.4295 192.49 27.4226 192.474C27.2678 192.107 27.0084 191.794 26.6771 191.575C26.3457 191.355 25.9571 191.239 25.5601 191.24C25.1631 191.242 24.7753 191.361 24.4456 191.583C24.1158 191.805 23.8588 192.119 23.7067 192.487C23.099 193.956 22.3252 195.428 22.1347 196.981C22.0508 197.667 22.0862 198.363 22.2393 199.037C20.8119 195.913 20.0707 192.517 20.0659 189.079C20.0656 188.217 20.1133 187.355 20.2089 186.498C20.2879 185.795 20.3975 185.097 20.5377 184.405C21.3028 180.646 22.9454 177.123 25.3308 174.125C26.4853 173.493 27.4189 172.521 28.0059 171.34C28.2186 170.916 28.3689 170.462 28.4521 169.995C28.3219 170.012 28.1895 170.022 28.0593 170.031C28.0187 170.033 27.976 170.035 27.9355 170.037L27.9202 170.038C27.777 170.045 27.6351 170.009 27.5114 169.937C27.3878 169.864 27.2877 169.757 27.2232 169.629C27.1587 169.5 27.1326 169.356 27.1479 169.213C27.1633 169.07 27.2195 168.935 27.3098 168.823C27.366 168.754 27.4223 168.684 27.4786 168.615C27.564 168.508 27.6515 168.403 27.7369 168.296C27.7468 168.285 27.756 168.275 27.7647 168.263C27.8629 168.141 27.9611 168.021 28.0593 167.899C27.88 167.62 27.6389 167.386 27.3547 167.216C26.3705 166.637 25.0127 167.038 24.3017 167.931C23.5886 168.825 23.4541 170.078 23.7018 171.194C23.9453 172.144 24.3482 173.045 24.8931 173.86C24.8397 173.928 24.7842 173.995 24.7308 174.063C23.7551 175.322 22.9047 176.674 22.1918 178.099C22.3652 176.503 22.1583 174.887 21.5881 173.386C21.0103 171.987 19.9271 170.809 18.9733 169.6C17.8276 168.147 15.4783 168.781 15.2764 170.622C15.2745 170.64 15.2725 170.658 15.2707 170.676C15.4124 170.756 15.551 170.841 15.6867 170.931C15.8572 171.046 15.9893 171.209 16.0657 171.4C16.1421 171.591 16.1592 171.8 16.1149 172.001C16.0705 172.202 15.9668 172.385 15.8172 172.525C15.6676 172.666 15.4791 172.758 15.2765 172.789L15.2558 172.793C15.3062 173.305 15.3954 173.813 15.5226 174.312C15.8912 175.704 16.5424 177.005 17.4355 178.133C18.3286 179.262 19.4444 180.192 20.7128 180.867C20.796 180.91 20.8772 180.953 20.9604 180.994C20.2442 183.031 19.7949 185.152 19.6239 187.305C19.5271 188.576 19.5328 189.852 19.641 191.121L19.6346 191.076C19.3613 189.665 18.611 188.391 17.5103 187.47C15.8755 186.123 13.5659 185.627 11.8022 184.543C11.6148 184.423 11.3969 184.358 11.1741 184.358C10.9514 184.357 10.7331 184.42 10.5451 184.54C10.3571 184.66 10.2071 184.831 10.113 185.034C10.0188 185.237 9.98428 185.462 10.0135 185.683C10.0159 185.699 10.0183 185.715 10.0208 185.731C10.2837 185.838 10.5396 185.962 10.7872 186.101C10.9289 186.182 11.0676 186.267 11.2033 186.357C11.3737 186.471 11.5058 186.634 11.5822 186.825C11.6586 187.016 11.6757 187.226 11.6314 187.427C11.5871 187.628 11.4833 187.81 11.3337 187.951C11.1841 188.092 10.9956 188.184 10.793 188.215L10.7723 188.218C10.7573 188.22 10.7445 188.222 10.7296 188.225C11.1788 189.301 11.8093 190.292 12.5934 191.153C13.5621 192.196 14.7329 193.03 16.034 193.603C17.335 194.176 18.739 194.476 20.1598 194.485H20.162C20.5477 196.167 21.1065 197.804 21.8294 199.37H27.786C27.8074 199.303 27.8266 199.235 27.8458 199.168C27.2944 199.203 26.7409 199.17 26.1976 199.07C26.6395 198.525 27.0815 197.977 27.5234 197.433C27.5333 197.423 27.5425 197.412 27.5512 197.401C27.7753 197.122 28.0017 196.846 28.2258 196.567L28.2259 196.567C28.2379 195.713 28.1403 194.861 27.9355 194.033L27.9353 194.033Z" fill="#F2F2F2"/>
<path d="M80.0647 194.033C80.2183 194.04 80.3704 193.999 80.5004 193.917C80.6303 193.834 80.7319 193.713 80.7912 193.571C80.8505 193.429 80.8648 193.271 80.8321 193.121C80.7994 192.97 80.7213 192.833 80.6083 192.728C80.5894 192.652 80.5759 192.598 80.5569 192.523C80.5637 192.506 80.5705 192.49 80.5774 192.474C80.7322 192.107 80.9915 191.794 81.3229 191.575C81.6543 191.355 82.0429 191.239 82.4399 191.24C82.8369 191.242 83.2246 191.361 83.5544 191.583C83.8841 191.805 84.1412 192.119 84.2932 192.487C84.901 193.956 85.6748 195.428 85.8653 196.981C85.9492 197.667 85.9138 198.363 85.7607 199.037C87.1881 195.913 87.9293 192.517 87.9341 189.079C87.9344 188.217 87.8866 187.355 87.791 186.498C87.712 185.795 87.6025 185.097 87.4623 184.405C86.6972 180.646 85.0545 177.123 82.6692 174.125C81.5147 173.493 80.5811 172.521 79.9941 171.34C79.7814 170.916 79.6311 170.462 79.5479 169.995C79.6781 170.012 79.8104 170.022 79.9407 170.031C79.9812 170.033 80.0239 170.035 80.0645 170.037L80.0798 170.038C80.223 170.045 80.3649 170.009 80.4885 169.937C80.6122 169.864 80.7123 169.757 80.7768 169.629C80.8413 169.5 80.8674 169.356 80.8521 169.213C80.8367 169.07 80.7805 168.935 80.6902 168.823C80.634 168.754 80.5777 168.684 80.5214 168.615C80.436 168.508 80.3485 168.403 80.2631 168.296C80.2532 168.285 80.244 168.275 80.2353 168.263C80.1371 168.141 80.0389 168.021 79.9407 167.899C80.12 167.62 80.3611 167.386 80.6452 167.216C81.6295 166.637 82.9873 167.038 83.6983 167.931C84.4114 168.825 84.5459 170.078 84.2982 171.194C84.0547 172.144 83.6518 173.045 83.1069 173.86C83.1603 173.928 83.2158 173.995 83.2692 174.063C84.2449 175.322 85.0953 176.674 85.8081 178.099C85.6348 176.503 85.8417 174.887 86.4119 173.386C86.9897 171.987 88.0729 170.809 89.0267 169.6C90.1724 168.147 92.5217 168.781 92.7236 170.622C92.7255 170.64 92.7274 170.658 92.7293 170.676C92.5876 170.756 92.4489 170.841 92.3133 170.931C92.1428 171.046 92.0107 171.209 91.9343 171.4C91.8579 171.591 91.8408 171.8 91.8851 172.001C91.9294 172.202 92.0332 172.385 92.1828 172.525C92.3324 172.666 92.5209 172.758 92.7235 172.789L92.7442 172.793C92.6938 173.305 92.6045 173.813 92.4774 174.312C92.1088 175.704 91.4576 177.005 90.5645 178.133C89.6713 179.262 88.5556 180.192 87.2872 180.867C87.2039 180.91 87.1228 180.953 87.0395 180.994C87.7558 183.031 88.2051 185.152 88.376 187.305C88.4729 188.576 88.4671 189.852 88.359 191.121L88.3654 191.076C88.6387 189.665 89.389 188.391 90.4897 187.47C92.1245 186.123 94.4341 185.627 96.1978 184.543C96.3852 184.423 96.6031 184.358 96.8259 184.358C97.0486 184.357 97.2669 184.42 97.4549 184.54C97.6429 184.66 97.7928 184.831 97.887 185.034C97.9812 185.237 98.0157 185.462 97.9864 185.683C97.9841 185.699 97.9817 185.715 97.9792 185.731C97.7163 185.838 97.4604 185.962 97.2128 186.101C97.0711 186.182 96.9324 186.267 96.7967 186.357C96.6263 186.471 96.4942 186.634 96.4178 186.825C96.3414 187.016 96.3242 187.226 96.3686 187.427C96.4129 187.628 96.5167 187.81 96.6663 187.951C96.8159 188.092 97.0044 188.184 97.207 188.215L97.2277 188.218C97.2427 188.22 97.2555 188.222 97.2704 188.225C96.8212 189.301 96.1907 190.292 95.4066 191.153C94.4379 192.196 93.2671 193.03 91.966 193.603C90.6649 194.176 89.2609 194.476 87.8401 194.485H87.838C87.4523 196.167 86.8935 197.804 86.1706 199.37H80.214C80.1926 199.303 80.1734 199.235 80.1542 199.168C80.7055 199.203 81.259 199.17 81.8024 199.07C81.3604 198.525 80.9185 197.977 80.4766 197.433C80.4667 197.423 80.4574 197.412 80.4488 197.401C80.2246 197.122 79.9983 196.846 79.7741 196.567L79.774 196.567C79.7621 195.713 79.8599 194.861 80.0647 194.033Z" fill="#F2F2F2"/>
<path d="M29.8318 196.191L31.5732 196.936L35.2643 190.55L32.6941 189.451L29.8318 196.191Z" fill="#A0616A"/>
<path d="M44.2219 197.845L46.1146 197.845L47.0152 190.518L44.2214 190.518L44.2219 197.845Z" fill="#A0616A"/>
<path d="M44.1551 199.826L49.9759 199.826V199.752C49.9758 199.149 49.7371 198.571 49.3123 198.145C48.8874 197.718 48.3111 197.479 47.7103 197.479L46.6469 196.669L44.6631 197.479L44.155 197.479L44.1551 199.826Z" fill="#2F2E41"/>
<path d="M28.7729 197.46L34.1278 199.75L34.1566 199.682C34.3922 199.127 34.3985 198.501 34.1742 197.942C33.9499 197.382 33.5134 196.935 32.9607 196.699L32.2987 195.536L30.1575 195.5L29.69 195.3L28.7729 197.46Z" fill="#2F2E41"/>
<path d="M46.0785 154.484L48.9553 172.062L48.1724 174.681L49.1997 176.536L47.6911 192.829L48.3035 194.182L46.5924 195.24H43.1107L42.926 180.491L42.0659 178.325V177.132L40.3151 168.138L40.1284 179.307L39.5694 180.389L34.5621 193.543H30.658L30.9599 191.209C30.2604 190.853 32.0101 189.815 32.1782 189.046L31.6034 187.748L32.1782 185.296L33.5024 178.478L32.1495 170.393L32.634 165.19L32.3817 163.41L32.4008 162.834C32.4008 162.834 33.0682 162.576 32.4309 161.931C31.5486 156.912 32.634 155.822 32.634 155.822L36.9781 153.271L46.0785 154.484Z" fill="#2F2E41"/>
<path d="M39.0728 131.335C41.2518 131.335 43.0182 129.562 43.0182 127.376C43.0182 125.189 41.2518 123.416 39.0728 123.416C36.8939 123.416 35.1274 125.189 35.1274 127.376C35.1274 129.562 36.8939 131.335 39.0728 131.335Z" fill="#A0616A"/>
<path d="M34.1265 119.781C34.1451 120.008 34.1139 120.236 34.035 120.45C33.9562 120.663 33.8316 120.857 33.6701 121.017C33.5086 121.177 33.3141 121.3 33.1003 121.376C32.8865 121.453 32.6586 121.481 32.4326 121.46L30.1402 126.496L28.6189 124.057L31.0291 119.648C31.0902 119.27 31.2876 118.927 31.5838 118.685C31.8801 118.443 32.2546 118.318 32.6364 118.334C33.0181 118.35 33.3807 118.507 33.6554 118.773C33.93 119.04 34.0976 119.398 34.1265 119.781Z" fill="#A0616A"/>
<path d="M46.3372 154.862C46.3454 154.922 46.3391 154.982 46.319 155.039C46.2989 155.095 46.2656 155.146 46.2217 155.186C46.1779 155.227 46.1249 155.257 46.0673 155.272C46.0097 155.288 45.9491 155.29 45.8908 155.277C43.8251 154.829 35.3007 155.904 32.4773 158.791C32.4239 158.847 32.3548 158.884 32.2794 158.898C32.2041 158.913 32.1261 158.904 32.0562 158.872C31.9863 158.84 31.9278 158.788 31.8888 158.722C31.8497 158.655 31.8319 158.579 31.8378 158.502C31.8877 157.881 32.7866 155.073 32.7866 155.073L33.0606 153.323C33.0669 153.282 33.0669 153.241 33.0606 153.2L32.8094 151.752C32.7958 151.676 32.7596 151.606 32.7056 151.552L32.6205 151.466C32.5507 151.396 32.5115 151.301 32.5115 151.202C32.5115 151.103 32.5507 151.008 32.6205 150.937L32.9506 150.608C32.9906 150.567 33.0209 150.517 33.0392 150.463C33.0576 150.409 33.0635 150.351 33.0565 150.294L32.6184 147.044C32.6164 147.037 32.6164 147.029 32.6143 147.023L30.6794 136.769C30.6644 136.688 30.6764 136.604 30.7135 136.531C30.7507 136.457 30.8109 136.398 30.8849 136.362L34.1734 134.785C34.2076 134.769 34.2391 134.748 34.2668 134.723L36.563 132.585C36.6314 132.523 36.7198 132.488 36.8121 132.485L40.9394 132.454C40.9967 132.454 41.0532 132.467 41.1046 132.493C41.1561 132.518 41.2011 132.555 41.2362 132.6L42.4923 134.24C42.5369 134.297 42.5976 134.341 42.6666 134.365L43.5178 134.654L45.9759 135.492L46.0901 135.531C46.1607 135.556 46.2223 135.601 46.2667 135.661C46.3112 135.721 46.3365 135.794 46.3392 135.869C46.341 135.88 46.3417 135.891 46.3413 135.902L45.7268 148.664C45.725 148.721 45.7348 148.777 45.7559 148.829L46.0507 149.519C46.08 149.589 46.0876 149.666 46.0724 149.74C46.0573 149.815 46.02 149.883 45.9655 149.935C45.8783 150.019 45.7787 150.114 45.7164 150.185C45.5898 150.325 45.8597 151.431 45.9012 151.591C45.9049 151.605 45.9077 151.619 45.9095 151.633L46.061 152.777C46.0698 152.844 46.0602 152.912 46.0331 152.974C46.006 153.036 45.9626 153.09 45.9074 153.129C45.8655 153.159 45.8302 153.197 45.8039 153.242C45.7775 153.286 45.7607 153.336 45.7544 153.387C45.7482 153.439 45.7527 153.491 45.7676 153.54C45.7825 153.59 45.8075 153.636 45.841 153.675L46.1731 154.069C46.2185 154.124 46.2479 154.191 46.2583 154.262L46.3372 154.862Z" fill="#6C63FF"/>
<path d="M38.0636 131.141C38.0467 131.104 38.0299 131.066 38.0132 131.029C38.0196 131.029 38.026 131.03 38.0325 131.03L38.0636 131.141Z" fill="#2F2E41"/>
<path d="M52.1114 153.56C52.1306 153.333 52.0999 153.105 52.0216 152.891C51.9433 152.677 51.8193 152.483 51.6582 152.323C51.4971 152.162 51.3029 152.039 51.0893 151.962C50.8757 151.885 50.6479 151.856 50.4218 151.877L48.1423 146.835L46.6147 149.27L49.0136 153.684C49.0738 154.063 49.2703 154.406 49.5659 154.649C49.8615 154.892 50.2357 155.018 50.6175 155.003C50.9994 154.987 51.3624 154.832 51.6377 154.566C51.913 154.3 52.0816 153.942 52.1114 153.56Z" fill="#A0616A"/>
<path d="M49.0215 148.267L48.8949 148.504L47.56 151.008L47.3731 151.358L46.0693 149.556L41.7905 143.644L42.3988 139.935L43.5178 135.29L45.1766 135.194L46.3392 135.671C46.8344 135.89 47.2406 136.272 47.4911 136.754C47.7416 137.235 47.8215 137.788 47.7177 138.321L46.688 143.612L49.0215 148.267Z" fill="#6C63FF"/>
<path d="M42.5079 123.813C42.4489 123.484 42.3169 123.173 42.1217 122.902C42.0234 122.785 41.9015 122.69 41.764 122.623C41.6265 122.556 41.4766 122.519 41.3239 122.515C41.1713 122.51 41.0193 122.538 40.8781 122.596C40.7368 122.654 40.6094 122.742 40.5042 122.853C40.5658 122.673 40.5838 122.481 40.5565 122.292C40.2684 122.431 39.9601 122.523 39.6433 122.565L40.3434 121.831L36.8583 122.153C36.4986 122.186 36.1097 122.233 35.8456 122.507C35.5814 122.781 35.5668 123.366 35.9006 123.519C35.2428 123.271 34.4874 123.632 34.0534 124.236C33.6194 124.841 33.4596 125.638 33.4303 126.412C33.3922 127.415 33.5786 128.483 34.1887 129.222C34.5878 129.704 35.1318 130.006 35.5734 130.44L35.5867 130.453C36.0703 130.951 36.6766 131.312 37.344 131.498C38.0113 131.685 38.716 131.691 39.3865 131.515C39.4618 131.495 39.5365 131.472 39.6117 131.45C39.9872 131.621 40.455 131.388 40.692 131.009C40.9448 130.604 40.9948 130.087 41.0055 129.595C41.0195 128.951 40.9799 128.306 40.8872 127.669C40.7827 126.951 40.6885 126.031 41.2552 125.671C41.6963 125.39 42.2445 125.667 42.6886 125.942C42.7313 125.227 42.6704 124.51 42.5079 123.813Z" fill="#2F2E41"/>
<path d="M34.0949 142.141L31.466 141.951L26.9034 136.345L23.5166 131.474L24.2966 129.494L27.9835 124.193L27.9453 123.735L28.3533 123.662L28.3605 123.11L28.6991 123.164L29.6062 121.86L31.6822 123.527L30.5081 126.988L30.4366 127.694L30.0304 128.396L30.229 129.36L29.4526 130.1L29.0788 131.202C30.6915 132.266 32.2209 133.858 33.712 135.851L34.0949 142.141Z" fill="#6C63FF"/>
<path d="M69.923 148.238L69.6379 150.89L69.8057 154.368L62.1291 153.453L61.4077 148.238L62.3268 148.247L69.923 148.238Z" fill="#FFB6B6"/>
<path d="M63.2388 139.521L65.0629 138.423L65.9375 137.069L68.6364 137.485L71.9356 139.705L71.9033 144.738L69.8577 149.959L61.2844 148.86L60.9587 147.019C60.9587 147.019 58.5873 143.823 61.1411 141.992L63.2388 139.521Z" fill="#6C63FF"/>
<path d="M52.2907 124.575C52.2043 124.76 52.1593 124.962 52.1589 125.166C52.1586 125.37 52.2029 125.572 52.2887 125.757C52.3745 125.943 52.4997 126.107 52.6556 126.238C52.8114 126.37 52.9941 126.465 53.1907 126.518L59.1297 137.763L61.5269 135.906L54.9353 125.437C55.0019 125.099 54.943 124.749 54.7696 124.452C54.5962 124.156 54.3203 123.933 53.9944 123.827C53.6684 123.721 53.3149 123.738 53.0009 123.876C52.6869 124.014 52.4342 124.263 52.2907 124.575Z" fill="#FFB6B6"/>
<path d="M62.0327 141.563C62.0327 141.563 61.4824 142.052 60.6997 140.7C60.0732 139.617 56.9484 134.769 56.5059 133.088C56.2632 133.095 56.0251 133.021 55.8292 132.877C55.6332 132.733 55.4905 132.528 55.4236 132.294L58.7801 130.986C59.5097 131.352 59.3072 131.86 59.1222 132.122L60.3723 134.004L64.5303 138.687L62.4368 141.216L62.0327 141.563Z" fill="#6C63FF"/>
<path d="M73.9047 196.39H72.2264L71.4275 189.894H73.9047V196.39Z" fill="#FFB6B6"/>
<path d="M74.7904 199.308H73.5868L73.372 198.168L72.8217 199.308H69.6295C69.4765 199.308 69.3275 199.259 69.2042 199.168C69.081 199.077 68.9899 198.949 68.9444 198.802C68.8988 198.656 68.9012 198.498 68.9511 198.353C69.001 198.208 69.0958 198.083 69.2217 197.995L71.771 196.229V195.076L74.4523 195.236L74.7904 199.308Z" fill="#2F2E41"/>
<path d="M64.4772 196.39H62.7989L62 189.894H64.4772V196.39Z" fill="#FFB6B6"/>
<path d="M65.3629 199.308H64.1593L63.9445 198.168L63.3942 199.308H60.202C60.049 199.308 59.9 199.259 59.7767 199.168C59.6535 199.077 59.5624 198.949 59.5169 198.802C59.4713 198.656 59.4737 198.498 59.5236 198.353C59.5735 198.208 59.6683 198.083 59.7942 197.995L62.3435 196.229V195.076L65.0248 195.236L65.3629 199.308Z" fill="#2F2E41"/>
<path d="M74.6286 190.788H74.6103L74.2875 180.225C74.4964 179.821 74.6024 179.371 74.5961 178.916C74.5898 178.46 74.4714 178.014 74.2514 177.615L74.2052 177.531L74.325 176.974C74.4789 176.258 74.4083 175.512 74.1229 174.838L73.8217 164.985C74.8975 157.988 69.7707 153.426 69.7707 153.426H62.0906L61.5418 155.318L60.9548 155.819L61.177 156.576L60.5396 157.485L60.4418 159.11C59.3518 169.767 59.5496 180.152 61.2793 190.213L61.2321 190.237C61.1427 190.287 61.0759 190.369 61.0456 190.467C61.0153 190.566 61.0238 190.672 61.0694 190.764C61.1493 190.996 61.3518 191.137 61.5216 191.078L65.5775 190.936C65.667 190.886 65.7338 190.804 65.7641 190.706C65.7944 190.607 65.7858 190.501 65.7402 190.409C65.6603 190.177 65.4579 190.036 65.2881 190.095L65.0123 190.235L65.6004 180.043L65.5352 178.181L65.6696 176.069L66.2913 166.569L68.6446 178.251L71.0483 190.905C70.982 190.966 70.9355 191.045 70.9148 191.132C70.8942 191.219 70.9005 191.311 70.9328 191.395C70.9651 191.478 71.0219 191.55 71.0957 191.601C71.1696 191.651 71.257 191.678 71.3465 191.678H74.6286C74.7462 191.678 74.859 191.631 74.9422 191.548C75.0254 191.464 75.0721 191.351 75.0721 191.233C75.0721 191.115 75.0254 191.002 74.9422 190.918C74.859 190.835 74.7462 190.788 74.6286 190.788Z" fill="#2F2E41"/>
<path d="M83.0396 157.772C83.1206 157.584 83.1597 157.381 83.1541 157.177C83.1485 156.973 83.0984 156.773 83.0072 156.59C82.916 156.407 82.7861 156.247 82.6265 156.12C82.4669 155.993 82.2815 155.903 82.0834 155.856L75.8199 144.79L73.4778 146.716L80.3711 156.988C80.3142 157.327 80.3833 157.675 80.5653 157.967C80.7473 158.258 81.0294 158.473 81.3584 158.569C81.6873 158.666 82.0401 158.638 82.35 158.491C82.6598 158.344 82.9052 158.088 83.0396 157.772Z" fill="#FFB6B6"/>
<path d="M71.4134 139.697C71.4134 139.697 71.9493 139.191 72.7709 140.52C73.4287 141.584 78.0873 147.719 78.5785 149.386C78.8209 149.372 79.061 149.439 79.2611 149.577C79.4611 149.715 79.6097 149.916 79.6835 150.148L76.3664 151.553C75.6264 151.209 75.2817 150.564 75.459 150.296L74.1548 148.452L69.2649 142.787L71.0196 140.055L71.4134 139.697Z" fill="#6C63FF"/>
<path d="M64.6257 129.764C63.509 131.973 64.2385 134.531 66.3108 135.876C68.5517 137.331 71.4612 137.013 72.4022 134.186C73.4502 131.037 72.5893 129.686 70.7172 128.073C68.5233 126.182 65.8324 127.377 64.6257 129.764Z" fill="#2F2E41"/>
<path d="M70.1228 134.684C69.5543 135.432 68.7134 135.922 67.7848 136.048C66.8562 136.173 65.9159 135.924 65.1704 135.354C64.4249 134.785 63.9352 133.941 63.8089 133.01C63.6826 132.078 63.93 131.134 64.4967 130.385L64.5274 130.345C65.1065 129.617 65.9474 129.148 66.8687 129.037C67.79 128.926 68.7177 129.183 69.4519 129.752C70.1861 130.321 70.6678 131.158 70.7932 132.08C70.9185 133.003 70.6774 133.938 70.122 134.684L70.1228 134.684Z" fill="#FFB6B6"/>
<path d="M63.5435 129.406C64.1181 129.955 64.8185 130.353 65.5829 130.566C65.7361 130.388 65.9177 130.237 66.1203 130.119C66.0233 130.321 65.9568 130.537 65.9231 130.759C66.264 131.469 67.6563 131.979 68.987 132.501L70.7496 129.38L68.4166 128.053C66.542 126.753 64.3352 127.308 63.5435 129.406Z" fill="#2F2E41"/>
<path d="M72.0792 128.077C72.2493 128.014 72.4325 127.995 72.6119 128.021C72.7913 128.047 72.9613 128.118 73.1065 128.227C73.3905 128.444 73.6201 128.724 73.777 129.046C74.0624 129.566 74.2674 130.127 74.3851 130.709C74.4857 131.212 74.4687 131.821 74.0185 132.084C73.6429 132.303 73.1058 132.165 72.7606 131.872C72.4406 131.565 72.1979 131.186 72.0524 130.767C71.9095 130.35 71.6975 129.961 71.4253 129.616L71.7363 129.761C71.638 129.462 71.5922 129.147 71.6009 128.832C71.608 128.675 71.6559 128.523 71.7398 128.391C71.8237 128.258 71.9407 128.15 72.0792 128.077Z" fill="#2F2E41"/>
<path d="M68.0441 128.486L70.547 129.909C70.8821 130.1 71.1765 130.354 71.4135 130.659C71.6504 130.964 71.8252 131.312 71.9279 131.685C72.0306 132.058 72.0592 132.447 72.012 132.83C71.9648 133.214 71.8428 133.584 71.6529 133.921C71.0943 134.91 70.1882 135.654 69.1117 136.009C68.0352 136.363 66.8657 136.302 65.8317 135.838L68.1188 133.812L65.0162 135.398L64.3538 135.021C67.6812 134.414 68.3231 131.795 68.0441 128.486Z" fill="#2F2E41"/>
<path d="M43.8738 89L35.6396 102.757L43.9018 107.652L43.8738 89Z" fill="#8C8C8C"/>
<path d="M52.144 102.757L43.8738 89L43.9018 107.652L52.144 102.757Z" fill="#333333"/>
<path d="M35.6396 102.757L43.8918 98.9824L43.9018 107.652L35.6396 102.757Z" fill="#383838"/>
<path d="M52.144 102.757L43.8918 98.9824L43.9097 107.335L52.144 102.757Z" fill="#141414"/>
<path d="M52.1238 104.332L43.8816 109.227V115.979L52.1238 104.332Z" fill="#333333"/>
<path d="M35.6392 104.332L43.8816 109.227V115.979L35.6392 104.332Z" fill="#8C8C8C"/>
</g>
<rect x="182" y="48" width="237" height="34" rx="5" fill="#CEDCFF"/>
<path d="M213.003 61.2727V70H211.793L207.357 63.5994H207.276V70H205.959V61.2727H207.178L211.618 67.6818H211.699V61.2727H213.003ZM217.578 70.1321C216.965 70.1321 216.429 69.9915 215.972 69.7102C215.515 69.429 215.159 69.0355 214.907 68.5298C214.654 68.0241 214.527 67.4332 214.527 66.7571C214.527 66.0781 214.654 65.4844 214.907 64.9759C215.159 64.4673 215.515 64.0724 215.972 63.7912C216.429 63.5099 216.965 63.3693 217.578 63.3693C218.192 63.3693 218.728 63.5099 219.185 63.7912C219.642 64.0724 219.998 64.4673 220.25 64.9759C220.503 65.4844 220.63 66.0781 220.63 66.7571C220.63 67.4332 220.503 68.0241 220.25 68.5298C219.998 69.0355 219.642 69.429 219.185 69.7102C218.728 69.9915 218.192 70.1321 217.578 70.1321ZM217.583 69.0625C217.98 69.0625 218.31 68.9574 218.571 68.7472C218.833 68.5369 219.026 68.2571 219.151 67.9077C219.279 67.5582 219.343 67.1733 219.343 66.7528C219.343 66.3352 219.279 65.9517 219.151 65.6023C219.026 65.25 218.833 64.9673 218.571 64.7543C218.31 64.5412 217.98 64.4347 217.583 64.4347C217.182 64.4347 216.85 64.5412 216.586 64.7543C216.324 64.9673 216.13 65.25 216.002 65.6023C215.877 65.9517 215.814 66.3352 215.814 66.7528C215.814 67.1733 215.877 67.5582 216.002 67.9077C216.13 68.2571 216.324 68.5369 216.586 68.7472C216.85 68.9574 217.182 69.0625 217.583 69.0625ZM223.272 70L221.346 63.4545H222.662L223.945 68.2614H224.009L225.296 63.4545H226.613L227.891 68.2401H227.955L229.229 63.4545H230.546L228.624 70H227.324L225.995 65.2741H225.897L224.567 70H223.272ZM234.931 72.4545V63.4545H236.175V64.5156H236.282C236.355 64.3793 236.462 64.2216 236.601 64.0426C236.74 63.8636 236.934 63.7074 237.181 63.5739C237.428 63.4375 237.755 63.3693 238.161 63.3693C238.689 63.3693 239.161 63.5028 239.576 63.7699C239.99 64.0369 240.316 64.4219 240.551 64.9247C240.79 65.4276 240.909 66.0327 240.909 66.7401C240.909 67.4474 240.792 68.054 240.556 68.5597C240.32 69.0625 239.996 69.4503 239.584 69.723C239.172 69.9929 238.702 70.1278 238.174 70.1278C237.776 70.1278 237.451 70.0611 237.198 69.9276C236.948 69.794 236.752 69.6378 236.61 69.4588C236.468 69.2798 236.358 69.1207 236.282 68.9815H236.205V72.4545H234.931ZM236.179 66.7273C236.179 67.1875 236.246 67.5909 236.38 67.9375C236.513 68.2841 236.706 68.5554 236.959 68.7514C237.212 68.9446 237.522 69.0412 237.888 69.0412C238.269 69.0412 238.587 68.9403 238.843 68.7386C239.098 68.5341 239.292 68.2571 239.422 67.9077C239.556 67.5582 239.623 67.1648 239.623 66.7273C239.623 66.2955 239.557 65.9077 239.426 65.5639C239.299 65.2202 239.105 64.9489 238.847 64.75C238.591 64.5511 238.272 64.4517 237.888 64.4517C237.519 64.4517 237.206 64.5469 236.951 64.7372C236.698 64.9276 236.506 65.1932 236.375 65.5341C236.245 65.875 236.179 66.2727 236.179 66.7273ZM244.242 70.1449C243.827 70.1449 243.452 70.0682 243.117 69.9148C242.782 69.7585 242.516 69.5327 242.32 69.2372C242.127 68.9418 242.03 68.5795 242.03 68.1506C242.03 67.7812 242.101 67.4773 242.243 67.2386C242.385 67 242.577 66.8111 242.819 66.6719C243.06 66.5327 243.33 66.4276 243.628 66.3565C243.926 66.2855 244.23 66.2315 244.54 66.1946C244.932 66.1491 245.25 66.1122 245.495 66.0838C245.739 66.0526 245.917 66.0028 246.027 65.9347C246.138 65.8665 246.194 65.7557 246.194 65.6023V65.5724C246.194 65.2003 246.088 64.9119 245.878 64.7074C245.671 64.5028 245.361 64.4006 244.949 64.4006C244.52 64.4006 244.182 64.4957 243.935 64.6861C243.691 64.8736 243.522 65.0824 243.428 65.3125L242.23 65.0398C242.373 64.642 242.58 64.321 242.853 64.0767C243.128 63.8295 243.445 63.6506 243.803 63.5398C244.161 63.4261 244.537 63.3693 244.932 63.3693C245.194 63.3693 245.471 63.4006 245.763 63.4631C246.059 63.5227 246.334 63.6335 246.59 63.7955C246.848 63.9574 247.06 64.1889 247.225 64.4901C247.39 64.7884 247.472 65.1761 247.472 65.6534V70H246.228V69.1051H246.176C246.094 69.2699 245.971 69.4318 245.806 69.5909C245.641 69.75 245.429 69.8821 245.171 69.9872C244.912 70.0923 244.603 70.1449 244.242 70.1449ZM244.519 69.1222C244.871 69.1222 245.172 69.0526 245.422 68.9134C245.675 68.7741 245.867 68.5923 245.998 68.3679C246.131 68.1406 246.198 67.8977 246.198 67.6392V66.7955C246.152 66.8409 246.064 66.8835 245.934 66.9233C245.806 66.9602 245.659 66.9929 245.495 67.0213C245.33 67.0469 245.169 67.071 245.013 67.0938C244.857 67.1136 244.726 67.1307 244.621 67.1449C244.374 67.1761 244.148 67.2287 243.944 67.3026C243.742 67.3764 243.58 67.483 243.458 67.6222C243.338 67.7585 243.279 67.9403 243.279 68.1676C243.279 68.483 243.395 68.7216 243.628 68.8835C243.861 69.0426 244.158 69.1222 244.519 69.1222ZM249.74 72.4545C249.55 72.4545 249.376 72.4389 249.22 72.4077C249.064 72.3793 248.947 72.348 248.871 72.3139L249.178 71.2699C249.411 71.3324 249.618 71.3594 249.8 71.3509C249.982 71.3423 250.142 71.2741 250.281 71.1463C250.423 71.0185 250.548 70.8097 250.656 70.5199L250.814 70.0852L248.419 63.4545H249.783L251.44 68.5341H251.509L253.166 63.4545H254.534L251.837 70.8736C251.712 71.2145 251.553 71.5028 251.359 71.7386C251.166 71.9773 250.936 72.1563 250.669 72.2756C250.402 72.3949 250.092 72.4545 249.74 72.4545ZM262.022 63.4545V64.4773H258.324V63.4545H262.022ZM259.338 70V62.696C259.338 62.2869 259.427 61.9474 259.606 61.6776C259.785 61.4048 260.022 61.2017 260.318 61.0682C260.613 60.9318 260.934 60.8636 261.281 60.8636C261.537 60.8636 261.755 60.8849 261.937 60.9276C262.119 60.9673 262.254 61.0043 262.342 61.0384L262.044 62.0696C261.984 62.0526 261.907 62.0327 261.814 62.0099C261.72 61.9844 261.606 61.9716 261.473 61.9716C261.163 61.9716 260.941 62.0483 260.808 62.2017C260.677 62.3551 260.612 62.5767 260.612 62.8665V70H259.338ZM265.836 70.1321C265.223 70.1321 264.687 69.9915 264.23 69.7102C263.772 69.429 263.417 69.0355 263.164 68.5298C262.912 68.0241 262.785 67.4332 262.785 66.7571C262.785 66.0781 262.912 65.4844 263.164 64.9759C263.417 64.4673 263.772 64.0724 264.23 63.7912C264.687 63.5099 265.223 63.3693 265.836 63.3693C266.45 63.3693 266.985 63.5099 267.443 63.7912C267.9 64.0724 268.255 64.4673 268.508 64.9759C268.761 65.4844 268.887 66.0781 268.887 66.7571C268.887 67.4332 268.761 68.0241 268.508 68.5298C268.255 69.0355 267.9 69.429 267.443 69.7102C266.985 69.9915 266.45 70.1321 265.836 70.1321ZM265.841 69.0625C266.238 69.0625 266.568 68.9574 266.829 68.7472C267.091 68.5369 267.284 68.2571 267.409 67.9077C267.537 67.5582 267.6 67.1733 267.6 66.7528C267.6 66.3352 267.537 65.9517 267.409 65.6023C267.284 65.25 267.091 64.9673 266.829 64.7543C266.568 64.5412 266.238 64.4347 265.841 64.4347C265.44 64.4347 265.108 64.5412 264.843 64.7543C264.582 64.9673 264.387 65.25 264.26 65.6023C264.135 65.9517 264.072 66.3352 264.072 66.7528C264.072 67.1733 264.135 67.5582 264.26 67.9077C264.387 68.2571 264.582 68.5369 264.843 68.7472C265.108 68.9574 265.44 69.0625 265.841 69.0625ZM270.31 70V63.4545H271.541V64.4943H271.609C271.729 64.142 271.939 63.8651 272.24 63.6634C272.544 63.4588 272.888 63.3565 273.271 63.3565C273.351 63.3565 273.445 63.3594 273.553 63.3651C273.663 63.3707 273.75 63.3778 273.812 63.3864V64.6051C273.761 64.5909 273.67 64.5753 273.54 64.5582C273.409 64.5384 273.278 64.5284 273.148 64.5284C272.847 64.5284 272.578 64.5923 272.342 64.7202C272.109 64.8452 271.925 65.0199 271.788 65.2443C271.652 65.4659 271.584 65.7187 271.584 66.0028V70H270.31ZM279.996 70.1449C279.581 70.1449 279.206 70.0682 278.871 69.9148C278.536 69.7585 278.27 69.5327 278.074 69.2372C277.881 68.9418 277.784 68.5795 277.784 68.1506C277.784 67.7812 277.855 67.4773 277.997 67.2386C278.139 67 278.331 66.8111 278.572 66.6719C278.814 66.5327 279.084 66.4276 279.382 66.3565C279.68 66.2855 279.984 66.2315 280.294 66.1946C280.686 66.1491 281.004 66.1122 281.249 66.0838C281.493 66.0526 281.67 66.0028 281.781 65.9347C281.892 65.8665 281.947 65.7557 281.947 65.6023V65.5724C281.947 65.2003 281.842 64.9119 281.632 64.7074C281.425 64.5028 281.115 64.4006 280.703 64.4006C280.274 64.4006 279.936 64.4957 279.689 64.6861C279.445 64.8736 279.276 65.0824 279.182 65.3125L277.984 65.0398C278.126 64.642 278.334 64.321 278.607 64.0767C278.882 63.8295 279.199 63.6506 279.557 63.5398C279.915 63.4261 280.291 63.3693 280.686 63.3693C280.947 63.3693 281.224 63.4006 281.517 63.4631C281.813 63.5227 282.088 63.6335 282.344 63.7955C282.602 63.9574 282.814 64.1889 282.979 64.4901C283.143 64.7884 283.226 65.1761 283.226 65.6534V70H281.982V69.1051H281.93C281.848 69.2699 281.724 69.4318 281.56 69.5909C281.395 69.75 281.183 69.8821 280.925 69.9872C280.666 70.0923 280.357 70.1449 279.996 70.1449ZM280.273 69.1222C280.625 69.1222 280.926 69.0526 281.176 68.9134C281.429 68.7741 281.621 68.5923 281.751 68.3679C281.885 68.1406 281.952 67.8977 281.952 67.6392V66.7955C281.906 66.8409 281.818 66.8835 281.688 66.9233C281.56 66.9602 281.413 66.9929 281.249 67.0213C281.084 67.0469 280.923 67.071 280.767 67.0938C280.611 67.1136 280.48 67.1307 280.375 67.1449C280.128 67.1761 279.902 67.2287 279.697 67.3026C279.496 67.3764 279.334 67.483 279.212 67.6222C279.092 67.7585 279.033 67.9403 279.033 68.1676C279.033 68.483 279.149 68.7216 279.382 68.8835C279.615 69.0426 279.912 69.1222 280.273 69.1222ZM286.197 66.1136V70H284.923V63.4545H286.146V64.5199H286.227C286.377 64.1733 286.613 63.8949 286.934 63.6847C287.258 63.4744 287.666 63.3693 288.157 63.3693C288.603 63.3693 288.994 63.4631 289.329 63.6506C289.664 63.8352 289.924 64.1108 290.109 64.4773C290.294 64.8437 290.386 65.2969 290.386 65.8366V70H289.112V65.9901C289.112 65.5156 288.988 65.1449 288.741 64.8778C288.494 64.608 288.154 64.473 287.723 64.473C287.427 64.473 287.164 64.5369 286.934 64.6648C286.707 64.7926 286.527 64.9801 286.393 65.2273C286.262 65.4716 286.197 65.767 286.197 66.1136ZM292.666 72.4545C292.475 72.4545 292.302 72.4389 292.146 72.4077C291.99 72.3793 291.873 72.348 291.797 72.3139L292.103 71.2699C292.336 71.3324 292.544 71.3594 292.725 71.3509C292.907 71.3423 293.068 71.2741 293.207 71.1463C293.349 71.0185 293.474 70.8097 293.582 70.5199L293.74 70.0852L291.345 63.4545H292.708L294.366 68.5341H294.434L296.092 63.4545H297.46L294.762 70.8736C294.637 71.2145 294.478 71.5028 294.285 71.7386C294.092 71.9773 293.862 72.1563 293.595 72.2756C293.328 72.3949 293.018 72.4545 292.666 72.4545ZM301.713 63.4545V64.4773H298.137V63.4545H301.713ZM299.096 61.8864H300.37V68.0781C300.37 68.3253 300.407 68.5114 300.481 68.6364C300.555 68.7585 300.65 68.8423 300.767 68.8878C300.886 68.9304 301.015 68.9517 301.154 68.9517C301.257 68.9517 301.346 68.9446 301.423 68.9304C301.5 68.9162 301.559 68.9048 301.602 68.8963L301.832 69.9489C301.758 69.9773 301.653 70.0057 301.517 70.0341C301.38 70.0653 301.21 70.0824 301.005 70.0852C300.67 70.0909 300.358 70.0312 300.068 69.9062C299.778 69.7812 299.544 69.5881 299.365 69.3267C299.186 69.0653 299.096 68.7372 299.096 68.3423V61.8864ZM304.537 66.1136V70H303.263V61.2727H304.52V64.5199H304.601C304.754 64.1676 304.989 63.8878 305.304 63.6804C305.619 63.473 306.031 63.3693 306.54 63.3693C306.989 63.3693 307.381 63.4616 307.716 63.6463C308.054 63.831 308.315 64.1065 308.5 64.473C308.688 64.8366 308.781 65.2912 308.781 65.8366V70H307.507V65.9901C307.507 65.5099 307.384 65.1378 307.136 64.8736C306.889 64.6065 306.545 64.473 306.105 64.473C305.804 64.473 305.534 64.5369 305.295 64.6648C305.06 64.7926 304.874 64.9801 304.737 65.2273C304.604 65.4716 304.537 65.767 304.537 66.1136ZM310.482 70V63.4545H311.756V70H310.482ZM311.125 62.4446C310.903 62.4446 310.713 62.3707 310.554 62.223C310.398 62.0724 310.32 61.8935 310.32 61.6861C310.32 61.4759 310.398 61.2969 310.554 61.1491C310.713 60.9986 310.903 60.9233 311.125 60.9233C311.347 60.9233 311.536 60.9986 311.692 61.1491C311.851 61.2969 311.93 61.4759 311.93 61.6861C311.93 61.8935 311.851 62.0724 311.692 62.223C311.536 62.3707 311.347 62.4446 311.125 62.4446ZM314.744 66.1136V70H313.47V63.4545H314.693V64.5199H314.774C314.924 64.1733 315.16 63.8949 315.481 63.6847C315.805 63.4744 316.213 63.3693 316.704 63.3693C317.15 63.3693 317.541 63.4631 317.876 63.6506C318.211 63.8352 318.471 64.1108 318.656 64.4773C318.841 64.8437 318.933 65.2969 318.933 65.8366V70H317.659V65.9901C317.659 65.5156 317.535 65.1449 317.288 64.8778C317.041 64.608 316.701 64.473 316.27 64.473C315.974 64.473 315.711 64.5369 315.481 64.6648C315.254 64.7926 315.074 64.9801 314.94 65.2273C314.809 65.4716 314.744 65.767 314.744 66.1136ZM323.386 72.5909C322.866 72.5909 322.419 72.5227 322.044 72.3864C321.672 72.25 321.368 72.0696 321.132 71.8452C320.896 71.6207 320.72 71.375 320.603 71.108L321.699 70.6562C321.775 70.7812 321.877 70.9134 322.005 71.0526C322.136 71.1946 322.312 71.3153 322.534 71.4148C322.758 71.5142 323.047 71.5639 323.399 71.5639C323.882 71.5639 324.281 71.446 324.596 71.2102C324.912 70.9773 325.069 70.6051 325.069 70.0938V68.8068H324.988C324.912 68.946 324.801 69.1009 324.656 69.2713C324.514 69.4418 324.318 69.5895 324.068 69.7145C323.818 69.8395 323.493 69.902 323.092 69.902C322.575 69.902 322.109 69.7812 321.694 69.5398C321.282 69.2955 320.956 68.9361 320.714 68.4616C320.475 67.9844 320.356 67.3977 320.356 66.7017C320.356 66.0057 320.474 65.4091 320.71 64.9119C320.949 64.4148 321.275 64.0341 321.69 63.7699C322.105 63.5028 322.575 63.3693 323.1 63.3693C323.507 63.3693 323.835 63.4375 324.085 63.5739C324.335 63.7074 324.529 63.8636 324.669 64.0426C324.811 64.2216 324.92 64.3793 324.997 64.5156H325.091V63.4545H326.339V70.1449C326.339 70.7074 326.208 71.169 325.947 71.5298C325.686 71.8906 325.332 72.1577 324.886 72.331C324.443 72.5043 323.943 72.5909 323.386 72.5909ZM323.373 68.8452C323.74 68.8452 324.049 68.7599 324.302 68.5895C324.558 68.4162 324.751 68.169 324.882 67.848C325.015 67.5241 325.082 67.1364 325.082 66.6847C325.082 66.2443 325.017 65.8565 324.886 65.5213C324.755 65.1861 324.564 64.9247 324.311 64.7372C324.058 64.5469 323.745 64.4517 323.373 64.4517C322.99 64.4517 322.67 64.5511 322.414 64.75C322.159 64.946 321.966 65.2131 321.835 65.5511C321.707 65.8892 321.643 66.267 321.643 66.6847C321.643 67.1136 321.708 67.4901 321.839 67.8139C321.97 68.1378 322.163 68.3906 322.419 68.5724C322.677 68.7543 322.995 68.8452 323.373 68.8452ZM332.643 70L330.717 63.4545H332.033L333.316 68.2614H333.38L334.667 63.4545H335.984L337.262 68.2401H337.326L338.6 63.4545H339.917L337.995 70H336.695L335.366 65.2741H335.268L333.938 70H332.643ZM341.126 70V63.4545H342.4V70H341.126ZM341.77 62.4446C341.548 62.4446 341.358 62.3707 341.199 62.223C341.042 62.0724 340.964 61.8935 340.964 61.6861C340.964 61.4759 341.042 61.2969 341.199 61.1491C341.358 60.9986 341.548 60.9233 341.77 60.9233C341.991 60.9233 342.18 60.9986 342.336 61.1491C342.495 61.2969 342.575 61.4759 342.575 61.6861C342.575 61.8935 342.495 62.0724 342.336 62.223C342.18 62.3707 341.991 62.4446 341.77 62.4446ZM347.17 63.4545V64.4773H343.594V63.4545H347.17ZM344.553 61.8864H345.827V68.0781C345.827 68.3253 345.864 68.5114 345.938 68.6364C346.012 68.7585 346.107 68.8423 346.224 68.8878C346.343 68.9304 346.472 68.9517 346.612 68.9517C346.714 68.9517 346.803 68.9446 346.88 68.9304C346.957 68.9162 347.016 68.9048 347.059 68.8963L347.289 69.9489C347.215 69.9773 347.11 70.0057 346.974 70.0341C346.837 70.0653 346.667 70.0824 346.462 70.0852C346.127 70.0909 345.815 70.0312 345.525 69.9062C345.235 69.7812 345.001 69.5881 344.822 69.3267C344.643 69.0653 344.553 68.7372 344.553 68.3423V61.8864ZM349.994 66.1136V70H348.72V61.2727H349.977V64.5199H350.058C350.211 64.1676 350.446 63.8878 350.761 63.6804C351.076 63.473 351.488 63.3693 351.997 63.3693C352.446 63.3693 352.838 63.4616 353.173 63.6463C353.511 63.831 353.772 64.1065 353.957 64.473C354.145 64.8366 354.238 65.2912 354.238 65.8366V70H352.964V65.9901C352.964 65.5099 352.841 65.1378 352.593 64.8736C352.346 64.6065 352.002 64.473 351.562 64.473C351.261 64.473 350.991 64.5369 350.752 64.6648C350.517 64.7926 350.331 64.9801 350.194 65.2273C350.061 65.4716 349.994 65.767 349.994 66.1136ZM361.871 70.1321C361.238 70.1321 360.692 69.9886 360.235 69.7017C359.781 69.4119 359.431 69.0128 359.187 68.5043C358.942 67.9957 358.82 67.4134 358.82 66.7571C358.82 66.0923 358.945 65.5057 359.195 64.9972C359.445 64.4858 359.798 64.0866 360.252 63.7997C360.707 63.5128 361.242 63.3693 361.859 63.3693C362.356 63.3693 362.799 63.4616 363.188 63.6463C363.577 63.8281 363.891 64.0838 364.13 64.4134C364.371 64.7429 364.515 65.1278 364.56 65.5682H363.32C363.252 65.2614 363.096 64.9972 362.852 64.7756C362.61 64.554 362.286 64.4432 361.88 64.4432C361.525 64.4432 361.214 64.5369 360.947 64.7244C360.683 64.9091 360.477 65.1733 360.329 65.517C360.181 65.858 360.107 66.2614 360.107 66.7273C360.107 67.2045 360.18 67.6165 360.325 67.9631C360.469 68.3097 360.674 68.5781 360.938 68.7685C361.205 68.9588 361.519 69.054 361.88 69.054C362.121 69.054 362.34 69.0099 362.536 68.9219C362.735 68.831 362.901 68.7017 363.035 68.5341C363.171 68.3665 363.266 68.1648 363.32 67.929H364.56C364.515 68.3523 364.377 68.7301 364.147 69.0625C363.917 69.3949 363.609 69.6562 363.222 69.8466C362.839 70.0369 362.388 70.1321 361.871 70.1321ZM365.923 70V63.4545H367.154V64.4943H367.223C367.342 64.142 367.552 63.8651 367.853 63.6634C368.157 63.4588 368.501 63.3565 368.885 63.3565C368.964 63.3565 369.058 63.3594 369.166 63.3651C369.277 63.3707 369.363 63.3778 369.426 63.3864V64.6051C369.375 64.5909 369.284 64.5753 369.153 64.5582C369.022 64.5384 368.892 64.5284 368.761 64.5284C368.46 64.5284 368.191 64.5923 367.956 64.7202C367.723 64.8452 367.538 65.0199 367.402 65.2443C367.265 65.4659 367.197 65.7187 367.197 66.0028V70H365.923ZM371.533 72.4545C371.343 72.4545 371.169 72.4389 371.013 72.4077C370.857 72.3793 370.74 72.348 370.664 72.3139L370.971 71.2699C371.203 71.3324 371.411 71.3594 371.593 71.3509C371.775 71.3423 371.935 71.2741 372.074 71.1463C372.216 71.0185 372.341 70.8097 372.449 70.5199L372.607 70.0852L370.212 63.4545H371.576L373.233 68.5341H373.301L374.959 63.4545H376.327L373.63 70.8736C373.505 71.2145 373.346 71.5028 373.152 71.7386C372.959 71.9773 372.729 72.1563 372.462 72.2756C372.195 72.3949 371.885 72.4545 371.533 72.4545ZM377.525 72.4545V63.4545H378.769V64.5156H378.875C378.949 64.3793 379.056 64.2216 379.195 64.0426C379.334 63.8636 379.527 63.7074 379.775 63.5739C380.022 63.4375 380.348 63.3693 380.755 63.3693C381.283 63.3693 381.755 63.5028 382.169 63.7699C382.584 64.0369 382.909 64.4219 383.145 64.9247C383.384 65.4276 383.503 66.0327 383.503 66.7401C383.503 67.4474 383.385 68.054 383.15 68.5597C382.914 69.0625 382.59 69.4503 382.178 69.723C381.766 69.9929 381.296 70.1278 380.767 70.1278C380.37 70.1278 380.044 70.0611 379.792 69.9276C379.542 69.794 379.346 69.6378 379.203 69.4588C379.061 69.2798 378.952 69.1207 378.875 68.9815H378.799V72.4545H377.525ZM378.773 66.7273C378.773 67.1875 378.84 67.5909 378.973 67.9375C379.107 68.2841 379.3 68.5554 379.553 68.7514C379.806 68.9446 380.115 69.0412 380.482 69.0412C380.863 69.0412 381.181 68.9403 381.436 68.7386C381.692 68.5341 381.885 68.2571 382.016 67.9077C382.15 67.5582 382.216 67.1648 382.216 66.7273C382.216 66.2955 382.151 65.9077 382.02 65.5639C381.892 65.2202 381.699 64.9489 381.441 64.75C381.185 64.5511 380.865 64.4517 380.482 64.4517C380.113 64.4517 379.8 64.5469 379.544 64.7372C379.292 64.9276 379.1 65.1932 378.969 65.5341C378.838 65.875 378.773 66.2727 378.773 66.7273ZM387.986 63.4545V64.4773H384.411V63.4545H387.986ZM385.37 61.8864H386.644V68.0781C386.644 68.3253 386.681 68.5114 386.755 68.6364C386.828 68.7585 386.924 68.8423 387.04 68.8878C387.159 68.9304 387.289 68.9517 387.428 68.9517C387.53 68.9517 387.62 68.9446 387.696 68.9304C387.773 68.9162 387.833 68.9048 387.875 68.8963L388.105 69.9489C388.032 69.9773 387.926 70.0057 387.79 70.0341C387.654 70.0653 387.483 70.0824 387.279 70.0852C386.944 70.0909 386.631 70.0312 386.341 69.9062C386.051 69.7812 385.817 69.5881 385.638 69.3267C385.459 69.0653 385.37 68.7372 385.37 68.3423V61.8864ZM392.082 70.1321C391.469 70.1321 390.933 69.9915 390.476 69.7102C390.018 69.429 389.663 69.0355 389.411 68.5298C389.158 68.0241 389.031 67.4332 389.031 66.7571C389.031 66.0781 389.158 65.4844 389.411 64.9759C389.663 64.4673 390.018 64.0724 390.476 63.7912C390.933 63.5099 391.469 63.3693 392.082 63.3693C392.696 63.3693 393.232 63.5099 393.689 63.7912C394.146 64.0724 394.501 64.4673 394.754 64.9759C395.007 65.4844 395.134 66.0781 395.134 66.7571C395.134 67.4332 395.007 68.0241 394.754 68.5298C394.501 69.0355 394.146 69.429 393.689 69.7102C393.232 69.9915 392.696 70.1321 392.082 70.1321ZM392.087 69.0625C392.484 69.0625 392.814 68.9574 393.075 68.7472C393.337 68.5369 393.53 68.2571 393.655 67.9077C393.783 67.5582 393.847 67.1733 393.847 66.7528C393.847 66.3352 393.783 65.9517 393.655 65.6023C393.53 65.25 393.337 64.9673 393.075 64.7543C392.814 64.5412 392.484 64.4347 392.087 64.4347C391.686 64.4347 391.354 64.5412 391.089 64.7543C390.828 64.9673 390.634 65.25 390.506 65.6023C390.381 65.9517 390.318 66.3352 390.318 66.7528C390.318 67.1733 390.381 67.5582 390.506 67.9077C390.634 68.2571 390.828 68.5369 391.089 68.7472C391.354 68.9574 391.686 69.0625 392.087 69.0625Z" fill="black"/>
<defs>
<clipPath id="clip0_7_150">
<rect width="88" height="111" fill="white" transform="translate(10 89)"/>
</clipPath>
</defs>
</svg>
