<svg width="393" height="270" viewBox="0 0 393 270" fill="none" xmlns="http://www.w3.org/2000/svg">
<rect width="393" height="270" fill="#9DB8FD"/>
<path d="M132.42 171.86C77.89 137.725 21.4192 141.992 0 148.392V270H393V218.441C389.095 215.715 373.971 205.285 344.718 185.372C308.152 160.482 293.241 157.282 265.195 158.348C237.149 159.415 200.583 214.53 132.42 171.86Z" fill="#CEDCFF"/>
<g clip-path="url(#clip0_1_219)">
<path d="M22.8269 262.42C22.6313 262.429 22.4377 262.377 22.2723 262.273C22.1069 262.168 21.9777 262.014 21.9022 261.834C21.8267 261.653 21.8085 261.453 21.8501 261.261C21.8918 261.07 21.9912 260.896 22.1349 260.763C22.159 260.667 22.1763 260.598 22.2004 260.502C22.1917 260.481 22.1831 260.46 22.1744 260.439C21.9774 259.973 21.6473 259.576 21.2255 259.297C20.8038 259.019 20.3092 258.871 19.8039 258.873C19.2986 258.875 18.8051 259.026 18.3854 259.308C17.9658 259.59 17.6386 259.99 17.4451 260.457C16.6716 262.323 15.6868 264.192 15.4443 266.165C15.3375 267.037 15.3826 267.921 15.5774 268.777C13.7607 264.808 12.8173 260.494 12.8113 256.128C12.8109 255.032 12.8717 253.937 12.9933 252.849C13.0939 251.956 13.2334 251.07 13.4118 250.19C14.3855 245.415 16.4762 240.94 19.512 237.132C20.9814 236.329 22.1697 235.094 22.9167 233.594C23.1874 233.055 23.3787 232.479 23.4847 231.885C23.3189 231.907 23.1504 231.92 22.9847 231.931C22.9331 231.934 22.8787 231.937 22.8271 231.939L22.8076 231.94C22.6254 231.949 22.4448 231.904 22.2874 231.812C22.13 231.719 22.0026 231.583 21.9206 231.42C21.8385 231.257 21.8052 231.074 21.8248 230.892C21.8443 230.711 21.9158 230.539 22.0308 230.397C22.1023 230.309 22.1739 230.221 22.2456 230.132C22.3543 229.996 22.4657 229.863 22.5744 229.727C22.5869 229.714 22.5987 229.7 22.6097 229.686C22.7347 229.531 22.8597 229.379 22.9847 229.223C22.7565 228.869 22.4497 228.572 22.088 228.355C20.8353 227.62 19.1072 228.129 18.2023 229.264C17.2947 230.399 17.1236 231.991 17.4387 233.409C17.7487 234.616 18.2615 235.76 18.955 236.795C18.8871 236.882 18.8164 236.966 18.7485 237.053C17.5067 238.652 16.4243 240.37 15.517 242.18C15.7377 240.152 15.4743 238.1 14.7487 236.193C14.0132 234.416 12.6347 232.92 11.4207 231.383C9.96255 229.538 6.97246 230.343 6.71556 232.683C6.71308 232.705 6.71065 232.728 6.70828 232.75C6.8886 232.852 7.0651 232.96 7.2378 233.075C7.45475 233.22 7.62285 233.427 7.72009 233.67C7.81732 233.912 7.83915 234.179 7.78271 234.434C7.72627 234.689 7.5942 234.921 7.4038 235.1C7.2134 235.278 6.97355 235.395 6.71568 235.435L6.68928 235.439C6.75351 236.09 6.86705 236.735 7.02892 237.369C7.49797 239.138 8.32683 240.79 9.46353 242.223C10.6002 243.657 12.0202 244.839 13.6346 245.697C13.7406 245.751 13.8438 245.805 13.9498 245.857C13.0382 248.444 12.4664 251.14 12.2488 253.875C12.1256 255.488 12.1328 257.109 12.2705 258.721L12.2624 258.664C11.9145 256.871 10.9595 255.254 9.55869 254.084C7.47805 252.372 4.53851 251.742 2.29388 250.366C2.05533 250.213 1.77795 250.131 1.49446 250.13C1.21098 250.129 0.933213 250.21 0.693918 250.362C0.454623 250.514 0.26378 250.732 0.143908 250.989C0.0240352 251.246 -0.0198716 251.533 0.0173655 251.814C0.0203759 251.834 0.0234408 251.854 0.0265499 251.874C0.361158 252.011 0.686949 252.168 1.00204 252.345C1.18235 252.447 1.35885 252.555 1.53155 252.669C1.7485 252.815 1.9166 253.022 2.01384 253.265C2.11108 253.507 2.13291 253.773 2.07647 254.028C2.02003 254.284 1.88796 254.516 1.69756 254.694C1.50716 254.873 1.2673 254.99 1.00943 255.03L0.983006 255.034C0.963981 255.037 0.947682 255.039 0.928689 255.042C1.50041 256.409 2.30285 257.668 3.30085 258.762C4.53371 260.087 6.02379 261.146 7.67972 261.874C9.33565 262.601 11.1225 262.983 12.9308 262.994H12.9336C13.4244 265.131 14.1356 267.21 15.0557 269.199H22.6369C22.6641 269.115 22.6885 269.028 22.713 268.943C22.0113 268.988 21.3068 268.945 20.6152 268.818C21.1777 268.127 21.7402 267.43 22.3027 266.739C22.3152 266.726 22.327 266.712 22.338 266.698C22.6233 266.344 22.9113 265.993 23.1966 265.639L23.1968 265.639C23.212 264.555 23.0877 263.473 22.8271 262.42L22.8269 262.42Z" fill="#F2F2F2"/>
<path d="M89.1731 262.42C89.3687 262.429 89.5623 262.377 89.7277 262.273C89.8931 262.168 90.0223 262.014 90.0978 261.834C90.1733 261.653 90.1915 261.453 90.1498 261.261C90.1082 261.07 90.0088 260.896 89.8651 260.763C89.841 260.667 89.8237 260.598 89.7996 260.502C89.8083 260.481 89.8169 260.46 89.8256 260.439C90.0226 259.973 90.3527 259.576 90.7745 259.297C91.1962 259.019 91.6908 258.871 92.1961 258.873C92.7014 258.875 93.1949 259.026 93.6146 259.308C94.0342 259.59 94.3614 259.99 94.5549 260.457C95.3284 262.323 96.3132 264.192 96.5557 266.165C96.6625 267.037 96.6174 267.921 96.4225 268.777C98.2393 264.808 99.1827 260.494 99.1887 256.128C99.1891 255.032 99.1283 253.937 99.0067 252.849C98.9061 251.956 98.7666 251.07 98.5882 250.19C97.6145 245.415 95.5238 240.94 92.488 237.132C91.0186 236.329 89.8303 235.094 89.0832 233.594C88.8126 233.055 88.6213 232.479 88.5153 231.885C88.6811 231.907 88.8495 231.92 89.0153 231.931C89.0669 231.934 89.1213 231.937 89.1729 231.939L89.1924 231.94C89.3746 231.949 89.5552 231.904 89.7126 231.812C89.8699 231.719 89.9973 231.583 90.0794 231.42C90.1615 231.257 90.1948 231.074 90.1752 230.892C90.1557 230.711 90.0841 230.539 89.9692 230.397C89.8977 230.309 89.8261 230.221 89.7544 230.132C89.6457 229.996 89.5343 229.863 89.4256 229.727C89.4131 229.714 89.4013 229.7 89.3903 229.686C89.2653 229.531 89.1403 229.379 89.0153 229.223C89.2435 228.869 89.5504 228.572 89.912 228.355C91.1647 227.62 92.8928 228.129 93.7977 229.264C94.7053 230.399 94.8764 231.991 94.5613 233.409C94.2513 234.616 93.7386 235.76 93.045 236.795C93.113 236.882 93.1836 236.966 93.2515 237.053C94.4933 238.652 95.5757 240.37 96.483 242.18C96.2623 240.152 96.5257 238.1 97.2513 236.193C97.9868 234.416 99.3653 232.92 100.579 231.383C102.037 229.538 105.028 230.343 105.284 232.683C105.287 232.705 105.289 232.728 105.292 232.75C105.111 232.852 104.935 232.96 104.762 233.075C104.545 233.22 104.377 233.427 104.28 233.67C104.183 233.912 104.161 234.179 104.217 234.434C104.274 234.689 104.406 234.921 104.596 235.1C104.787 235.278 105.026 235.395 105.284 235.435L105.311 235.439C105.246 236.09 105.133 236.735 104.971 237.369C104.502 239.138 103.673 240.79 102.536 242.223C101.4 243.657 99.9798 244.839 98.3654 245.697C98.2594 245.751 98.1562 245.805 98.0502 245.857C98.9618 248.444 99.5336 251.14 99.7512 253.875C99.8744 255.488 99.8672 257.109 99.7295 258.721L99.7376 258.664C100.085 256.871 101.04 255.254 102.441 254.084C104.522 252.372 107.461 251.742 109.706 250.366C109.945 250.213 110.222 250.131 110.506 250.13C110.789 250.129 111.067 250.21 111.306 250.362C111.545 250.514 111.736 250.732 111.856 250.989C111.976 251.246 112.02 251.533 111.983 251.814C111.98 251.834 111.977 251.854 111.973 251.874C111.639 252.011 111.313 252.168 110.998 252.345C110.818 252.447 110.641 252.555 110.468 252.669C110.252 252.815 110.083 253.022 109.986 253.265C109.889 253.507 109.867 253.773 109.924 254.028C109.98 254.284 110.112 254.516 110.302 254.694C110.493 254.873 110.733 254.99 110.991 255.03L111.017 255.034C111.036 255.037 111.052 255.039 111.071 255.042C110.5 256.409 109.697 257.668 108.699 258.762C107.466 260.087 105.976 261.146 104.32 261.874C102.664 262.601 100.877 262.983 99.0692 262.994H99.0664C98.5756 265.131 97.8644 267.21 96.9442 269.199H89.3631C89.3359 269.115 89.3115 269.028 89.287 268.943C89.9887 268.988 90.6932 268.945 91.3848 268.818C90.8223 268.127 90.2598 267.43 89.6973 266.739C89.6848 266.726 89.673 266.712 89.662 266.698C89.3767 266.344 89.0887 265.993 88.8034 265.639L88.8032 265.639C88.788 264.555 88.9125 263.473 89.1731 262.42Z" fill="#F2F2F2"/>
<path d="M25.2404 265.162L27.4567 266.108L32.1544 257.996L28.8833 256.6L25.2404 265.162Z" fill="#A0616A"/>
<path d="M43.5551 267.263L45.9641 267.262L47.1103 257.956L43.5546 257.956L43.5551 267.263Z" fill="#A0616A"/>
<path d="M43.4702 269.779L50.8785 269.779V269.685C50.8784 268.919 50.5746 268.185 50.0339 267.643C49.4931 267.102 48.7597 266.797 47.995 266.797L46.6416 265.769L44.1168 266.798L43.4701 266.798L43.4702 269.779Z" fill="#2F2E41"/>
<path d="M23.8929 266.773L30.7081 269.682L30.7448 269.596C31.0446 268.891 31.0526 268.096 30.7672 267.385C30.4818 266.675 29.9262 266.107 29.2227 265.807L28.3802 264.329L25.655 264.284L25.06 264.03L23.8929 266.773Z" fill="#2F2E41"/>
<path d="M45.9182 212.182L49.5795 234.511L48.5831 237.838L49.8906 240.195L47.9705 260.89L48.7499 262.609L46.5723 263.954H42.141L41.9058 245.218L40.8112 242.467V240.951L38.583 229.526L38.3453 243.714L37.6339 245.089L31.2609 261.798H26.292L26.6763 258.832C25.7861 258.381 28.0129 257.062 28.2269 256.086L27.4953 254.437L28.2269 251.322L29.9122 242.661L28.1903 232.392L28.807 225.781L28.4859 223.52L28.5102 222.789C28.5102 222.789 29.3596 222.461 28.5485 221.642C27.4256 215.266 28.807 213.883 28.807 213.883L34.3358 210.642L45.9182 212.182Z" fill="#2F2E41"/>
<path d="M37.0019 182.777C39.7752 182.777 42.0233 180.525 42.0233 177.747C42.0233 174.97 39.7752 172.718 37.0019 172.718C34.2287 172.718 31.9805 174.97 31.9805 177.747C31.9805 180.525 34.2287 182.777 37.0019 182.777Z" fill="#A0616A"/>
<path d="M30.7064 168.1C30.73 168.388 30.6903 168.678 30.5899 168.95C30.4896 169.221 30.3311 169.467 30.1255 169.67C29.92 169.874 29.6724 170.029 29.4003 170.126C29.1282 170.224 28.8381 170.26 28.5506 170.232L25.6329 176.63L23.6967 173.532L26.7642 167.932C26.842 167.451 27.0932 167.015 27.4702 166.708C27.8473 166.4 28.3239 166.242 28.8098 166.262C29.2957 166.283 29.7572 166.481 30.1067 166.82C30.4563 167.159 30.6696 167.614 30.7064 168.1Z" fill="#A0616A"/>
<path d="M46.2473 212.663C46.2578 212.738 46.2498 212.815 46.2243 212.887C46.1987 212.958 46.1562 213.023 46.1004 213.075C46.0447 213.126 45.9772 213.164 45.9039 213.184C45.8306 213.204 45.7535 213.206 45.6793 213.19C43.0502 212.621 32.201 213.986 28.6075 217.654C28.5395 217.724 28.4516 217.772 28.3557 217.79C28.2598 217.808 28.1606 217.796 28.0716 217.756C27.9826 217.716 27.9082 217.649 27.8585 217.565C27.8087 217.481 27.7861 217.384 27.7937 217.286C27.8571 216.498 29.0012 212.93 29.0012 212.93L29.35 210.707C29.3579 210.656 29.3579 210.603 29.35 210.551L29.0302 208.712C29.0129 208.616 28.9669 208.527 28.8981 208.458L28.7898 208.349C28.701 208.26 28.6511 208.139 28.6511 208.013C28.6511 207.887 28.701 207.766 28.7898 207.677L29.2099 207.259C29.2608 207.207 29.2994 207.144 29.3227 207.075C29.346 207.005 29.3535 206.932 29.3447 206.859L28.7872 202.731C28.7845 202.723 28.7845 202.713 28.7819 202.705L26.3193 189.679C26.3002 189.576 26.3155 189.47 26.3627 189.377C26.41 189.283 26.4867 189.208 26.5809 189.163L30.7662 187.16C30.8097 187.14 30.8498 187.113 30.8851 187.08L33.8075 184.365C33.8945 184.286 34.0071 184.241 34.1246 184.238L39.3774 184.199C39.4503 184.199 39.5223 184.215 39.5878 184.247C39.6533 184.279 39.7105 184.326 39.7553 184.384L41.3538 186.466C41.4107 186.54 41.4879 186.595 41.5758 186.625L42.6591 186.993L45.7876 188.057L45.9329 188.107C46.0228 188.138 46.1011 188.196 46.1577 188.272C46.2143 188.349 46.2465 188.441 46.25 188.536C46.2522 188.55 46.2531 188.564 46.2526 188.578L45.4705 204.79C45.4682 204.861 45.4808 204.933 45.5075 204.999L45.8827 205.875C45.9201 205.964 45.9298 206.062 45.9104 206.156C45.8911 206.251 45.8437 206.337 45.7744 206.404C45.6634 206.51 45.5366 206.632 45.4573 206.722C45.2961 206.899 45.6396 208.304 45.6925 208.508C45.6973 208.525 45.7008 208.543 45.703 208.561L45.8959 210.014C45.9071 210.099 45.8948 210.186 45.8604 210.265C45.8259 210.344 45.7706 210.412 45.7004 210.461C45.647 210.499 45.6021 210.548 45.5686 210.605C45.5351 210.661 45.5137 210.724 45.5057 210.789C45.4978 210.854 45.5034 210.921 45.5224 210.983C45.5414 211.046 45.5732 211.105 45.6158 211.154L46.0386 211.655C46.0963 211.725 46.1337 211.81 46.1469 211.901L46.2473 212.663Z" fill="#6C63FF"/>
<path d="M35.7173 182.53C35.6959 182.483 35.6745 182.436 35.6532 182.388C35.6614 182.388 35.6695 182.389 35.6777 182.39L35.7173 182.53Z" fill="#2F2E41"/>
<path d="M53.5963 211.008C53.6207 210.72 53.5817 210.43 53.4821 210.158C53.3824 209.887 53.2245 209.641 53.0195 209.437C52.8145 209.233 52.5674 209.077 52.2955 208.979C52.0236 208.881 51.7336 208.844 51.446 208.871L48.5448 202.466L46.6006 205.559L49.6537 211.166C49.7303 211.647 49.9804 212.084 50.3566 212.392C50.7329 212.701 51.2091 212.861 51.6951 212.841C52.181 212.822 52.643 212.625 52.9934 212.287C53.3438 211.949 53.5583 211.494 53.5963 211.008Z" fill="#A0616A"/>
<path d="M49.6638 204.284L49.5026 204.586L47.8036 207.767L47.5658 208.212L45.9065 205.923L40.4607 198.412L41.2349 193.702L42.6591 187.8L44.7703 187.678L46.25 188.284C46.8802 188.563 47.3972 189.048 47.716 189.66C48.0348 190.272 48.1365 190.974 48.0044 191.651L46.6939 198.372L49.6638 204.284Z" fill="#6C63FF"/>
<path d="M41.3737 173.222C41.2985 172.804 41.1306 172.409 40.8821 172.065C40.757 171.916 40.6019 171.795 40.4269 171.71C40.2519 171.625 40.0611 171.578 39.8668 171.573C39.6725 171.567 39.4791 171.602 39.2993 171.676C39.1195 171.75 38.9574 171.861 38.8234 172.002C38.9019 171.774 38.9248 171.53 38.8901 171.29C38.5233 171.466 38.131 171.583 37.7278 171.637L38.6188 170.705L34.1833 171.113C33.7255 171.155 33.2305 171.215 32.8943 171.563C32.5582 171.911 32.5395 172.655 32.9644 172.849C32.1272 172.533 31.1657 172.991 30.6134 173.759C30.061 174.527 29.8576 175.54 29.8203 176.523C29.7719 177.797 30.009 179.154 30.7856 180.092C31.2935 180.706 31.986 181.088 32.548 181.64L32.5648 181.657C33.1803 182.289 33.952 182.747 34.8014 182.984C35.6508 183.221 36.5476 183.229 37.4009 183.006C37.4968 182.98 37.5919 182.95 37.6875 182.923C38.1655 183.14 38.7608 182.844 39.0626 182.362C39.3843 181.849 39.4478 181.192 39.4615 180.566C39.4793 179.748 39.429 178.93 39.311 178.12C39.178 177.208 39.0581 176.04 39.7793 175.582C40.3407 175.225 41.0384 175.577 41.6036 175.926C41.6579 175.018 41.5805 174.108 41.3737 173.222Z" fill="#2F2E41"/>
<path d="M30.6662 196.504L27.3203 196.262L21.5134 189.142L17.2029 182.953L18.1956 180.438L22.888 173.705L22.8394 173.123L23.3586 173.03L23.3678 172.33L23.7988 172.398L24.9532 170.742L27.5955 172.859L26.1012 177.255L26.0101 178.152L25.4931 179.044L25.7459 180.269L24.7578 181.208L24.282 182.608C26.3345 183.959 28.281 185.982 30.1788 188.513L30.6662 196.504Z" fill="#6C63FF"/>
<path d="M76.2655 204.248L75.9027 207.617L76.1162 212.035L66.3461 210.872L65.4279 204.248L66.5976 204.259L76.2655 204.248Z" fill="#FFB6B6"/>
<path d="M67.7585 193.176L70.08 191.781L71.1931 190.06L74.6281 190.59L78.8271 193.409L78.786 199.803L76.1825 206.434L65.271 205.039L64.8565 202.7C64.8565 202.7 61.8384 198.64 65.0886 196.315L67.7585 193.176Z" fill="#6C63FF"/>
<path d="M53.8245 174.19C53.7145 174.425 53.6572 174.681 53.6568 174.941C53.6563 175.2 53.7127 175.456 53.8219 175.692C53.9311 175.927 54.0905 176.136 54.2889 176.302C54.4872 176.469 54.7197 176.591 54.9699 176.658L62.5286 190.942L65.5796 188.584L57.1903 175.284C57.2751 174.856 57.2001 174.411 56.9794 174.034C56.7587 173.657 56.4077 173.375 55.9928 173.24C55.5779 173.105 55.128 173.127 54.7284 173.302C54.3288 173.477 54.0071 173.793 53.8245 174.19Z" fill="#FFB6B6"/>
<path d="M66.2235 195.769C66.2235 195.769 65.5231 196.391 64.527 194.673C63.7296 193.298 59.7526 187.139 59.1895 185.004C58.8806 185.013 58.5776 184.918 58.3282 184.736C58.0788 184.553 57.8971 184.292 57.8119 183.995L62.0839 182.334C63.0125 182.799 62.7547 183.444 62.5193 183.777L64.1103 186.167L69.4023 192.115L66.7378 195.328L66.2235 195.769Z" fill="#6C63FF"/>
<path d="M81.3331 265.414H79.1971L78.1803 257.162H81.3331V265.414Z" fill="#FFB6B6"/>
<path d="M82.4604 269.121H80.9286L80.6551 267.672L79.9549 269.121H75.892C75.6972 269.121 75.5076 269.059 75.3507 268.943C75.1939 268.827 75.078 268.665 75.02 268.478C74.9621 268.292 74.9651 268.092 75.0286 267.908C75.0921 267.724 75.2128 267.564 75.373 267.454L78.6175 265.209V263.745L82.0301 263.949L82.4604 269.121Z" fill="#2F2E41"/>
<path d="M69.3345 265.414H67.1985L66.1817 257.162H69.3345V265.414Z" fill="#FFB6B6"/>
<path d="M70.4618 269.121H68.93L68.6566 267.672L67.9563 269.121H63.8934C63.6987 269.121 63.509 269.059 63.3522 268.943C63.1953 268.827 63.0794 268.665 63.0214 268.478C62.9635 268.292 62.9665 268.092 63.03 267.908C63.0935 267.724 63.2142 267.564 63.3745 267.454L66.6189 265.209V263.745L70.0315 263.949L70.4618 269.121Z" fill="#2F2E41"/>
<path d="M82.2546 258.298H82.2314L81.8206 244.881C82.0865 244.367 82.2214 243.796 82.2134 243.217C82.2053 242.639 82.0546 242.072 81.7747 241.566L81.7158 241.459L81.8683 240.751C82.0642 239.841 81.9743 238.893 81.611 238.037L81.2278 225.521C82.597 216.634 76.0719 210.838 76.0719 210.838H66.2973L65.5987 213.242L64.8516 213.878L65.1345 214.839L64.3232 215.995L64.1988 218.059C62.8115 231.596 63.0632 244.787 65.2646 257.567L65.2046 257.598C65.0908 257.661 65.0058 257.766 64.9672 257.891C64.9287 258.016 64.9395 258.151 64.9975 258.268C65.0993 258.563 65.3569 258.741 65.573 258.667L70.7351 258.487C70.849 258.423 70.934 258.318 70.9726 258.194C71.0111 258.069 71.0002 257.934 70.9422 257.817C70.8405 257.522 70.5828 257.343 70.3667 257.418L70.0158 257.596L70.7643 244.649L70.6812 242.284L70.8524 239.601L71.6436 227.533L74.6386 242.373L77.6979 258.448C77.6136 258.524 77.5543 258.624 77.5281 258.735C77.5018 258.846 77.5098 258.963 77.5509 259.069C77.592 259.175 77.6643 259.267 77.7583 259.331C77.8523 259.395 77.9636 259.429 78.0774 259.429H82.2546C82.4044 259.429 82.5479 259.369 82.6538 259.263C82.7597 259.157 82.8192 259.014 82.8192 258.864C82.8192 258.714 82.7597 258.57 82.6538 258.464C82.5479 258.358 82.4044 258.298 82.2546 258.298Z" fill="#2F2E41"/>
<path d="M92.9595 216.359C93.0626 216.121 93.1124 215.863 93.1053 215.604C93.0982 215.344 93.0343 215.089 92.9183 214.857C92.8023 214.625 92.6369 214.422 92.4338 214.261C92.2306 214.1 91.9947 213.985 91.7426 213.925L83.7709 199.868L80.79 202.315L89.5632 215.363C89.4909 215.794 89.5788 216.236 89.8104 216.607C90.042 216.977 90.4012 217.249 90.8198 217.372C91.2384 217.494 91.6875 217.459 92.0818 217.272C92.4762 217.086 92.7885 216.761 92.9595 216.359Z" fill="#FFB6B6"/>
<path d="M78.1625 193.399C78.1625 193.399 78.8445 192.756 79.8903 194.444C80.7275 195.796 86.6566 203.588 87.2817 205.706C87.5902 205.688 87.8958 205.774 88.1504 205.949C88.4051 206.125 88.5942 206.38 88.688 206.675L84.4663 208.46C83.5245 208.022 83.0858 207.203 83.3115 206.863L81.6515 204.52L75.428 197.324L77.6613 193.854L78.1625 193.399Z" fill="#6C63FF"/>
<path d="M69.5236 180.781C68.1023 183.587 69.0308 186.837 71.6682 188.546C74.5203 190.394 78.2233 189.989 79.421 186.398C80.7548 182.398 79.659 180.683 77.2764 178.633C74.4841 176.231 71.0593 177.749 69.5236 180.781Z" fill="#2F2E41"/>
<path d="M76.5201 187.031C75.7965 187.981 74.7262 188.604 73.5444 188.763C72.3625 188.923 71.1658 188.606 70.217 187.882C69.2682 187.159 68.645 186.088 68.4842 184.904C68.3234 183.721 68.6383 182.522 69.3596 181.57L69.3986 181.519C70.1357 180.595 71.206 179.998 72.3785 179.857C73.551 179.716 74.7318 180.043 75.6662 180.766C76.6006 181.489 77.2137 182.552 77.3733 183.723C77.5328 184.895 77.226 186.083 76.519 187.03L76.5201 187.031Z" fill="#FFB6B6"/>
<path d="M68.1462 180.327C68.8776 181.024 69.769 181.53 70.7418 181.8C70.9368 181.574 71.168 181.382 71.4259 181.232C71.3024 181.489 71.2178 181.763 71.1748 182.045C71.6087 182.947 73.3808 183.595 75.0744 184.258L77.3177 180.293L74.3484 178.608C71.9626 176.956 69.1539 177.661 68.1462 180.327Z" fill="#2F2E41"/>
<path d="M79.0098 178.638C79.2263 178.558 79.4594 178.534 79.6878 178.567C79.9161 178.601 80.1325 178.691 80.3172 178.829C80.6787 179.104 80.971 179.46 81.1707 179.869C81.5338 180.53 81.7948 181.242 81.9445 181.981C82.0726 182.621 82.0509 183.394 81.478 183.728C80.9999 184.006 80.3164 183.831 79.877 183.459C79.4698 183.069 79.1608 182.588 78.9757 182.055C78.7939 181.526 78.524 181.032 78.1775 180.593L78.5734 180.778C78.4483 180.397 78.39 179.998 78.4011 179.598C78.4101 179.398 78.4711 179.205 78.5778 179.037C78.6846 178.868 78.8335 178.731 79.0098 178.638Z" fill="#2F2E41"/>
<path d="M73.8742 179.158L77.0597 180.965C77.4862 181.208 77.8609 181.531 78.1625 181.918C78.4641 182.306 78.6865 182.748 78.8172 183.222C78.9479 183.695 78.9843 184.189 78.9242 184.676C78.8642 185.164 78.7089 185.634 78.4672 186.061C77.7562 187.318 76.603 188.264 75.233 188.714C73.8629 189.164 72.3745 189.087 71.0584 188.497L73.9693 185.923L70.0205 187.938L69.1774 187.46C73.4124 186.688 74.2293 183.361 73.8742 179.158Z" fill="#2F2E41"/>
<path d="M43.112 129L32.6322 146.475L43.1477 152.693L43.112 129Z" fill="#8C8C8C"/>
<path d="M53.6378 146.475L43.112 129L43.1476 152.693L53.6378 146.475Z" fill="#333333"/>
<path d="M32.6322 146.475L43.135 141.68L43.1477 152.693L32.6322 146.475Z" fill="#383838"/>
<path d="M53.6378 146.475L43.135 141.68L43.1577 152.29L53.6378 146.475Z" fill="#141414"/>
<path d="M53.6121 148.476L43.122 154.694V163.271L53.6121 148.476Z" fill="#333333"/>
<path d="M32.6316 148.476L43.122 154.694V163.271L32.6316 148.476Z" fill="#8C8C8C"/>
</g>
<path d="M369.497 237.766C382.359 226.141 386.928 210.254 379.703 202.281C372.479 194.309 356.195 197.269 343.334 208.894C330.472 220.519 325.903 236.406 333.128 244.378C340.353 252.351 356.636 249.39 369.497 237.766Z" fill="#F2F2F2"/>
<path d="M332.614 269.591C330.911 266.029 330.308 262.017 330.605 258.088C330.927 254.184 332.064 250.394 333.942 246.969C335.766 243.663 338.079 240.66 340.801 238.064C343.661 235.291 346.886 232.936 350.279 230.878C353.862 228.706 357.626 226.859 361.435 225.131C361.91 224.916 362.385 224.702 362.861 224.49C363.174 224.351 362.903 223.887 362.593 224.025C358.71 225.756 354.859 227.581 351.177 229.721C347.66 231.766 344.294 234.105 341.288 236.869C338.455 239.433 336.014 242.409 334.045 245.7C332.03 249.086 330.723 252.856 330.205 256.774C329.709 260.721 330.093 264.824 331.571 268.527C331.751 268.979 331.946 269.424 332.155 269.862C332.304 270.174 332.763 269.901 332.614 269.591Z" fill="#E6E6E6"/>
<path d="M346.611 232.728C346.429 229.644 346.655 226.549 347.281 223.527C347.905 220.504 348.918 217.58 350.294 214.833C351.068 213.291 351.956 211.811 352.948 210.408C353.157 210.114 352.68 209.831 352.474 210.123C350.69 212.652 349.247 215.418 348.182 218.346C347.115 221.274 346.43 224.334 346.146 227.448C345.986 229.203 345.957 230.968 346.062 232.728C346.083 233.089 346.632 233.092 346.611 232.728Z" fill="#E6E6E6"/>
<path d="M289.072 227.65C305.812 212.519 311.76 191.841 302.356 181.464C292.952 171.087 271.758 174.94 255.017 190.071C238.277 205.202 232.329 225.88 241.733 236.258C251.137 246.635 272.331 242.781 289.072 227.65Z" fill="#F2F2F2"/>
<path d="M240.486 268.475C238.215 263.907 237.411 258.761 237.807 253.722C238.199 248.714 239.787 243.857 242.256 239.46C244.648 235.202 247.809 231.39 251.401 228.039C255.215 224.481 259.514 221.462 264.038 218.822C268.816 216.035 273.835 213.667 278.913 211.451C279.546 211.175 280.18 210.901 280.815 210.629C281.232 210.45 280.871 209.855 280.457 210.033C275.28 212.253 270.146 214.592 265.236 217.338C260.546 219.96 256.059 222.961 252.05 226.506C248.31 229.813 244.978 233.597 242.393 237.833C239.706 242.176 237.964 247.011 237.274 252.036C236.612 257.098 237.124 262.362 239.094 267.111C239.334 267.69 239.594 268.261 239.874 268.823C240.072 269.223 240.684 268.873 240.486 268.475Z" fill="#E6E6E6"/>
<path d="M259.785 220.657C259.552 216.768 259.842 212.866 260.647 209.056C261.449 205.244 262.752 201.557 264.521 198.094C265.516 196.149 266.657 194.284 267.934 192.515C268.202 192.143 267.589 191.787 267.324 192.155C265.031 195.344 263.174 198.832 261.805 202.523C260.433 206.215 259.553 210.074 259.188 214C258.981 216.212 258.945 218.438 259.079 220.657C259.107 221.113 259.813 221.116 259.785 220.657Z" fill="#E6E6E6"/>
<path d="M321 135L314 148.253L320.985 153L321 135Z" fill="#8C8C8C"/>
<path d="M314 148.483L321 145L320.991 153L314 148.483Z" fill="#383838"/>
<path d="M321 135L330 148.253L321.02 153L321 135Z" fill="#333333"/>
<path d="M330 148.483L321 145L321.011 153L330 148.483Z" fill="#141414"/>
<path d="M314 149L321 160V153.623L314 149Z" fill="#8C8C8C"/>
<path d="M330 149L321 160V153.623L330 149Z" fill="#333333"/>
<path d="M322 170C317.706 170 313.427 167.092 309.953 161.811C306.898 157.168 305 151.396 305 146.749C305 144.549 305.44 142.371 306.294 140.339C307.148 138.307 308.401 136.461 309.979 134.906C311.558 133.35 313.432 132.117 315.494 131.275C317.557 130.433 319.768 130 322 130C324.232 130 326.443 130.433 328.506 131.275C330.568 132.117 332.442 133.35 334.021 134.906C335.599 136.461 336.852 138.307 337.706 140.339C338.56 142.371 339 144.549 339 146.749C339 151.396 337.102 157.168 334.047 161.811C330.573 167.092 326.294 170 322 170ZM322 130.394C317.599 130.399 313.38 132.124 310.268 135.19C307.155 138.256 305.405 142.413 305.4 146.749C305.4 155.775 312.837 169.606 322 169.606C331.163 169.606 338.6 155.775 338.6 146.749C338.595 142.413 336.845 138.256 333.732 135.19C330.62 132.124 326.401 130.399 322 130.394Z" fill="#3F3D56"/>
<path d="M323.039 174H319.961C319.817 174 319.675 173.966 319.545 173.902C319.415 173.837 319.301 173.743 319.211 173.626C319.121 173.509 319.058 173.373 319.025 173.227C318.992 173.081 318.992 172.929 319.023 172.783L319.617 170H323.383L323.977 172.783C324.008 172.929 324.008 173.081 323.975 173.227C323.942 173.373 323.879 173.509 323.789 173.626C323.699 173.743 323.585 173.837 323.455 173.902C323.325 173.966 323.183 174 323.039 174ZM319.925 170.4L319.398 172.87C319.379 172.958 319.38 173.049 319.399 173.136C319.419 173.224 319.457 173.305 319.511 173.375C319.565 173.446 319.633 173.502 319.711 173.541C319.789 173.58 319.874 173.6 319.961 173.6H323.039C323.126 173.6 323.211 173.58 323.289 173.541C323.367 173.502 323.435 173.446 323.489 173.375C323.543 173.305 323.581 173.224 323.601 173.136C323.62 173.049 323.621 172.958 323.602 172.87L323.075 170.4H319.925Z" fill="#3F3D56"/>
<path d="M319.192 170.667C322.747 170.487 326.792 170.391 329.562 172.988C330.717 174.072 331.446 175.524 331.402 177.12C331.354 178.857 330.463 180.484 329.358 181.789C326.98 184.598 323.492 186.354 320.147 187.77C316.592 189.275 312.888 190.45 309.472 192.265C306.473 193.859 303.678 196.011 301.866 198.91C300.975 200.315 300.384 201.886 300.129 203.526C299.895 205.17 299.98 206.844 300.377 208.457C301.175 211.763 303.139 214.685 305.757 216.856C308.405 219.053 311.614 220.516 314.939 221.391C318.885 222.428 322.998 222.663 327.064 222.687C331.264 222.711 335.467 222.507 339.664 222.741C340.685 222.797 341.704 222.881 342.72 222.998C343.095 223.041 343.092 222.458 342.72 222.415C338.527 221.933 334.301 222.044 330.09 222.091C325.961 222.137 321.797 222.123 317.719 221.401C314.204 220.778 310.757 219.611 307.775 217.631C304.919 215.735 302.591 213.077 301.413 209.85C300.262 206.699 300.274 203.211 301.815 200.19C303.358 197.166 306.049 194.877 308.973 193.207C312.347 191.28 316.063 190.074 319.647 188.605C323.033 187.217 326.496 185.562 329.097 182.939C330.302 181.724 331.334 180.245 331.775 178.581C331.991 177.803 332.043 176.989 331.928 176.19C331.813 175.391 331.534 174.624 331.108 173.937C330.255 172.643 329.038 171.627 327.607 171.013C325.881 170.242 323.965 170.02 322.088 170.001C321.122 169.992 320.157 170.035 319.192 170.084C318.816 170.103 318.813 170.686 319.192 170.667Z" fill="#3F3D56"/>
<path d="M301 266.509L298.772 267L296 257.725L299.289 257L301 266.509Z" fill="#FFB8B8"/>
<path d="M302 268.343L294.08 270L294.061 269.895C293.98 269.47 293.98 269.032 294.06 268.607C294.141 268.181 294.3 267.777 294.529 267.416C294.759 267.056 295.053 266.746 295.396 266.505C295.739 266.264 296.124 266.096 296.529 266.012L296.529 266.012L301.366 265L302 268.343Z" fill="#2F2E41"/>
<path d="M323 267L321.12 267L319 258L321.774 258L323 267Z" fill="#FFB8B8"/>
<path d="M324 270L317 270V269.905C317 269.524 317.07 269.146 317.207 268.793C317.344 268.441 317.545 268.121 317.798 267.851C318.051 267.581 318.351 267.367 318.682 267.221C319.012 267.075 319.367 267 319.725 267L324 267L324 270Z" fill="#2F2E41"/>
<path d="M317.545 241.175C317.735 240.93 317.871 240.644 317.942 240.339C318.013 240.033 318.019 239.715 317.958 239.408C317.897 239.1 317.771 238.809 317.59 238.557C317.408 238.305 317.174 238.096 316.906 237.947L312.143 219L308 220.918L313.985 238.939C313.77 239.42 313.735 239.964 313.885 240.47C314.035 240.976 314.36 241.408 314.799 241.683C315.238 241.959 315.76 242.06 316.266 241.966C316.772 241.872 317.227 241.591 317.545 241.175Z" fill="#FFB8B8"/>
<path d="M313.272 222.855L308.628 223.974C308.496 224.006 308.359 224.008 308.226 223.981C308.093 223.954 307.967 223.898 307.857 223.817C307.747 223.735 307.656 223.631 307.589 223.51C307.522 223.389 307.481 223.255 307.47 223.117L307.067 218.279C306.911 217.588 307.03 216.862 307.398 216.261C307.765 215.659 308.352 215.231 309.028 215.07C309.705 214.909 310.416 215.028 311.006 215.402C311.597 215.776 312.018 216.373 312.178 217.063L313.933 221.559C313.983 221.688 314.006 221.826 313.999 221.965C313.992 222.103 313.956 222.239 313.893 222.361C313.831 222.484 313.743 222.592 313.635 222.677C313.528 222.762 313.405 222.823 313.272 222.855Z" fill="#6C63FF"/>
<path d="M297.26 264C297.06 264 296.867 263.931 296.712 263.804C296.558 263.677 296.452 263.5 296.412 263.303L294.111 252.174C293.967 251.473 293.963 250.75 294.098 250.048C294.233 249.345 294.505 248.676 294.898 248.08L302.148 237.123V228.911L310.565 227L310.601 227.03C314.967 230.622 314.716 235.05 314.689 235.392L322.962 262.455C323.002 262.586 323.01 262.724 322.988 262.859C322.965 262.994 322.911 263.122 322.83 263.232C322.75 263.342 322.644 263.432 322.523 263.493C322.402 263.555 322.268 263.587 322.132 263.587H319.648C319.474 263.588 319.305 263.536 319.161 263.437C319.017 263.339 318.906 263.2 318.842 263.037L309.926 241.583L299.434 250.284C299.35 250.353 299.284 250.443 299.241 250.544C299.199 250.645 299.181 250.755 299.19 250.864L300.157 262.827C300.177 263.054 300.107 263.279 299.963 263.455C299.82 263.631 299.613 263.743 299.388 263.767L297.358 263.994C297.325 263.998 297.292 264 297.26 264Z" fill="#2F2E41"/>
<path d="M308 211C310.761 211 313 208.761 313 206C313 203.239 310.761 201 308 201C305.239 201 303 203.239 303 206C303 208.761 305.239 211 308 211Z" fill="#FFB8B8"/>
<path d="M303.087 230C302.918 230 302.752 229.947 302.611 229.848C302.47 229.749 302.36 229.608 302.295 229.443C300.736 225.416 300.762 220.33 301.446 217.309C301.737 216.03 302.446 214.898 303.449 214.113C304.452 213.327 305.686 212.936 306.935 213.009C307.678 213.05 308.405 213.255 309.069 213.609C309.733 213.963 310.32 214.458 310.791 215.064C311.262 215.67 311.608 216.373 311.807 217.127C312.005 217.882 312.051 218.671 311.943 219.446C311.578 222.044 311.43 225.704 311.384 227.156C311.377 227.35 311.31 227.537 311.194 227.688C311.078 227.839 310.919 227.946 310.74 227.994L303.295 229.973C303.227 229.991 303.158 230 303.087 230Z" fill="#6C63FF"/>
<path d="M302.785 201.042C302.689 201.084 302.589 201.118 302.488 201.143L299.223 210.454L300.669 212.316L298.306 215L295.443 211.967C295.212 211.722 295.062 211.404 295.015 211.061C294.969 210.718 295.029 210.368 295.186 210.064L300.3 200.15C300.1 199.78 300.01 199.354 300.044 198.928C300.077 198.503 300.232 198.098 300.487 197.768C300.743 197.438 301.087 197.199 301.473 197.081C301.86 196.964 302.272 196.974 302.653 197.111C303.034 197.247 303.367 197.504 303.607 197.846C303.848 198.189 303.984 198.601 303.999 199.028C304.013 199.454 303.905 199.876 303.688 200.235C303.471 200.595 303.156 200.876 302.785 201.042Z" fill="#FFB8B8"/>
<path d="M297.168 214.196L299.905 210.396C299.983 210.287 300.084 210.197 300.202 210.129C300.32 210.062 300.451 210.02 300.588 210.005C300.724 209.991 300.863 210.005 300.993 210.047C301.123 210.088 301.243 210.156 301.343 210.245L304.863 213.381C305.44 213.765 305.833 214.352 305.958 215.013C306.083 215.674 305.928 216.355 305.528 216.908C305.128 217.46 304.515 217.838 303.824 217.959C303.133 218.079 302.42 217.933 301.841 217.552L297.535 215.534C297.411 215.477 297.303 215.394 297.216 215.292C297.129 215.191 297.066 215.072 297.031 214.945C296.996 214.818 296.991 214.686 297.014 214.556C297.038 214.427 297.091 214.304 297.168 214.196Z" fill="#6C63FF"/>
<path d="M307.996 212C307.628 211.625 307.843 210.981 308.183 210.58C308.523 210.18 308.983 209.84 309.117 209.333C309.345 208.468 308.493 207.68 307.643 207.401C306.793 207.122 305.841 207.1 305.093 206.61C303.958 205.868 303.7 204.176 304.352 202.987C305.003 201.799 306.366 201.118 307.718 201.016C309.071 200.914 310.414 201.318 311.652 201.872C312.849 202.408 314.004 203.105 314.845 204.111C315.686 205.116 316.181 206.468 315.938 207.755C315.641 209.328 314.302 210.542 312.814 211.135C311.326 211.728 309.691 211.806 308.09 211.877L307.996 212Z" fill="#2F2E41"/>
<path d="M313.59 203.273C315.073 201.874 317.058 201.063 319.145 201.004C321.231 200.944 323.264 201.64 324.832 202.951C327.45 205.139 328.448 208.743 331.196 210.781C333.67 212.616 337.385 212.753 340 211.105C338.806 212.433 337.591 213.78 336.062 214.748C334.533 215.717 332.623 216.277 330.839 215.861C328.745 215.373 327.221 213.675 326.038 211.959C324.855 210.243 323.812 208.363 322.096 207.12C320.796 206.184 319.207 205.684 317.577 205.699C316.579 205.711 315.56 205.915 314.596 205.67C313.632 205.425 312.746 204.488 313.067 203.588L313.59 203.273Z" fill="#2F2E41"/>
<circle cx="263.5" cy="158.5" r="11.5" fill="#FEC424"/>
<path d="M263.471 151.07L263.371 151.409V161.235L263.471 161.334L268.032 158.638L263.471 151.07Z" fill="#343434"/>
<path d="M263.471 151.07L258.91 158.638L263.471 161.334V156.565V151.07Z" fill="#8C8C8C"/>
<path d="M263.471 162.198L263.415 162.267V165.767L263.471 165.931L268.035 159.503L263.471 162.198Z" fill="#3C3C3B"/>
<path d="M263.471 165.931V162.198L258.91 159.503L263.471 165.931Z" fill="#8C8C8C"/>
<path d="M263.471 161.334L268.032 158.638L263.471 156.565V161.334Z" fill="#141414"/>
<path d="M258.91 158.638L263.471 161.334V156.565L258.91 158.638Z" fill="#393939"/>
<circle cx="343.5" cy="183.5" r="6.5" fill="#FEC424"/>
<path d="M343.484 179.301L343.427 179.492V185.046L343.484 185.102L346.062 183.578L343.484 179.301Z" fill="#343434"/>
<path d="M343.484 179.301L340.906 183.578L343.484 185.102V182.406V179.301Z" fill="#8C8C8C"/>
<path d="M343.484 185.59L343.452 185.629V187.607L343.484 187.7L346.063 184.067L343.484 185.59Z" fill="#3C3C3B"/>
<path d="M343.484 187.7V185.59L340.906 184.067L343.484 187.7Z" fill="#8C8C8C"/>
<path d="M343.484 185.102L346.062 183.578L343.484 182.406V185.102Z" fill="#141414"/>
<path d="M340.906 183.578L343.484 185.102V182.406L340.906 183.578Z" fill="#393939"/>
<circle cx="223" cy="247" r="8" fill="#FEC424"/>
<path d="M222.98 241.831L222.91 242.067V248.903L222.98 248.972L226.153 247.096L222.98 241.831Z" fill="#343434"/>
<path d="M222.98 241.831L219.807 247.096L222.98 248.972V245.654V241.831Z" fill="#8C8C8C"/>
<path d="M222.98 249.573L222.941 249.62V252.055L222.98 252.169L226.155 247.698L222.98 249.573Z" fill="#3C3C3B"/>
<path d="M222.98 252.169V249.573L219.807 247.698L222.98 252.169Z" fill="#8C8C8C"/>
<path d="M222.98 248.972L226.153 247.096L222.98 245.654V248.972Z" fill="#141414"/>
<path d="M219.807 247.096L222.98 248.972V245.654L219.807 247.096Z" fill="#393939"/>
<rect x="78" y="85" width="237" height="34" rx="5" fill="#CEDCFF"/>
<path d="M109.003 98.2727V107H107.793L103.357 100.599H103.276V107H101.959V98.2727H103.178L107.618 104.682H107.699V98.2727H109.003ZM113.578 107.132C112.965 107.132 112.429 106.991 111.972 106.71C111.515 106.429 111.159 106.036 110.907 105.53C110.654 105.024 110.527 104.433 110.527 103.757C110.527 103.078 110.654 102.484 110.907 101.976C111.159 101.467 111.515 101.072 111.972 100.791C112.429 100.51 112.965 100.369 113.578 100.369C114.192 100.369 114.728 100.51 115.185 100.791C115.642 101.072 115.998 101.467 116.25 101.976C116.503 102.484 116.63 103.078 116.63 103.757C116.63 104.433 116.503 105.024 116.25 105.53C115.998 106.036 115.642 106.429 115.185 106.71C114.728 106.991 114.192 107.132 113.578 107.132ZM113.583 106.062C113.98 106.062 114.31 105.957 114.571 105.747C114.833 105.537 115.026 105.257 115.151 104.908C115.279 104.558 115.343 104.173 115.343 103.753C115.343 103.335 115.279 102.952 115.151 102.602C115.026 102.25 114.833 101.967 114.571 101.754C114.31 101.541 113.98 101.435 113.583 101.435C113.182 101.435 112.85 101.541 112.586 101.754C112.324 101.967 112.13 102.25 112.002 102.602C111.877 102.952 111.814 103.335 111.814 103.753C111.814 104.173 111.877 104.558 112.002 104.908C112.13 105.257 112.324 105.537 112.586 105.747C112.85 105.957 113.182 106.062 113.583 106.062ZM119.272 107L117.346 100.455H118.662L119.945 105.261H120.009L121.296 100.455H122.613L123.891 105.24H123.955L125.229 100.455H126.546L124.624 107H123.324L121.995 102.274H121.897L120.567 107H119.272ZM130.931 109.455V100.455H132.175V101.516H132.282C132.355 101.379 132.462 101.222 132.601 101.043C132.74 100.864 132.934 100.707 133.181 100.574C133.428 100.438 133.755 100.369 134.161 100.369C134.689 100.369 135.161 100.503 135.576 100.77C135.99 101.037 136.316 101.422 136.551 101.925C136.79 102.428 136.909 103.033 136.909 103.74C136.909 104.447 136.792 105.054 136.556 105.56C136.32 106.062 135.996 106.45 135.584 106.723C135.172 106.993 134.702 107.128 134.174 107.128C133.776 107.128 133.451 107.061 133.198 106.928C132.948 106.794 132.752 106.638 132.61 106.459C132.468 106.28 132.358 106.121 132.282 105.982H132.205V109.455H130.931ZM132.179 103.727C132.179 104.187 132.246 104.591 132.38 104.938C132.513 105.284 132.706 105.555 132.959 105.751C133.212 105.945 133.522 106.041 133.888 106.041C134.269 106.041 134.587 105.94 134.843 105.739C135.098 105.534 135.292 105.257 135.422 104.908C135.556 104.558 135.623 104.165 135.623 103.727C135.623 103.295 135.557 102.908 135.426 102.564C135.299 102.22 135.105 101.949 134.847 101.75C134.591 101.551 134.272 101.452 133.888 101.452C133.519 101.452 133.206 101.547 132.951 101.737C132.698 101.928 132.506 102.193 132.375 102.534C132.245 102.875 132.179 103.273 132.179 103.727ZM140.242 107.145C139.827 107.145 139.452 107.068 139.117 106.915C138.782 106.759 138.516 106.533 138.32 106.237C138.127 105.942 138.03 105.58 138.03 105.151C138.03 104.781 138.101 104.477 138.243 104.239C138.385 104 138.577 103.811 138.819 103.672C139.06 103.533 139.33 103.428 139.628 103.357C139.926 103.286 140.23 103.232 140.54 103.195C140.932 103.149 141.25 103.112 141.495 103.084C141.739 103.053 141.917 103.003 142.027 102.935C142.138 102.866 142.194 102.756 142.194 102.602V102.572C142.194 102.2 142.088 101.912 141.878 101.707C141.671 101.503 141.361 101.401 140.949 101.401C140.52 101.401 140.182 101.496 139.935 101.686C139.691 101.874 139.522 102.082 139.428 102.312L138.23 102.04C138.373 101.642 138.58 101.321 138.853 101.077C139.128 100.83 139.445 100.651 139.803 100.54C140.161 100.426 140.537 100.369 140.932 100.369C141.194 100.369 141.471 100.401 141.763 100.463C142.059 100.523 142.334 100.634 142.59 100.795C142.848 100.957 143.06 101.189 143.225 101.49C143.39 101.788 143.472 102.176 143.472 102.653V107H142.228V106.105H142.176C142.094 106.27 141.971 106.432 141.806 106.591C141.641 106.75 141.429 106.882 141.171 106.987C140.912 107.092 140.603 107.145 140.242 107.145ZM140.519 106.122C140.871 106.122 141.172 106.053 141.422 105.913C141.675 105.774 141.867 105.592 141.998 105.368C142.131 105.141 142.198 104.898 142.198 104.639V103.795C142.152 103.841 142.064 103.884 141.934 103.923C141.806 103.96 141.659 103.993 141.495 104.021C141.33 104.047 141.169 104.071 141.013 104.094C140.857 104.114 140.726 104.131 140.621 104.145C140.374 104.176 140.148 104.229 139.944 104.303C139.742 104.376 139.58 104.483 139.458 104.622C139.338 104.759 139.279 104.94 139.279 105.168C139.279 105.483 139.395 105.722 139.628 105.884C139.861 106.043 140.158 106.122 140.519 106.122ZM145.74 109.455C145.55 109.455 145.376 109.439 145.22 109.408C145.064 109.379 144.947 109.348 144.871 109.314L145.178 108.27C145.411 108.332 145.618 108.359 145.8 108.351C145.982 108.342 146.142 108.274 146.281 108.146C146.423 108.018 146.548 107.81 146.656 107.52L146.814 107.085L144.419 100.455H145.783L147.44 105.534H147.509L149.166 100.455H150.534L147.837 107.874C147.712 108.214 147.553 108.503 147.359 108.739C147.166 108.977 146.936 109.156 146.669 109.276C146.402 109.395 146.092 109.455 145.74 109.455ZM158.022 100.455V101.477H154.324V100.455H158.022ZM155.338 107V99.696C155.338 99.2869 155.427 98.9474 155.606 98.6776C155.785 98.4048 156.022 98.2017 156.318 98.0682C156.613 97.9318 156.934 97.8636 157.281 97.8636C157.537 97.8636 157.755 97.8849 157.937 97.9276C158.119 97.9673 158.254 98.0043 158.342 98.0384L158.044 99.0696C157.984 99.0526 157.907 99.0327 157.814 99.0099C157.72 98.9844 157.606 98.9716 157.473 98.9716C157.163 98.9716 156.941 99.0483 156.808 99.2017C156.677 99.3551 156.612 99.5767 156.612 99.8665V107H155.338ZM161.836 107.132C161.223 107.132 160.687 106.991 160.23 106.71C159.772 106.429 159.417 106.036 159.164 105.53C158.912 105.024 158.785 104.433 158.785 103.757C158.785 103.078 158.912 102.484 159.164 101.976C159.417 101.467 159.772 101.072 160.23 100.791C160.687 100.51 161.223 100.369 161.836 100.369C162.45 100.369 162.985 100.51 163.443 100.791C163.9 101.072 164.255 101.467 164.508 101.976C164.761 102.484 164.887 103.078 164.887 103.757C164.887 104.433 164.761 105.024 164.508 105.53C164.255 106.036 163.9 106.429 163.443 106.71C162.985 106.991 162.45 107.132 161.836 107.132ZM161.841 106.062C162.238 106.062 162.568 105.957 162.829 105.747C163.091 105.537 163.284 105.257 163.409 104.908C163.537 104.558 163.6 104.173 163.6 103.753C163.6 103.335 163.537 102.952 163.409 102.602C163.284 102.25 163.091 101.967 162.829 101.754C162.568 101.541 162.238 101.435 161.841 101.435C161.44 101.435 161.108 101.541 160.843 101.754C160.582 101.967 160.387 102.25 160.26 102.602C160.135 102.952 160.072 103.335 160.072 103.753C160.072 104.173 160.135 104.558 160.26 104.908C160.387 105.257 160.582 105.537 160.843 105.747C161.108 105.957 161.44 106.062 161.841 106.062ZM166.31 107V100.455H167.541V101.494H167.609C167.729 101.142 167.939 100.865 168.24 100.663C168.544 100.459 168.888 100.357 169.271 100.357C169.351 100.357 169.445 100.359 169.553 100.365C169.663 100.371 169.75 100.378 169.812 100.386V101.605C169.761 101.591 169.67 101.575 169.54 101.558C169.409 101.538 169.278 101.528 169.148 101.528C168.847 101.528 168.578 101.592 168.342 101.72C168.109 101.845 167.925 102.02 167.788 102.244C167.652 102.466 167.584 102.719 167.584 103.003V107H166.31ZM175.996 107.145C175.581 107.145 175.206 107.068 174.871 106.915C174.536 106.759 174.27 106.533 174.074 106.237C173.881 105.942 173.784 105.58 173.784 105.151C173.784 104.781 173.855 104.477 173.997 104.239C174.139 104 174.331 103.811 174.572 103.672C174.814 103.533 175.084 103.428 175.382 103.357C175.68 103.286 175.984 103.232 176.294 103.195C176.686 103.149 177.004 103.112 177.249 103.084C177.493 103.053 177.67 103.003 177.781 102.935C177.892 102.866 177.947 102.756 177.947 102.602V102.572C177.947 102.2 177.842 101.912 177.632 101.707C177.425 101.503 177.115 101.401 176.703 101.401C176.274 101.401 175.936 101.496 175.689 101.686C175.445 101.874 175.276 102.082 175.182 102.312L173.984 102.04C174.126 101.642 174.334 101.321 174.607 101.077C174.882 100.83 175.199 100.651 175.557 100.54C175.915 100.426 176.291 100.369 176.686 100.369C176.947 100.369 177.224 100.401 177.517 100.463C177.813 100.523 178.088 100.634 178.344 100.795C178.602 100.957 178.814 101.189 178.979 101.49C179.143 101.788 179.226 102.176 179.226 102.653V107H177.982V106.105H177.93C177.848 106.27 177.724 106.432 177.56 106.591C177.395 106.75 177.183 106.882 176.925 106.987C176.666 107.092 176.357 107.145 175.996 107.145ZM176.273 106.122C176.625 106.122 176.926 106.053 177.176 105.913C177.429 105.774 177.621 105.592 177.751 105.368C177.885 105.141 177.952 104.898 177.952 104.639V103.795C177.906 103.841 177.818 103.884 177.688 103.923C177.56 103.96 177.413 103.993 177.249 104.021C177.084 104.047 176.923 104.071 176.767 104.094C176.611 104.114 176.48 104.131 176.375 104.145C176.128 104.176 175.902 104.229 175.697 104.303C175.496 104.376 175.334 104.483 175.212 104.622C175.092 104.759 175.033 104.94 175.033 105.168C175.033 105.483 175.149 105.722 175.382 105.884C175.615 106.043 175.912 106.122 176.273 106.122ZM182.197 103.114V107H180.923V100.455H182.146V101.52H182.227C182.377 101.173 182.613 100.895 182.934 100.685C183.258 100.474 183.666 100.369 184.157 100.369C184.603 100.369 184.994 100.463 185.329 100.651C185.664 100.835 185.924 101.111 186.109 101.477C186.294 101.844 186.386 102.297 186.386 102.837V107H185.112V102.99C185.112 102.516 184.988 102.145 184.741 101.878C184.494 101.608 184.154 101.473 183.723 101.473C183.427 101.473 183.164 101.537 182.934 101.665C182.707 101.793 182.527 101.98 182.393 102.227C182.262 102.472 182.197 102.767 182.197 103.114ZM188.666 109.455C188.475 109.455 188.302 109.439 188.146 109.408C187.99 109.379 187.873 109.348 187.797 109.314L188.103 108.27C188.336 108.332 188.544 108.359 188.725 108.351C188.907 108.342 189.068 108.274 189.207 108.146C189.349 108.018 189.474 107.81 189.582 107.52L189.74 107.085L187.345 100.455H188.708L190.366 105.534H190.434L192.092 100.455H193.46L190.762 107.874C190.637 108.214 190.478 108.503 190.285 108.739C190.092 108.977 189.862 109.156 189.595 109.276C189.328 109.395 189.018 109.455 188.666 109.455ZM197.713 100.455V101.477H194.137V100.455H197.713ZM195.096 98.8864H196.37V105.078C196.37 105.325 196.407 105.511 196.481 105.636C196.555 105.759 196.65 105.842 196.767 105.888C196.886 105.93 197.015 105.952 197.154 105.952C197.257 105.952 197.346 105.945 197.423 105.93C197.5 105.916 197.559 105.905 197.602 105.896L197.832 106.949C197.758 106.977 197.653 107.006 197.517 107.034C197.38 107.065 197.21 107.082 197.005 107.085C196.67 107.091 196.358 107.031 196.068 106.906C195.778 106.781 195.544 106.588 195.365 106.327C195.186 106.065 195.096 105.737 195.096 105.342V98.8864ZM200.537 103.114V107H199.263V98.2727H200.52V101.52H200.601C200.754 101.168 200.989 100.888 201.304 100.68C201.619 100.473 202.031 100.369 202.54 100.369C202.989 100.369 203.381 100.462 203.716 100.646C204.054 100.831 204.315 101.107 204.5 101.473C204.688 101.837 204.781 102.291 204.781 102.837V107H203.507V102.99C203.507 102.51 203.384 102.138 203.136 101.874C202.889 101.607 202.545 101.473 202.105 101.473C201.804 101.473 201.534 101.537 201.295 101.665C201.06 101.793 200.874 101.98 200.737 102.227C200.604 102.472 200.537 102.767 200.537 103.114ZM206.482 107V100.455H207.756V107H206.482ZM207.125 99.4446C206.903 99.4446 206.713 99.3707 206.554 99.223C206.398 99.0724 206.32 98.8935 206.32 98.6861C206.32 98.4759 206.398 98.2969 206.554 98.1491C206.713 97.9986 206.903 97.9233 207.125 97.9233C207.347 97.9233 207.536 97.9986 207.692 98.1491C207.851 98.2969 207.93 98.4759 207.93 98.6861C207.93 98.8935 207.851 99.0724 207.692 99.223C207.536 99.3707 207.347 99.4446 207.125 99.4446ZM210.744 103.114V107H209.47V100.455H210.693V101.52H210.774C210.924 101.173 211.16 100.895 211.481 100.685C211.805 100.474 212.213 100.369 212.704 100.369C213.15 100.369 213.541 100.463 213.876 100.651C214.211 100.835 214.471 101.111 214.656 101.477C214.841 101.844 214.933 102.297 214.933 102.837V107H213.659V102.99C213.659 102.516 213.535 102.145 213.288 101.878C213.041 101.608 212.701 101.473 212.27 101.473C211.974 101.473 211.711 101.537 211.481 101.665C211.254 101.793 211.074 101.98 210.94 102.227C210.809 102.472 210.744 102.767 210.744 103.114ZM219.386 109.591C218.866 109.591 218.419 109.523 218.044 109.386C217.672 109.25 217.368 109.07 217.132 108.845C216.896 108.621 216.72 108.375 216.603 108.108L217.699 107.656C217.775 107.781 217.877 107.913 218.005 108.053C218.136 108.195 218.312 108.315 218.534 108.415C218.758 108.514 219.047 108.564 219.399 108.564C219.882 108.564 220.281 108.446 220.596 108.21C220.912 107.977 221.069 107.605 221.069 107.094V105.807H220.988C220.912 105.946 220.801 106.101 220.656 106.271C220.514 106.442 220.318 106.589 220.068 106.714C219.818 106.839 219.493 106.902 219.092 106.902C218.575 106.902 218.109 106.781 217.694 106.54C217.282 106.295 216.956 105.936 216.714 105.462C216.475 104.984 216.356 104.398 216.356 103.702C216.356 103.006 216.474 102.409 216.71 101.912C216.949 101.415 217.275 101.034 217.69 100.77C218.105 100.503 218.575 100.369 219.1 100.369C219.507 100.369 219.835 100.438 220.085 100.574C220.335 100.707 220.529 100.864 220.669 101.043C220.811 101.222 220.92 101.379 220.997 101.516H221.091V100.455H222.339V107.145C222.339 107.707 222.208 108.169 221.947 108.53C221.686 108.891 221.332 109.158 220.886 109.331C220.443 109.504 219.943 109.591 219.386 109.591ZM219.373 105.845C219.74 105.845 220.049 105.76 220.302 105.589C220.558 105.416 220.751 105.169 220.882 104.848C221.015 104.524 221.082 104.136 221.082 103.685C221.082 103.244 221.017 102.857 220.886 102.521C220.755 102.186 220.564 101.925 220.311 101.737C220.058 101.547 219.745 101.452 219.373 101.452C218.99 101.452 218.67 101.551 218.414 101.75C218.159 101.946 217.966 102.213 217.835 102.551C217.707 102.889 217.643 103.267 217.643 103.685C217.643 104.114 217.708 104.49 217.839 104.814C217.97 105.138 218.163 105.391 218.419 105.572C218.677 105.754 218.995 105.845 219.373 105.845ZM228.643 107L226.717 100.455H228.033L229.316 105.261H229.38L230.667 100.455H231.984L233.262 105.24H233.326L234.6 100.455H235.917L233.995 107H232.695L231.366 102.274H231.268L229.938 107H228.643ZM237.126 107V100.455H238.4V107H237.126ZM237.77 99.4446C237.548 99.4446 237.358 99.3707 237.199 99.223C237.042 99.0724 236.964 98.8935 236.964 98.6861C236.964 98.4759 237.042 98.2969 237.199 98.1491C237.358 97.9986 237.548 97.9233 237.77 97.9233C237.991 97.9233 238.18 97.9986 238.336 98.1491C238.495 98.2969 238.575 98.4759 238.575 98.6861C238.575 98.8935 238.495 99.0724 238.336 99.223C238.18 99.3707 237.991 99.4446 237.77 99.4446ZM243.17 100.455V101.477H239.594V100.455H243.17ZM240.553 98.8864H241.827V105.078C241.827 105.325 241.864 105.511 241.938 105.636C242.012 105.759 242.107 105.842 242.224 105.888C242.343 105.93 242.472 105.952 242.612 105.952C242.714 105.952 242.803 105.945 242.88 105.93C242.957 105.916 243.016 105.905 243.059 105.896L243.289 106.949C243.215 106.977 243.11 107.006 242.974 107.034C242.837 107.065 242.667 107.082 242.462 107.085C242.127 107.091 241.815 107.031 241.525 106.906C241.235 106.781 241.001 106.588 240.822 106.327C240.643 106.065 240.553 105.737 240.553 105.342V98.8864ZM245.994 103.114V107H244.72V98.2727H245.977V101.52H246.058C246.211 101.168 246.446 100.888 246.761 100.68C247.076 100.473 247.488 100.369 247.997 100.369C248.446 100.369 248.838 100.462 249.173 100.646C249.511 100.831 249.772 101.107 249.957 101.473C250.145 101.837 250.238 102.291 250.238 102.837V107H248.964V102.99C248.964 102.51 248.841 102.138 248.593 101.874C248.346 101.607 248.002 101.473 247.562 101.473C247.261 101.473 246.991 101.537 246.752 101.665C246.517 101.793 246.331 101.98 246.194 102.227C246.061 102.472 245.994 102.767 245.994 103.114ZM257.871 107.132C257.238 107.132 256.692 106.989 256.235 106.702C255.781 106.412 255.431 106.013 255.187 105.504C254.942 104.996 254.82 104.413 254.82 103.757C254.82 103.092 254.945 102.506 255.195 101.997C255.445 101.486 255.798 101.087 256.252 100.8C256.707 100.513 257.242 100.369 257.859 100.369C258.356 100.369 258.799 100.462 259.188 100.646C259.577 100.828 259.891 101.084 260.13 101.413C260.371 101.743 260.515 102.128 260.56 102.568H259.32C259.252 102.261 259.096 101.997 258.852 101.776C258.61 101.554 258.286 101.443 257.88 101.443C257.525 101.443 257.214 101.537 256.947 101.724C256.683 101.909 256.477 102.173 256.329 102.517C256.181 102.858 256.107 103.261 256.107 103.727C256.107 104.205 256.18 104.616 256.325 104.963C256.469 105.31 256.674 105.578 256.938 105.768C257.205 105.959 257.519 106.054 257.88 106.054C258.121 106.054 258.34 106.01 258.536 105.922C258.735 105.831 258.901 105.702 259.035 105.534C259.171 105.366 259.266 105.165 259.32 104.929H260.56C260.515 105.352 260.377 105.73 260.147 106.062C259.917 106.395 259.609 106.656 259.222 106.847C258.839 107.037 258.388 107.132 257.871 107.132ZM261.923 107V100.455H263.154V101.494H263.223C263.342 101.142 263.552 100.865 263.853 100.663C264.157 100.459 264.501 100.357 264.885 100.357C264.964 100.357 265.058 100.359 265.166 100.365C265.277 100.371 265.363 100.378 265.426 100.386V101.605C265.375 101.591 265.284 101.575 265.153 101.558C265.022 101.538 264.892 101.528 264.761 101.528C264.46 101.528 264.191 101.592 263.956 101.72C263.723 101.845 263.538 102.02 263.402 102.244C263.265 102.466 263.197 102.719 263.197 103.003V107H261.923ZM267.533 109.455C267.343 109.455 267.169 109.439 267.013 109.408C266.857 109.379 266.74 109.348 266.664 109.314L266.971 108.27C267.203 108.332 267.411 108.359 267.593 108.351C267.775 108.342 267.935 108.274 268.074 108.146C268.216 108.018 268.341 107.81 268.449 107.52L268.607 107.085L266.212 100.455H267.576L269.233 105.534H269.301L270.959 100.455H272.327L269.63 107.874C269.505 108.214 269.346 108.503 269.152 108.739C268.959 108.977 268.729 109.156 268.462 109.276C268.195 109.395 267.885 109.455 267.533 109.455ZM273.525 109.455V100.455H274.769V101.516H274.875C274.949 101.379 275.056 101.222 275.195 101.043C275.334 100.864 275.527 100.707 275.775 100.574C276.022 100.438 276.348 100.369 276.755 100.369C277.283 100.369 277.755 100.503 278.169 100.77C278.584 101.037 278.909 101.422 279.145 101.925C279.384 102.428 279.503 103.033 279.503 103.74C279.503 104.447 279.385 105.054 279.15 105.56C278.914 106.062 278.59 106.45 278.178 106.723C277.766 106.993 277.296 107.128 276.767 107.128C276.37 107.128 276.044 107.061 275.792 106.928C275.542 106.794 275.346 106.638 275.203 106.459C275.061 106.28 274.952 106.121 274.875 105.982H274.799V109.455H273.525ZM274.773 103.727C274.773 104.187 274.84 104.591 274.973 104.938C275.107 105.284 275.3 105.555 275.553 105.751C275.806 105.945 276.115 106.041 276.482 106.041C276.863 106.041 277.181 105.94 277.436 105.739C277.692 105.534 277.885 105.257 278.016 104.908C278.15 104.558 278.216 104.165 278.216 103.727C278.216 103.295 278.151 102.908 278.02 102.564C277.892 102.22 277.699 101.949 277.441 101.75C277.185 101.551 276.865 101.452 276.482 101.452C276.113 101.452 275.8 101.547 275.544 101.737C275.292 101.928 275.1 102.193 274.969 102.534C274.838 102.875 274.773 103.273 274.773 103.727ZM283.986 100.455V101.477H280.411V100.455H283.986ZM281.37 98.8864H282.644V105.078C282.644 105.325 282.681 105.511 282.755 105.636C282.828 105.759 282.924 105.842 283.04 105.888C283.159 105.93 283.289 105.952 283.428 105.952C283.53 105.952 283.62 105.945 283.696 105.93C283.773 105.916 283.833 105.905 283.875 105.896L284.105 106.949C284.032 106.977 283.926 107.006 283.79 107.034C283.654 107.065 283.483 107.082 283.279 107.085C282.944 107.091 282.631 107.031 282.341 106.906C282.051 106.781 281.817 106.588 281.638 106.327C281.459 106.065 281.37 105.737 281.37 105.342V98.8864ZM288.082 107.132C287.469 107.132 286.933 106.991 286.476 106.71C286.018 106.429 285.663 106.036 285.411 105.53C285.158 105.024 285.031 104.433 285.031 103.757C285.031 103.078 285.158 102.484 285.411 101.976C285.663 101.467 286.018 101.072 286.476 100.791C286.933 100.51 287.469 100.369 288.082 100.369C288.696 100.369 289.232 100.51 289.689 100.791C290.146 101.072 290.501 101.467 290.754 101.976C291.007 102.484 291.134 103.078 291.134 103.757C291.134 104.433 291.007 105.024 290.754 105.53C290.501 106.036 290.146 106.429 289.689 106.71C289.232 106.991 288.696 107.132 288.082 107.132ZM288.087 106.062C288.484 106.062 288.814 105.957 289.075 105.747C289.337 105.537 289.53 105.257 289.655 104.908C289.783 104.558 289.847 104.173 289.847 103.753C289.847 103.335 289.783 102.952 289.655 102.602C289.53 102.25 289.337 101.967 289.075 101.754C288.814 101.541 288.484 101.435 288.087 101.435C287.686 101.435 287.354 101.541 287.089 101.754C286.828 101.967 286.634 102.25 286.506 102.602C286.381 102.952 286.318 103.335 286.318 103.753C286.318 104.173 286.381 104.558 286.506 104.908C286.634 105.257 286.828 105.537 287.089 105.747C287.354 105.957 287.686 106.062 288.087 106.062Z" fill="black"/>
<defs>
<clipPath id="clip0_1_219">
<rect width="112" height="141" fill="white" transform="translate(0 129)"/>
</clipPath>
</defs>
</svg>
