<svg width="600" height="200" viewBox="0 0 600 200" fill="none" xmlns="http://www.w3.org/2000/svg">
<rect width="600" height="200" fill="#000824"/>
<path fill-rule="evenodd" clip-rule="evenodd" d="M0 13L25 40.8817C50 68.2828 100 124.046 150 124.046C200 124.046 268 100 318 100C368 100 400 124.046 450 151.447C500 179.329 550 179.329 575 179.329H600V200H575C550 200 500 200 450 200C400 200 350 200 300 200C250 200 200 200 150 200C100 200 50 200 25 200H0V13Z" fill="#1B1657"/>
<path d="M577.755 170.834C589.369 160.336 593.496 145.989 586.972 138.789C580.447 131.59 565.743 134.263 554.128 144.761C542.513 155.259 538.387 169.606 544.911 176.806C551.436 184.005 566.14 181.332 577.755 170.834Z" fill="#F2F2F2"/>
<path d="M544.447 199.574C542.91 196.358 542.365 192.734 542.633 189.186C542.923 185.661 543.951 182.238 545.647 179.145C547.293 176.16 549.382 173.448 551.841 171.103C554.423 168.599 557.335 166.473 560.399 164.614C563.635 162.652 567.035 160.984 570.474 159.424C570.903 159.23 571.332 159.037 571.762 158.845C572.044 158.72 571.8 158.301 571.52 158.426C568.013 159.989 564.536 161.636 561.211 163.569C558.034 165.416 554.995 167.528 552.28 170.024C549.721 172.34 547.517 175.027 545.739 177.999C543.919 181.057 542.739 184.461 542.272 188C541.824 191.563 542.17 195.269 543.505 198.613C543.668 199.021 543.844 199.423 544.033 199.819C544.167 200.1 544.582 199.854 544.447 199.574Z" fill="#E6E6E6"/>
<path d="M557.087 166.284C556.923 163.499 557.127 160.704 557.692 157.976C558.256 155.246 559.171 152.605 560.413 150.124C561.113 148.731 561.914 147.396 562.81 146.128C562.999 145.862 562.568 145.607 562.382 145.871C560.771 148.155 559.468 150.653 558.506 153.297C557.542 155.941 556.924 158.705 556.667 161.516C556.522 163.101 556.497 164.695 556.591 166.284C556.61 166.611 557.107 166.613 557.087 166.284Z" fill="#E6E6E6"/>
<path d="M505.126 161.699C520.244 148.035 525.615 129.361 517.122 119.99C508.63 110.619 489.491 114.099 474.373 127.763C459.255 141.427 453.884 160.101 462.376 169.472C470.869 178.843 490.008 175.363 505.126 161.699Z" fill="#F2F2F2"/>
<path d="M461.25 198.566C459.2 194.441 458.474 189.793 458.831 185.243C459.185 180.721 460.619 176.335 462.849 172.364C465.009 168.519 467.863 165.077 471.108 162.05C474.551 158.837 478.434 156.11 482.519 153.727C486.834 151.21 491.367 149.071 495.953 147.07C496.524 146.821 497.096 146.573 497.67 146.328C498.046 146.166 497.721 145.629 497.347 145.789C492.671 147.794 488.035 149.907 483.601 152.386C479.366 154.755 475.314 157.464 471.693 160.666C468.316 163.652 465.307 167.069 462.973 170.895C460.546 174.817 458.973 179.182 458.35 183.721C457.752 188.292 458.214 193.046 459.993 197.334C460.21 197.857 460.445 198.373 460.697 198.881C460.877 199.242 461.429 198.926 461.25 198.566Z" fill="#E6E6E6"/>
<path d="M478.679 155.384C478.468 151.872 478.73 148.348 479.457 144.908C480.181 141.465 481.358 138.136 482.955 135.008C483.854 133.252 484.884 131.567 486.037 129.97C486.279 129.634 485.726 129.312 485.486 129.645C483.415 132.525 481.739 135.674 480.503 139.008C479.264 142.341 478.469 145.827 478.139 149.372C477.953 151.37 477.92 153.38 478.041 155.384C478.066 155.795 478.704 155.798 478.679 155.384Z" fill="#E6E6E6"/>
<path d="M533.959 78.0305L527.638 89.9988L533.946 94.2856L533.959 78.0305Z" fill="#8C8C8C"/>
<path d="M527.638 90.2064L533.959 87.0611L533.951 94.2856L527.638 90.2064Z" fill="#383838"/>
<path d="M533.959 78.0305L542.087 89.9988L533.977 94.2856L533.959 78.0305Z" fill="#333333"/>
<path d="M542.087 90.2064L533.959 87.0611L533.969 94.2856L542.087 90.2064Z" fill="#141414"/>
<path d="M527.638 90.6734L533.959 100.607V94.8483L527.638 90.6734Z" fill="#8C8C8C"/>
<path d="M542.087 90.6734L533.959 100.607V94.8483L542.087 90.6734Z" fill="#333333"/>
<path d="M534.862 109.638C530.984 109.638 527.12 107.011 523.983 102.242C521.224 98.0492 519.51 92.8372 519.51 88.6404C519.51 86.6541 519.907 84.6873 520.679 82.8522C521.45 81.0172 522.581 79.3498 524.007 77.9453C525.432 76.5408 527.125 75.4267 528.987 74.6666C530.85 73.9065 532.846 73.5153 534.862 73.5153C536.878 73.5153 538.875 73.9065 540.737 74.6666C542.6 75.4267 544.292 76.5408 545.718 77.9453C547.143 79.3498 548.274 81.0172 549.046 82.8522C549.817 84.6873 550.214 86.6541 550.214 88.6404C550.214 92.8372 548.5 98.0492 545.742 102.242C542.604 107.011 538.74 109.638 534.862 109.638ZM534.862 73.8711C530.888 73.8756 527.077 75.433 524.267 78.2018C521.457 80.9706 519.876 84.7247 519.871 88.6404C519.871 96.7915 526.587 109.282 534.862 109.282C543.137 109.282 549.853 96.7915 549.853 88.6404C549.848 84.7247 548.268 80.9706 545.457 78.2018C542.647 75.433 538.837 73.8756 534.862 73.8711Z" fill="#3F3D56"/>
<path d="M535.801 113.25H533.02C532.89 113.25 532.762 113.219 532.645 113.161C532.528 113.102 532.425 113.017 532.344 112.912C532.262 112.806 532.205 112.683 532.176 112.551C532.146 112.42 532.145 112.283 532.174 112.151L532.71 109.638H536.111L536.648 112.151C536.676 112.283 536.675 112.42 536.646 112.551C536.616 112.683 536.559 112.806 536.477 112.912C536.396 113.017 536.293 113.102 536.176 113.161C536.059 113.219 535.931 113.25 535.801 113.25ZM532.988 109.999L532.512 112.229C532.495 112.308 532.496 112.391 532.513 112.47C532.531 112.549 532.566 112.622 532.614 112.686C532.663 112.749 532.725 112.8 532.795 112.835C532.866 112.87 532.942 112.889 533.02 112.889H535.801C535.879 112.889 535.956 112.87 536.026 112.835C536.096 112.8 536.158 112.749 536.207 112.686C536.256 112.622 536.29 112.549 536.308 112.47C536.325 112.391 536.326 112.308 536.309 112.229L535.833 109.999H532.988Z" fill="#3F3D56"/>
<path d="M532.327 110.24C535.537 110.077 539.189 109.99 541.691 112.336C542.734 113.315 543.393 114.626 543.353 116.067C543.31 117.636 542.505 119.105 541.507 120.284C539.359 122.82 536.209 124.407 533.189 125.685C529.978 127.044 526.634 128.105 523.549 129.744C520.841 131.184 518.316 133.127 516.68 135.745C515.875 137.014 515.341 138.432 515.112 139.914C514.901 141.398 514.976 142.909 515.335 144.366C516.056 147.352 517.83 149.991 520.193 151.951C522.586 153.936 525.483 155.257 528.486 156.046C532.05 156.983 535.763 157.196 539.435 157.217C543.228 157.239 547.024 157.055 550.814 157.265C551.736 157.317 552.656 157.392 553.573 157.498C553.912 157.536 553.909 157.01 553.573 156.971C549.787 156.536 545.971 156.636 542.168 156.679C538.439 156.72 534.679 156.708 530.997 156.055C527.822 155.493 524.709 154.439 522.016 152.651C519.437 150.939 517.335 148.538 516.271 145.625C515.232 142.779 515.243 139.629 516.634 136.901C518.027 134.17 520.457 132.103 523.098 130.595C526.145 128.855 529.501 127.766 532.738 126.439C535.795 125.186 538.923 123.691 541.272 121.322C542.359 120.225 543.291 118.889 543.69 117.387C543.884 116.684 543.931 115.949 543.828 115.228C543.724 114.506 543.472 113.814 543.087 113.193C542.317 112.025 541.218 111.107 539.926 110.552C538.367 109.856 536.637 109.656 534.942 109.639C534.069 109.63 533.198 109.669 532.327 109.713C531.986 109.731 531.984 110.257 532.327 110.24Z" fill="#3F3D56"/>
<path d="M515.898 196.791L513.886 197.234L511.383 188.858L514.353 188.204L515.898 196.791Z" fill="#FFB8B8"/>
<path d="M516.801 198.447L509.649 199.943L509.631 199.848C509.558 199.464 509.558 199.069 509.631 198.685C509.704 198.301 509.847 197.936 510.054 197.61C510.261 197.284 510.527 197.005 510.837 196.787C511.147 196.57 511.495 196.418 511.86 196.342L511.861 196.342L516.229 195.428L516.801 198.447Z" fill="#2F2E41"/>
<path d="M535.765 197.234L534.068 197.234L532.153 189.107L534.658 189.107L535.765 197.234Z" fill="#FFB8B8"/>
<path d="M536.668 199.943L530.347 199.943V199.858C530.347 199.513 530.411 199.172 530.534 198.854C530.658 198.535 530.839 198.246 531.067 198.003C531.296 197.759 531.567 197.566 531.866 197.434C532.164 197.302 532.484 197.234 532.807 197.234L536.668 197.234L536.668 199.943Z" fill="#2F2E41"/>
<path d="M530.839 173.913C531.011 173.691 531.133 173.433 531.198 173.157C531.262 172.882 531.267 172.595 531.212 172.317C531.157 172.039 531.043 171.776 530.879 171.549C530.715 171.321 530.504 171.132 530.262 170.997L525.961 153.887L522.219 155.619L527.624 171.893C527.43 172.327 527.398 172.819 527.534 173.276C527.669 173.733 527.963 174.123 528.359 174.372C528.755 174.621 529.227 174.711 529.684 174.627C530.141 174.542 530.552 174.288 530.839 173.913Z" fill="#FFB8B8"/>
<path d="M526.981 157.368L522.787 158.379C522.668 158.408 522.544 158.41 522.423 158.386C522.303 158.361 522.19 158.31 522.09 158.237C521.991 158.164 521.908 158.069 521.848 157.96C521.788 157.851 521.751 157.73 521.741 157.606L521.377 153.236C521.236 152.612 521.343 151.957 521.676 151.414C522.008 150.87 522.537 150.484 523.148 150.338C523.759 150.193 524.401 150.301 524.934 150.638C525.468 150.976 525.848 151.515 525.992 152.138L527.577 156.199C527.623 156.315 527.643 156.44 527.637 156.565C527.63 156.69 527.598 156.812 527.541 156.923C527.485 157.034 527.405 157.131 527.309 157.208C527.212 157.285 527.1 157.34 526.981 157.368Z" fill="#6C63FF"/>
<path d="M512.52 194.525C512.34 194.525 512.165 194.463 512.026 194.348C511.886 194.233 511.791 194.074 511.755 193.896L509.676 183.845C509.547 183.212 509.543 182.56 509.665 181.925C509.787 181.291 510.033 180.687 510.387 180.148L516.934 170.253V162.838L524.536 161.112L524.568 161.139C528.511 164.383 528.284 168.382 528.26 168.691L535.73 193.13C535.767 193.248 535.775 193.373 535.754 193.495C535.733 193.617 535.685 193.732 535.612 193.831C535.539 193.931 535.444 194.012 535.334 194.067C535.225 194.123 535.104 194.152 534.981 194.152H532.738C532.581 194.153 532.428 194.106 532.298 194.017C532.168 193.928 532.068 193.803 532.01 193.656L523.959 174.282L514.484 182.138C514.408 182.201 514.348 182.282 514.31 182.373C514.271 182.464 514.255 182.564 514.263 182.662L515.137 193.466C515.155 193.671 515.092 193.874 514.962 194.033C514.832 194.192 514.645 194.293 514.442 194.315L512.609 194.52C512.579 194.523 512.55 194.525 512.52 194.525Z" fill="#2F2E41"/>
<path d="M522.219 146.663C524.713 146.663 526.735 144.641 526.735 142.148C526.735 139.654 524.713 137.632 522.219 137.632C519.726 137.632 517.704 139.654 517.704 142.148C517.704 144.641 519.726 146.663 522.219 146.663Z" fill="#FFB8B8"/>
<path d="M517.783 163.821C517.63 163.821 517.48 163.773 517.353 163.684C517.225 163.594 517.126 163.467 517.068 163.318C515.659 159.682 515.683 155.089 516.3 152.36C516.564 151.205 517.204 150.183 518.11 149.474C519.016 148.764 520.13 148.411 521.258 148.477C521.929 148.514 522.585 148.699 523.185 149.019C523.785 149.338 524.314 149.786 524.74 150.333C525.165 150.88 525.478 151.515 525.657 152.196C525.836 152.878 525.878 153.591 525.78 154.29C525.451 156.636 525.317 159.941 525.275 161.253C525.269 161.428 525.209 161.597 525.104 161.733C524.999 161.869 524.855 161.966 524.694 162.009L517.971 163.796C517.91 163.813 517.846 163.821 517.783 163.821Z" fill="#6C63FF"/>
<path d="M517.51 137.67C517.423 137.708 517.333 137.739 517.241 137.762L514.293 146.17L515.599 147.851L513.465 150.275L510.88 147.536C510.671 147.315 510.535 147.028 510.493 146.718C510.451 146.408 510.505 146.092 510.647 145.817L515.266 136.865C515.085 136.531 515.004 136.146 515.034 135.762C515.064 135.377 515.204 135.012 515.435 134.714C515.665 134.416 515.976 134.199 516.325 134.093C516.675 133.987 517.046 133.997 517.391 134.12C517.735 134.244 518.035 134.475 518.253 134.785C518.47 135.094 518.593 135.466 518.606 135.851C518.619 136.236 518.521 136.617 518.325 136.942C518.13 137.267 517.845 137.521 517.51 137.67Z" fill="#FFB8B8"/>
<path d="M512.438 149.549L514.909 146.117C514.979 146.019 515.071 145.937 515.177 145.877C515.284 145.816 515.403 145.778 515.526 145.765C515.649 145.752 515.774 145.765 515.892 145.802C516.009 145.839 516.117 145.9 516.208 145.981L519.387 148.813C519.907 149.16 520.263 149.69 520.375 150.287C520.488 150.884 520.348 151.499 519.987 151.998C519.625 152.497 519.072 152.838 518.448 152.947C517.824 153.056 517.18 152.924 516.657 152.58L512.769 150.758C512.657 150.706 512.559 150.631 512.481 150.539C512.402 150.447 512.345 150.341 512.314 150.226C512.283 150.111 512.277 149.991 512.299 149.875C512.32 149.758 512.368 149.647 512.438 149.549Z" fill="#6C63FF"/>
<path d="M522.216 147.566C521.884 147.227 522.078 146.645 522.385 146.284C522.692 145.923 523.107 145.616 523.228 145.157C523.434 144.377 522.665 143.665 521.897 143.413C521.13 143.16 520.27 143.141 519.594 142.699C518.57 142.028 518.336 140.5 518.925 139.427C519.513 138.354 520.744 137.739 521.965 137.647C523.186 137.555 524.4 137.92 525.517 138.42C526.598 138.904 527.641 139.534 528.401 140.442C529.16 141.35 529.607 142.57 529.388 143.733C529.12 145.153 527.91 146.25 526.567 146.785C525.223 147.32 523.746 147.391 522.301 147.455L522.216 147.566Z" fill="#2F2E41"/>
<path d="M527.267 139.685C528.607 138.422 530.399 137.69 532.284 137.636C534.168 137.582 536.003 138.21 537.42 139.394C539.784 141.37 540.685 144.624 543.167 146.465C545.401 148.122 548.755 148.246 551.117 146.758C550.039 147.957 548.942 149.173 547.561 150.048C546.18 150.923 544.455 151.428 542.844 151.053C540.953 150.612 539.577 149.079 538.509 147.529C537.44 145.98 536.499 144.282 534.949 143.159C533.775 142.314 532.34 141.863 530.868 141.876C529.967 141.886 529.047 142.071 528.176 141.849C527.305 141.628 526.505 140.782 526.795 139.969L527.267 139.685Z" fill="#2F2E41"/>
<circle cx="478.5" cy="98.5" r="11.5" fill="#FEC424"/>
<path d="M478.471 91.0701L478.371 91.4088V101.235L478.471 101.334L483.032 98.6384L478.471 91.0701Z" fill="#343434"/>
<path d="M478.471 91.0701L473.91 98.6384L478.471 101.334V96.5651V91.0701Z" fill="#8C8C8C"/>
<path d="M478.471 102.198L478.415 102.267V105.767L478.471 105.931L483.035 99.5033L478.471 102.198Z" fill="#3C3C3B"/>
<path d="M478.471 105.931V102.198L473.91 99.5033L478.471 105.931Z" fill="#8C8C8C"/>
<path d="M478.471 101.334L483.032 98.6384L478.471 96.5651V101.334Z" fill="#141414"/>
<path d="M473.91 98.6384L478.471 101.334V96.5651L473.91 98.6384Z" fill="#393939"/>
<circle cx="559.5" cy="123.5" r="6.5" fill="#FEC424"/>
<path d="M559.484 119.301L559.427 119.492V125.046L559.484 125.102L562.062 123.578L559.484 119.301Z" fill="#343434"/>
<path d="M559.484 119.301L556.906 123.578L559.484 125.102V122.406V119.301Z" fill="#8C8C8C"/>
<path d="M559.484 125.59L559.452 125.629V127.607L559.484 127.7L562.063 124.067L559.484 125.59Z" fill="#3C3C3B"/>
<path d="M559.484 127.7V125.59L556.906 124.067L559.484 127.7Z" fill="#8C8C8C"/>
<path d="M559.484 125.102L562.062 123.578L559.484 122.406V125.102Z" fill="#141414"/>
<path d="M556.906 123.578L559.484 125.102V122.406L556.906 123.578Z" fill="#393939"/>
<circle cx="434" cy="180" r="8" fill="#FEC424"/>
<path d="M433.98 174.831L433.91 175.067V181.903L433.98 181.972L437.153 180.096L433.98 174.831Z" fill="#343434"/>
<path d="M433.98 174.831L430.807 180.096L433.98 181.972V178.654V174.831Z" fill="#8C8C8C"/>
<path d="M433.98 182.573L433.941 182.62V185.055L433.98 185.169L437.155 180.698L433.98 182.573Z" fill="#3C3C3B"/>
<path d="M433.98 185.169V182.573L430.807 180.698L433.98 185.169Z" fill="#8C8C8C"/>
<path d="M433.98 181.972L437.153 180.096L433.98 178.654V181.972Z" fill="#141414"/>
<path d="M430.807 180.096L433.98 181.972V178.654L430.807 180.096Z" fill="#393939"/>
<g clip-path="url(#clip0_7_151)">
<path d="M27.9354 194.033C27.7818 194.04 27.6297 193.999 27.4997 193.917C27.3697 193.834 27.2682 193.713 27.2089 193.571C27.1496 193.429 27.1353 193.271 27.168 193.121C27.2007 192.97 27.2788 192.833 27.3918 192.728C27.4107 192.652 27.4242 192.598 27.4431 192.523C27.4364 192.506 27.4296 192.49 27.4227 192.474C27.2679 192.107 27.0086 191.794 26.6772 191.575C26.3458 191.355 25.9572 191.239 25.5602 191.24C25.1632 191.242 24.7755 191.361 24.4457 191.583C24.116 191.805 23.8589 192.119 23.7069 192.487C23.0991 193.956 22.3253 195.428 22.1348 196.981C22.0509 197.667 22.0863 198.363 22.2394 199.037C20.812 195.913 20.0708 192.517 20.066 189.079C20.0657 188.217 20.1135 187.355 20.2091 186.498C20.2881 185.795 20.3977 185.097 20.5379 184.405C21.3029 180.646 22.9456 177.123 25.3309 174.125C26.4854 173.493 27.419 172.521 28.006 171.34C28.2187 170.916 28.369 170.462 28.4523 169.995C28.322 170.012 28.1897 170.022 28.0594 170.031C28.0188 170.033 27.9762 170.035 27.9356 170.037L27.9203 170.038C27.7772 170.045 27.6352 170.009 27.5116 169.937C27.3879 169.864 27.2878 169.757 27.2233 169.629C27.1588 169.5 27.1327 169.356 27.148 169.213C27.1634 169.07 27.2196 168.935 27.3099 168.823C27.3661 168.754 27.4224 168.684 27.4787 168.615C27.5641 168.508 27.6516 168.403 27.737 168.296C27.7469 168.285 27.7561 168.275 27.7648 168.263C27.863 168.141 27.9612 168.021 28.0594 167.899C27.8801 167.62 27.639 167.386 27.3549 167.216C26.3706 166.637 25.0128 167.038 24.3018 167.931C23.5887 168.825 23.4542 170.078 23.7019 171.194C23.9454 172.144 24.3483 173.045 24.8932 173.86C24.8398 173.928 24.7843 173.995 24.731 174.063C23.7553 175.322 22.9049 176.674 22.192 178.099C22.3653 176.503 22.1584 174.887 21.5882 173.386C21.0104 171.987 19.9273 170.809 18.9734 169.6C17.8277 168.147 15.4784 168.781 15.2765 170.622C15.2746 170.64 15.2727 170.658 15.2708 170.676C15.4125 170.756 15.5512 170.841 15.6869 170.931C15.8573 171.046 15.9894 171.209 16.0658 171.4C16.1422 171.591 16.1593 171.8 16.115 172.001C16.0707 172.202 15.9669 172.385 15.8173 172.525C15.6677 172.666 15.4792 172.758 15.2766 172.789L15.2559 172.793C15.3063 173.305 15.3956 173.813 15.5227 174.312C15.8913 175.704 16.5425 177.005 17.4356 178.133C18.3288 179.262 19.4445 180.192 20.7129 180.867C20.7962 180.91 20.8773 180.953 20.9606 180.994C20.2443 183.031 19.7951 185.152 19.6241 187.305C19.5273 188.576 19.533 189.852 19.6411 191.121L19.6347 191.076C19.3614 189.665 18.6111 188.391 17.5104 187.47C15.8756 186.123 13.566 185.627 11.8024 184.543C11.6149 184.423 11.397 184.358 11.1742 184.358C10.9515 184.357 10.7333 184.42 10.5452 184.54C10.3572 184.66 10.2073 184.831 10.1131 185.034C10.0189 185.237 9.9844 185.462 10.0137 185.683C10.016 185.699 10.0184 185.715 10.0209 185.731C10.2838 185.838 10.5398 185.962 10.7873 186.101C10.929 186.182 11.0677 186.267 11.2034 186.357C11.3738 186.471 11.5059 186.634 11.5823 186.825C11.6587 187.016 11.6759 187.226 11.6315 187.427C11.5872 187.628 11.4834 187.81 11.3338 187.951C11.1842 188.092 10.9958 188.184 10.7931 188.215L10.7724 188.218C10.7574 188.22 10.7446 188.222 10.7297 188.225C11.1789 189.301 11.8094 190.292 12.5935 191.153C13.5622 192.196 14.733 193.03 16.0341 193.603C17.3352 194.176 18.7392 194.476 20.1599 194.485H20.1621C20.5478 196.167 21.1066 197.804 21.8295 199.37H27.7861C27.8075 199.303 27.8267 199.235 27.8459 199.168C27.2946 199.203 26.741 199.17 26.1977 199.07C26.6397 198.525 27.0816 197.977 27.5235 197.433C27.5334 197.423 27.5427 197.412 27.5513 197.401C27.7755 197.122 28.0018 196.846 28.2259 196.567L28.2261 196.567C28.238 195.713 28.1404 194.861 27.9356 194.033L27.9354 194.033Z" fill="#F2F2F2"/>
<path d="M80.0646 194.033C80.2182 194.04 80.3704 193.999 80.5003 193.917C80.6303 193.834 80.7318 193.713 80.7911 193.571C80.8504 193.429 80.8647 193.271 80.832 193.121C80.7993 192.97 80.7212 192.833 80.6083 192.728C80.5893 192.652 80.5758 192.598 80.5569 192.523C80.5636 192.506 80.5704 192.49 80.5773 192.474C80.7321 192.107 80.9914 191.794 81.3228 191.575C81.6542 191.355 82.0428 191.239 82.4398 191.24C82.8368 191.242 83.2246 191.361 83.5543 191.583C83.884 191.805 84.1411 192.119 84.2931 192.487C84.9009 193.956 85.6747 195.428 85.8652 196.981C85.9491 197.667 85.9137 198.363 85.7606 199.037C87.188 195.913 87.9292 192.517 87.934 189.079C87.9343 188.217 87.8865 187.355 87.791 186.498C87.712 185.795 87.6024 185.097 87.4622 184.405C86.6971 180.646 85.0544 177.123 82.6691 174.125C81.5146 173.493 80.581 172.521 79.994 171.34C79.7813 170.916 79.631 170.462 79.5478 169.995C79.678 170.012 79.8104 170.022 79.9406 170.031C79.9812 170.033 80.0238 170.035 80.0644 170.037L80.0797 170.038C80.2229 170.045 80.3648 170.009 80.4884 169.937C80.6121 169.864 80.7122 169.757 80.7767 169.629C80.8412 169.5 80.8673 169.356 80.852 169.213C80.8366 169.07 80.7804 168.935 80.6901 168.823C80.6339 168.754 80.5776 168.684 80.5213 168.615C80.4359 168.508 80.3484 168.403 80.263 168.296C80.2531 168.285 80.2439 168.275 80.2352 168.263C80.137 168.141 80.0388 168.021 79.9406 167.899C80.1199 167.62 80.361 167.386 80.6452 167.216C81.6294 166.637 82.9872 167.038 83.6982 167.931C84.4113 168.825 84.5458 170.078 84.2981 171.194C84.0546 172.144 83.6517 173.045 83.1068 173.86C83.1602 173.928 83.2157 173.995 83.2691 174.063C84.2448 175.322 85.0952 176.674 85.8081 178.099C85.6347 176.503 85.8416 174.887 86.4118 173.386C86.9896 171.987 88.0728 170.809 89.0266 169.6C90.1723 168.147 92.5216 168.781 92.7235 170.622C92.7254 170.64 92.7273 170.658 92.7292 170.676C92.5875 170.756 92.4489 170.841 92.3132 170.931C92.1427 171.046 92.0106 171.209 91.9342 171.4C91.8578 171.591 91.8407 171.8 91.885 172.001C91.9294 172.202 92.0331 172.385 92.1827 172.525C92.3323 172.666 92.5208 172.758 92.7234 172.789L92.7441 172.793C92.6937 173.305 92.6045 173.813 92.4773 174.312C92.1087 175.704 91.4575 177.005 90.5644 178.133C89.6713 179.262 88.5555 180.192 87.2871 180.867C87.2038 180.91 87.1227 180.953 87.0394 180.994C87.7557 183.031 88.205 185.152 88.376 187.305C88.4728 188.576 88.4671 189.852 88.3589 191.121L88.3653 191.076C88.6386 189.665 89.3889 188.391 90.4896 187.47C92.1244 186.123 94.434 185.627 96.1977 184.543C96.3851 184.423 96.603 184.358 96.8258 184.358C97.0485 184.357 97.2668 184.42 97.4548 184.54C97.6428 184.66 97.7927 184.831 97.8869 185.034C97.9811 185.237 98.0156 185.462 97.9864 185.683C97.984 185.699 97.9816 185.715 97.9791 185.731C97.7162 185.838 97.4603 185.962 97.2127 186.101C97.071 186.182 96.9323 186.267 96.7966 186.357C96.6262 186.471 96.4941 186.634 96.4177 186.825C96.3413 187.016 96.3241 187.226 96.3685 187.427C96.4128 187.628 96.5166 187.81 96.6662 187.951C96.8158 188.092 97.0043 188.184 97.2069 188.215L97.2276 188.218C97.2426 188.22 97.2554 188.222 97.2703 188.225C96.8211 189.301 96.1906 190.292 95.4065 191.153C94.4378 192.196 93.267 193.03 91.9659 193.603C90.6648 194.176 89.2609 194.476 87.8401 194.485H87.8379C87.4522 196.167 86.8934 197.804 86.1705 199.37H80.2139C80.1925 199.303 80.1733 199.235 80.1541 199.168C80.7054 199.203 81.259 199.17 81.8023 199.07C81.3603 198.525 80.9184 197.977 80.4765 197.433C80.4666 197.423 80.4574 197.412 80.4487 197.401C80.2245 197.122 79.9982 196.846 79.7741 196.567L79.7739 196.567C79.762 195.713 79.8598 194.861 80.0646 194.033Z" fill="#F2F2F2"/>
<path d="M29.8317 196.191L31.5731 196.936L35.2642 190.55L32.694 189.451L29.8317 196.191Z" fill="#A0616A"/>
<path d="M44.2219 197.845L46.1146 197.845L47.0152 190.518L44.2214 190.518L44.2219 197.845Z" fill="#A0616A"/>
<path d="M44.1552 199.826L49.976 199.826V199.752C49.9759 199.149 49.7372 198.571 49.3123 198.145C48.8875 197.718 48.3112 197.479 47.7103 197.479L46.647 196.669L44.6632 197.479L44.1551 197.479L44.1552 199.826Z" fill="#2F2E41"/>
<path d="M28.773 197.46L34.1278 199.75L34.1567 199.682C34.3922 199.127 34.3985 198.501 34.1742 197.942C33.95 197.382 33.5134 196.935 32.9607 196.699L32.2987 195.536L30.1575 195.5L29.69 195.3L28.773 197.46Z" fill="#2F2E41"/>
<path d="M46.0786 154.484L48.9553 172.062L48.1725 174.681L49.1998 176.536L47.6911 192.829L48.3035 194.182L46.5925 195.24H43.1108L42.926 180.491L42.066 178.325V177.132L40.3152 168.138L40.1284 179.307L39.5695 180.389L34.5621 193.543H30.658L30.96 191.209C30.2605 190.853 32.0102 189.815 32.1783 189.046L31.6034 187.748L32.1783 185.296L33.5024 178.478L32.1495 170.393L32.6341 165.19L32.3818 163.41L32.4009 162.834C32.4009 162.834 33.0682 162.576 32.4309 161.931C31.5487 156.912 32.6341 155.822 32.6341 155.822L36.9782 153.271L46.0786 154.484Z" fill="#2F2E41"/>
<path d="M39.0729 131.335C41.2519 131.335 43.0183 129.562 43.0183 127.376C43.0183 125.189 41.2519 123.416 39.0729 123.416C36.8939 123.416 35.1275 125.189 35.1275 127.376C35.1275 129.562 36.8939 131.335 39.0729 131.335Z" fill="#A0616A"/>
<path d="M34.1264 119.781C34.145 120.008 34.1138 120.236 34.035 120.45C33.9561 120.663 33.8316 120.857 33.6701 121.017C33.5086 121.177 33.3141 121.3 33.1003 121.376C32.8865 121.453 32.6586 121.481 32.4326 121.46L30.1402 126.496L28.6188 124.057L31.029 119.648C31.0902 119.27 31.2875 118.927 31.5838 118.685C31.88 118.443 32.2545 118.318 32.6363 118.334C33.0181 118.35 33.3807 118.507 33.6553 118.773C33.9299 119.04 34.0976 119.398 34.1264 119.781Z" fill="#A0616A"/>
<path d="M46.3372 154.862C46.3454 154.922 46.3392 154.982 46.3191 155.039C46.299 155.095 46.2656 155.146 46.2218 155.186C46.1779 155.227 46.125 155.257 46.0673 155.272C46.0097 155.288 45.9492 155.29 45.8908 155.277C43.8251 154.829 35.3008 155.904 32.4773 158.791C32.4239 158.847 32.3548 158.884 32.2795 158.898C32.2041 158.913 32.1262 158.904 32.0563 158.872C31.9864 158.84 31.9279 158.788 31.8888 158.722C31.8497 158.655 31.8319 158.579 31.8379 158.502C31.8877 157.881 32.7866 155.073 32.7866 155.073L33.0607 153.323C33.0669 153.282 33.0669 153.241 33.0607 153.2L32.8095 151.752C32.7959 151.676 32.7597 151.606 32.7057 151.552L32.6205 151.466C32.5507 151.396 32.5115 151.301 32.5115 151.202C32.5115 151.103 32.5507 151.008 32.6205 150.937L32.9506 150.608C32.9906 150.567 33.0209 150.517 33.0393 150.463C33.0576 150.409 33.0635 150.351 33.0565 150.294L32.6185 147.044C32.6164 147.037 32.6164 147.029 32.6143 147.023L30.6794 136.769C30.6644 136.688 30.6764 136.604 30.7136 136.531C30.7507 136.457 30.811 136.398 30.8849 136.362L34.1735 134.785C34.2076 134.769 34.2391 134.748 34.2669 134.723L36.563 132.585C36.6314 132.523 36.7198 132.488 36.8121 132.485L40.9394 132.454C40.9967 132.454 41.0532 132.467 41.1047 132.493C41.1561 132.518 41.2011 132.555 41.2363 132.6L42.4923 134.24C42.537 134.297 42.5976 134.341 42.6667 134.365L43.5179 134.654L45.9759 135.492L46.0901 135.531C46.1607 135.556 46.2223 135.601 46.2668 135.661C46.3112 135.721 46.3365 135.794 46.3393 135.869C46.341 135.88 46.3417 135.891 46.3413 135.902L45.7268 148.664C45.725 148.721 45.7349 148.777 45.7559 148.829L46.0507 149.519C46.0801 149.589 46.0877 149.666 46.0725 149.74C46.0573 149.815 46.02 149.883 45.9656 149.935C45.8784 150.019 45.7787 150.114 45.7164 150.185C45.5898 150.325 45.8597 151.431 45.9012 151.591C45.905 151.605 45.9078 151.619 45.9095 151.633L46.0611 152.777C46.0699 152.844 46.0602 152.912 46.0331 152.974C46.0061 153.036 45.9626 153.09 45.9074 153.129C45.8655 153.159 45.8302 153.197 45.8039 153.242C45.7775 153.286 45.7607 153.336 45.7545 153.387C45.7482 153.439 45.7527 153.491 45.7676 153.54C45.7825 153.59 45.8075 153.636 45.841 153.675L46.1732 154.069C46.2185 154.124 46.2479 154.191 46.2583 154.262L46.3372 154.862Z" fill="#6C63FF"/>
<path d="M38.0636 131.141C38.0468 131.104 38.03 131.066 38.0132 131.029C38.0197 131.029 38.0261 131.03 38.0325 131.03L38.0636 131.141Z" fill="#2F2E41"/>
<path d="M52.1114 153.56C52.1306 153.333 52.0999 153.105 52.0216 152.891C51.9433 152.677 51.8193 152.483 51.6582 152.323C51.4971 152.162 51.3029 152.039 51.0893 151.962C50.8757 151.885 50.6479 151.856 50.4218 151.877L48.1423 146.835L46.6147 149.27L49.0136 153.684C49.0738 154.063 49.2703 154.406 49.5659 154.649C49.8615 154.892 50.2357 155.018 50.6175 155.003C50.9994 154.987 51.3624 154.832 51.6377 154.566C51.913 154.3 52.0816 153.942 52.1114 153.56Z" fill="#A0616A"/>
<path d="M49.0216 148.267L48.8949 148.504L47.56 151.008L47.3732 151.358L46.0694 149.556L41.7906 143.644L42.3989 139.935L43.5179 135.29L45.1767 135.194L46.3393 135.671C46.8345 135.89 47.2407 136.272 47.4911 136.754C47.7416 137.235 47.8215 137.788 47.7178 138.321L46.6881 143.612L49.0216 148.267Z" fill="#6C63FF"/>
<path d="M42.5079 123.813C42.4489 123.484 42.3169 123.173 42.1217 122.902C42.0233 122.785 41.9015 122.69 41.764 122.623C41.6265 122.556 41.4765 122.519 41.3239 122.515C41.1712 122.51 41.0193 122.538 40.878 122.596C40.7368 122.654 40.6094 122.742 40.5041 122.853C40.5658 122.673 40.5838 122.481 40.5565 122.292C40.2683 122.431 39.9601 122.523 39.6433 122.565L40.3434 121.831L36.8583 122.153C36.4986 122.186 36.1097 122.233 35.8455 122.507C35.5814 122.781 35.5668 123.366 35.9006 123.519C35.2428 123.271 34.4874 123.632 34.0534 124.236C33.6194 124.841 33.4595 125.638 33.4302 126.412C33.3922 127.415 33.5785 128.483 34.1887 129.222C34.5877 129.704 35.1318 130.006 35.5734 130.44L35.5866 130.453C36.0703 130.951 36.6765 131.312 37.3439 131.498C38.0113 131.685 38.716 131.691 39.3864 131.515C39.4617 131.495 39.5365 131.472 39.6116 131.45C39.9872 131.621 40.4549 131.388 40.692 131.009C40.9448 130.604 40.9947 130.087 41.0054 129.595C41.0194 128.951 40.9799 128.306 40.8872 127.669C40.7827 126.951 40.6885 126.031 41.2551 125.671C41.6963 125.39 42.2444 125.667 42.6886 125.942C42.7312 125.227 42.6704 124.51 42.5079 123.813Z" fill="#2F2E41"/>
<path d="M34.0949 142.141L31.466 141.951L26.9034 136.345L23.5165 131.474L24.2966 129.494L27.9834 124.193L27.9452 123.735L28.3532 123.662L28.3604 123.11L28.6991 123.164L29.6061 121.86L31.6822 123.527L30.5081 126.988L30.4365 127.694L30.0303 128.396L30.2289 129.36L29.4525 130.1L29.0787 131.202C30.6914 132.266 32.2208 133.858 33.7119 135.851L34.0949 142.141Z" fill="#6C63FF"/>
<path d="M69.9229 148.238L69.6378 150.89L69.8056 154.368L62.1291 153.453L61.4076 148.238L62.3267 148.247L69.9229 148.238Z" fill="#FFB6B6"/>
<path d="M63.2388 139.521L65.0629 138.423L65.9375 137.069L68.6364 137.485L71.9356 139.705L71.9033 144.738L69.8577 149.959L61.2844 148.86L60.9587 147.019C60.9587 147.019 58.5873 143.823 61.1411 141.992L63.2388 139.521Z" fill="#6C63FF"/>
<path d="M52.2906 124.575C52.2042 124.76 52.1592 124.962 52.1589 125.166C52.1585 125.37 52.2028 125.572 52.2886 125.757C52.3744 125.943 52.4997 126.107 52.6555 126.238C52.8114 126.37 52.994 126.465 53.1906 126.518L59.1296 137.763L61.5268 135.906L54.9352 125.437C55.0019 125.099 54.9429 124.749 54.7695 124.452C54.5961 124.156 54.3203 123.933 53.9943 123.827C53.6683 123.721 53.3149 123.738 53.0009 123.876C52.6869 124.014 52.4342 124.263 52.2906 124.575Z" fill="#FFB6B6"/>
<path d="M62.0328 141.563C62.0328 141.563 61.4825 142.052 60.6998 140.7C60.0732 139.617 56.9485 134.769 56.506 133.088C56.2633 133.095 56.0252 133.021 55.8293 132.877C55.6333 132.733 55.4906 132.528 55.4237 132.294L58.7802 130.986C59.5098 131.352 59.3073 131.86 59.1223 132.122L60.3724 134.004L64.5304 138.687L62.4369 141.216L62.0328 141.563Z" fill="#6C63FF"/>
<path d="M73.9046 196.39H72.2263L71.4274 189.894H73.9046V196.39Z" fill="#FFB6B6"/>
<path d="M74.7903 199.308H73.5867L73.3719 198.168L72.8217 199.308H69.6294C69.4764 199.308 69.3274 199.259 69.2042 199.168C69.0809 199.077 68.9899 198.949 68.9443 198.802C68.8988 198.656 68.9011 198.498 68.951 198.353C69.0009 198.208 69.0958 198.083 69.2217 197.995L71.7709 196.229V195.076L74.4522 195.236L74.7903 199.308Z" fill="#2F2E41"/>
<path d="M64.4771 196.39H62.7988L61.9999 189.894H64.4771V196.39Z" fill="#FFB6B6"/>
<path d="M65.3629 199.308H64.1593L63.9444 198.168L63.3942 199.308H60.202C60.049 199.308 59.8999 199.259 59.7767 199.168C59.6534 199.077 59.5624 198.949 59.5169 198.802C59.4713 198.656 59.4737 198.498 59.5236 198.353C59.5735 198.208 59.6683 198.083 59.7942 197.995L62.3434 196.229V195.076L65.0248 195.236L65.3629 199.308Z" fill="#2F2E41"/>
<path d="M74.6287 190.788H74.6104L74.2876 180.225C74.4965 179.821 74.6025 179.371 74.5962 178.916C74.5899 178.46 74.4715 178.014 74.2515 177.615L74.2053 177.531L74.3251 176.974C74.479 176.258 74.4084 175.512 74.123 174.838L73.8218 164.985C74.8976 157.988 69.7708 153.426 69.7708 153.426H62.0907L61.5419 155.318L60.9549 155.819L61.1771 156.576L60.5397 157.485L60.4419 159.11C59.3519 169.767 59.5497 180.152 61.2794 190.213L61.2322 190.237C61.1428 190.287 61.076 190.369 61.0457 190.467C61.0154 190.566 61.0239 190.672 61.0695 190.764C61.1494 190.996 61.3519 191.137 61.5217 191.078L65.5776 190.936C65.6671 190.886 65.7339 190.804 65.7642 190.706C65.7945 190.607 65.7859 190.501 65.7403 190.409C65.6604 190.177 65.458 190.036 65.2882 190.095L65.0124 190.235L65.6005 180.043L65.5353 178.181L65.6697 176.069L66.2914 166.569L68.6447 178.251L71.0484 190.905C70.9821 190.966 70.9356 191.045 70.9149 191.132C70.8943 191.219 70.9005 191.311 70.9328 191.395C70.9651 191.478 71.022 191.55 71.0958 191.601C71.1697 191.651 71.2571 191.678 71.3466 191.678H74.6287C74.7463 191.678 74.8591 191.631 74.9423 191.548C75.0255 191.464 75.0722 191.351 75.0722 191.233C75.0722 191.115 75.0255 191.002 74.9423 190.918C74.8591 190.835 74.7463 190.788 74.6287 190.788Z" fill="#2F2E41"/>
<path d="M83.0396 157.772C83.1206 157.584 83.1597 157.381 83.1541 157.177C83.1485 156.973 83.0984 156.773 83.0072 156.59C82.9161 156.407 82.7861 156.247 82.6265 156.12C82.4669 155.993 82.2815 155.903 82.0835 155.856L75.82 144.79L73.4778 146.716L80.3711 156.988C80.3143 157.327 80.3834 157.675 80.5653 157.967C80.7473 158.258 81.0295 158.473 81.3584 158.569C81.6873 158.666 82.0401 158.638 82.35 158.491C82.6598 158.344 82.9052 158.088 83.0396 157.772Z" fill="#FFB6B6"/>
<path d="M71.4134 139.697C71.4134 139.697 71.9493 139.191 72.7709 140.52C73.4287 141.584 78.0873 147.719 78.5785 149.386C78.8209 149.372 79.061 149.439 79.2611 149.577C79.4611 149.715 79.6097 149.916 79.6834 150.148L76.3664 151.553C75.6264 151.209 75.2817 150.564 75.459 150.296L74.1548 148.452L69.2649 142.787L71.0196 140.055L71.4134 139.697Z" fill="#6C63FF"/>
<path d="M64.6257 129.764C63.509 131.973 64.2385 134.531 66.3108 135.876C68.5517 137.331 71.4611 137.013 72.4022 134.186C73.4502 131.037 72.5893 129.686 70.7171 128.073C68.5232 126.182 65.8323 127.377 64.6257 129.764Z" fill="#2F2E41"/>
<path d="M70.123 134.684C69.5544 135.432 68.7135 135.922 67.7849 136.048C66.8563 136.173 65.916 135.924 65.1705 135.354C64.425 134.785 63.9353 133.941 63.809 133.01C63.6827 132.078 63.9301 131.134 64.4968 130.385L64.5275 130.345C65.1067 129.617 65.9476 129.148 66.8688 129.037C67.7901 128.926 68.7179 129.183 69.452 129.752C70.1862 130.321 70.6679 131.158 70.7933 132.08C70.9186 133.003 70.6776 133.938 70.1221 134.684L70.123 134.684Z" fill="#FFB6B6"/>
<path d="M63.5435 129.406C64.1181 129.955 64.8185 130.353 65.5829 130.566C65.7361 130.388 65.9177 130.237 66.1203 130.119C66.0233 130.321 65.9568 130.537 65.9231 130.759C66.264 131.469 67.6563 131.979 68.987 132.501L70.7496 129.38L68.4166 128.053C66.542 126.753 64.3352 127.308 63.5435 129.406Z" fill="#2F2E41"/>
<path d="M72.0791 128.077C72.2492 128.014 72.4324 127.995 72.6118 128.021C72.7912 128.047 72.9613 128.118 73.1064 128.227C73.3904 128.444 73.62 128.724 73.7769 129.046C74.0623 129.566 74.2673 130.127 74.385 130.709C74.4856 131.212 74.4686 131.821 74.0184 132.084C73.6428 132.303 73.1057 132.165 72.7605 131.872C72.4405 131.565 72.1978 131.186 72.0523 130.767C71.9095 130.35 71.6974 129.961 71.4252 129.616L71.7362 129.761C71.6379 129.462 71.5921 129.147 71.6008 128.832C71.6079 128.675 71.6558 128.523 71.7397 128.391C71.8236 128.258 71.9406 128.15 72.0791 128.077Z" fill="#2F2E41"/>
<path d="M68.044 128.486L70.5469 129.909C70.882 130.1 71.1764 130.354 71.4134 130.659C71.6503 130.964 71.8251 131.312 71.9278 131.685C72.0305 132.058 72.0591 132.447 72.0119 132.83C71.9647 133.214 71.8427 133.584 71.6528 133.921C71.0942 134.91 70.1881 135.654 69.1116 136.009C68.0352 136.363 66.8656 136.302 65.8316 135.838L68.1187 133.812L65.0161 135.398L64.3537 135.021C67.6811 134.414 68.323 131.795 68.044 128.486Z" fill="#2F2E41"/>
<path d="M43.8737 89L35.6396 102.757L43.9017 107.652L43.8737 89Z" fill="#8C8C8C"/>
<path d="M52.1439 102.757L43.8737 89L43.9017 107.652L52.1439 102.757Z" fill="#333333"/>
<path d="M35.6396 102.757L43.8918 98.9824L43.9017 107.652L35.6396 102.757Z" fill="#383838"/>
<path d="M52.144 102.757L43.8918 98.9824L43.9096 107.335L52.144 102.757Z" fill="#141414"/>
<path d="M52.1238 104.332L43.8816 109.227V115.979L52.1238 104.332Z" fill="#333333"/>
<path d="M35.6391 104.332L43.8816 109.227V115.979L35.6391 104.332Z" fill="#8C8C8C"/>
</g>
<rect x="182" y="48" width="237" height="34" rx="5" fill="#130F3E"/>
<path d="M213.033 61.2727V70H211.626L207.514 64.0554H207.442V70H205.861V61.2727H207.276L211.384 67.2216H211.46V61.2727H213.033ZM217.542 70.1278C216.903 70.1278 216.349 69.9872 215.88 69.706C215.412 69.4247 215.048 69.0312 214.789 68.5256C214.534 68.0199 214.406 67.429 214.406 66.7528C214.406 66.0767 214.534 65.4844 214.789 64.9759C215.048 64.4673 215.412 64.0724 215.88 63.7912C216.349 63.5099 216.903 63.3693 217.542 63.3693C218.181 63.3693 218.735 63.5099 219.204 63.7912C219.673 64.0724 220.035 64.4673 220.291 64.9759C220.549 65.4844 220.679 66.0767 220.679 66.7528C220.679 67.429 220.549 68.0199 220.291 68.5256C220.035 69.0312 219.673 69.4247 219.204 69.706C218.735 69.9872 218.181 70.1278 217.542 70.1278ZM217.551 68.892C217.897 68.892 218.187 68.7969 218.42 68.6065C218.653 68.4134 218.826 68.1548 218.94 67.831C219.056 67.5071 219.115 67.1463 219.115 66.7486C219.115 66.348 219.056 65.9858 218.94 65.6619C218.826 65.3352 218.653 65.0753 218.42 64.8821C218.187 64.6889 217.897 64.5923 217.551 64.5923C217.196 64.5923 216.9 64.6889 216.664 64.8821C216.431 65.0753 216.257 65.3352 216.14 65.6619C216.027 65.9858 215.97 66.348 215.97 66.7486C215.97 67.1463 216.027 67.5071 216.14 67.831C216.257 68.1548 216.431 68.4134 216.664 68.6065C216.9 68.7969 217.196 68.892 217.551 68.892ZM223.151 70L221.302 63.4545H222.874L224.025 68.0568H224.085L225.261 63.4545H226.816L227.992 68.0312H228.056L229.19 63.4545H230.766L228.913 70H227.306L226.079 65.5767H225.989L224.762 70H223.151ZM234.82 72.4545V63.4545H236.337V64.5369H236.426C236.506 64.3778 236.618 64.2088 236.763 64.0298C236.908 63.848 237.104 63.6932 237.351 63.5653C237.598 63.4347 237.914 63.3693 238.297 63.3693C238.803 63.3693 239.259 63.4986 239.665 63.7571C240.074 64.0128 240.398 64.392 240.637 64.8949C240.878 65.3949 240.999 66.0085 240.999 66.7358C240.999 67.4545 240.881 68.0653 240.645 68.5682C240.409 69.071 240.088 69.4545 239.682 69.7188C239.276 69.983 238.816 70.1151 238.301 70.1151C237.926 70.1151 237.615 70.0526 237.368 69.9276C237.121 69.8026 236.922 69.652 236.772 69.4759C236.624 69.2969 236.509 69.1278 236.426 68.9688H236.363V72.4545H234.82ZM236.333 66.7273C236.333 67.1506 236.392 67.5213 236.512 67.8395C236.634 68.1577 236.809 68.4062 237.036 68.5852C237.266 68.7614 237.544 68.8494 237.871 68.8494C238.212 68.8494 238.498 68.7585 238.728 68.5767C238.958 68.392 239.131 68.1406 239.248 67.8224C239.367 67.5014 239.426 67.1364 239.426 66.7273C239.426 66.321 239.368 65.9602 239.252 65.6449C239.135 65.3295 238.962 65.0824 238.732 64.9034C238.502 64.7244 238.215 64.6349 237.871 64.6349C237.542 64.6349 237.262 64.7216 237.032 64.8949C236.801 65.0682 236.627 65.3111 236.507 65.6236C236.391 65.9361 236.333 66.304 236.333 66.7273ZM244.203 70.1321C243.789 70.1321 243.415 70.0582 243.083 69.9105C242.753 69.7599 242.492 69.5384 242.299 69.2457C242.108 68.9531 242.013 68.5923 242.013 68.1634C242.013 67.794 242.081 67.4886 242.218 67.2472C242.354 67.0057 242.54 66.8125 242.776 66.6676C243.012 66.5227 243.277 66.4134 243.573 66.3395C243.871 66.2628 244.179 66.2074 244.498 66.1733C244.881 66.1335 245.192 66.098 245.431 66.0668C245.669 66.0327 245.843 65.9815 245.951 65.9134C246.061 65.8423 246.117 65.733 246.117 65.5852V65.5597C246.117 65.2386 246.022 64.9901 245.831 64.8139C245.641 64.6378 245.367 64.5497 245.009 64.5497C244.631 64.5497 244.331 64.6321 244.11 64.7969C243.891 64.9616 243.743 65.1562 243.667 65.3807L242.226 65.1761C242.34 64.7784 242.527 64.446 242.789 64.179C243.05 63.9091 243.37 63.7074 243.748 63.5739C244.125 63.4375 244.543 63.3693 245 63.3693C245.316 63.3693 245.63 63.4062 245.942 63.4801C246.255 63.554 246.54 63.6761 246.799 63.8466C247.057 64.0142 247.265 64.2429 247.421 64.5327C247.58 64.8224 247.659 65.1847 247.659 65.6193V70H246.176V69.1009H246.125C246.032 69.2827 245.9 69.4531 245.729 69.6122C245.561 69.7685 245.35 69.8949 245.094 69.9915C244.841 70.0852 244.544 70.1321 244.203 70.1321ZM244.604 68.9986C244.914 68.9986 245.182 68.9375 245.409 68.8153C245.637 68.6903 245.811 68.5256 245.934 68.321C246.059 68.1165 246.121 67.8935 246.121 67.652V66.8807C246.073 66.9205 245.99 66.9574 245.874 66.9915C245.76 67.0256 245.632 67.0554 245.49 67.081C245.348 67.1065 245.208 67.1293 245.069 67.1491C244.929 67.169 244.809 67.1861 244.706 67.2003C244.476 67.2315 244.27 67.2827 244.088 67.3537C243.907 67.4247 243.763 67.5241 243.658 67.652C243.553 67.777 243.5 67.9389 243.5 68.1378C243.5 68.4219 243.604 68.6364 243.811 68.7812C244.019 68.9261 244.283 68.9986 244.604 68.9986ZM249.935 72.4545C249.725 72.4545 249.53 72.4375 249.351 72.4034C249.175 72.3722 249.034 72.3352 248.929 72.2926L249.287 71.0909C249.512 71.1563 249.712 71.1875 249.888 71.1847C250.064 71.1818 250.219 71.1264 250.353 71.0185C250.489 70.9134 250.604 70.7372 250.698 70.4901L250.83 70.1364L248.456 63.4545H250.093L251.601 68.3977H251.669L253.182 63.4545H254.823L252.202 70.7926C252.08 71.1392 251.918 71.4361 251.716 71.6832C251.515 71.9332 251.267 72.1236 250.975 72.2543C250.685 72.3878 250.338 72.4545 249.935 72.4545ZM262.182 63.4545V64.6477H258.313V63.4545H262.182ZM259.28 70V62.8366C259.28 62.3963 259.371 62.0298 259.553 61.7372C259.738 61.4446 259.985 61.2259 260.294 61.081C260.604 60.9361 260.948 60.8636 261.326 60.8636C261.593 60.8636 261.83 60.8849 262.037 60.9276C262.245 60.9702 262.398 61.0085 262.498 61.0426L262.191 62.2358C262.125 62.2159 262.043 62.196 261.944 62.1761C261.844 62.1534 261.733 62.142 261.611 62.142C261.324 62.142 261.121 62.2116 261.002 62.3509C260.885 62.4872 260.827 62.6832 260.827 62.9389V70H259.28ZM265.999 70.1278C265.36 70.1278 264.806 69.9872 264.337 69.706C263.869 69.4247 263.505 69.0312 263.246 68.5256C262.991 68.0199 262.863 67.429 262.863 66.7528C262.863 66.0767 262.991 65.4844 263.246 64.9759C263.505 64.4673 263.869 64.0724 264.337 63.7912C264.806 63.5099 265.36 63.3693 265.999 63.3693C266.638 63.3693 267.192 63.5099 267.661 63.7912C268.13 64.0724 268.492 64.4673 268.748 64.9759C269.006 65.4844 269.136 66.0767 269.136 66.7528C269.136 67.429 269.006 68.0199 268.748 68.5256C268.492 69.0312 268.13 69.4247 267.661 69.706C267.192 69.9872 266.638 70.1278 265.999 70.1278ZM266.008 68.892C266.354 68.892 266.644 68.7969 266.877 68.6065C267.11 68.4134 267.283 68.1548 267.397 67.831C267.513 67.5071 267.572 67.1463 267.572 66.7486C267.572 66.348 267.513 65.9858 267.397 65.6619C267.283 65.3352 267.11 65.0753 266.877 64.8821C266.644 64.6889 266.354 64.5923 266.008 64.5923C265.653 64.5923 265.357 64.6889 265.121 64.8821C264.888 65.0753 264.714 65.3352 264.597 65.6619C264.484 65.9858 264.427 66.348 264.427 66.7486C264.427 67.1463 264.484 67.5071 264.597 67.831C264.714 68.1548 264.888 68.4134 265.121 68.6065C265.357 68.7969 265.653 68.892 266.008 68.892ZM270.445 70V63.4545H271.941V64.5455H272.009C272.128 64.1676 272.333 63.8764 272.623 63.6719C272.915 63.4645 273.249 63.3608 273.624 63.3608C273.709 63.3608 273.804 63.3651 273.909 63.3736C274.017 63.3793 274.107 63.3892 274.178 63.4034V64.8224C274.113 64.7997 274.009 64.7798 273.867 64.7628C273.728 64.7429 273.593 64.733 273.462 64.733C273.181 64.733 272.928 64.794 272.703 64.9162C272.482 65.0355 272.307 65.2017 272.179 65.4148C272.051 65.6278 271.988 65.8736 271.988 66.152V70H270.445ZM280.063 70.1321C279.648 70.1321 279.275 70.0582 278.942 69.9105C278.613 69.7599 278.351 69.5384 278.158 69.2457C277.968 68.9531 277.873 68.5923 277.873 68.1634C277.873 67.794 277.941 67.4886 278.077 67.2472C278.213 67.0057 278.4 66.8125 278.635 66.6676C278.871 66.5227 279.137 66.4134 279.432 66.3395C279.73 66.2628 280.039 66.2074 280.357 66.1733C280.74 66.1335 281.051 66.098 281.29 66.0668C281.529 66.0327 281.702 65.9815 281.81 65.9134C281.921 65.8423 281.976 65.733 281.976 65.5852V65.5597C281.976 65.2386 281.881 64.9901 281.691 64.8139C281.5 64.6378 281.226 64.5497 280.868 64.5497C280.49 64.5497 280.191 64.6321 279.969 64.7969C279.75 64.9616 279.603 65.1562 279.526 65.3807L278.086 65.1761C278.199 64.7784 278.387 64.446 278.648 64.179C278.909 63.9091 279.229 63.7074 279.607 63.5739C279.985 63.4375 280.402 63.3693 280.86 63.3693C281.175 63.3693 281.489 63.4062 281.801 63.4801C282.114 63.554 282.4 63.6761 282.658 63.8466C282.917 64.0142 283.124 64.2429 283.28 64.5327C283.439 64.8224 283.519 65.1847 283.519 65.6193V70H282.036V69.1009H281.985C281.891 69.2827 281.759 69.4531 281.588 69.6122C281.421 69.7685 281.209 69.8949 280.953 69.9915C280.701 70.0852 280.404 70.1321 280.063 70.1321ZM280.463 68.9986C280.773 68.9986 281.042 68.9375 281.269 68.8153C281.496 68.6903 281.671 68.5256 281.793 68.321C281.918 68.1165 281.98 67.8935 281.98 67.652V66.8807C281.932 66.9205 281.85 66.9574 281.733 66.9915C281.62 67.0256 281.492 67.0554 281.35 67.081C281.208 67.1065 281.067 67.1293 280.928 67.1491C280.789 67.169 280.668 67.1861 280.566 67.2003C280.336 67.2315 280.13 67.2827 279.948 67.3537C279.766 67.4247 279.623 67.5241 279.517 67.652C279.412 67.777 279.36 67.9389 279.36 68.1378C279.36 68.4219 279.463 68.6364 279.671 68.7812C279.878 68.9261 280.142 68.9986 280.463 68.9986ZM286.613 66.1648V70H285.07V63.4545H286.544V64.5668H286.621C286.772 64.2003 287.012 63.9091 287.341 63.6932C287.674 63.4773 288.084 63.3693 288.573 63.3693C289.025 63.3693 289.418 63.4659 289.753 63.6591C290.091 63.8523 290.353 64.1321 290.537 64.4986C290.725 64.8651 290.817 65.3097 290.814 65.8324V70H289.272V66.071C289.272 65.6335 289.158 65.2912 288.931 65.044C288.706 64.7969 288.395 64.6733 287.998 64.6733C287.728 64.6733 287.488 64.733 287.277 64.8523C287.07 64.9687 286.907 65.1378 286.787 65.3594C286.671 65.581 286.613 65.8494 286.613 66.1648ZM293.107 72.4545C292.897 72.4545 292.702 72.4375 292.523 72.4034C292.347 72.3722 292.206 72.3352 292.101 72.2926L292.459 71.0909C292.684 71.1563 292.884 71.1875 293.06 71.1847C293.236 71.1818 293.391 71.1264 293.525 71.0185C293.661 70.9134 293.776 70.7372 293.87 70.4901L294.002 70.1364L291.628 63.4545H293.265L294.773 68.3977H294.841L296.354 63.4545H297.995L295.374 70.7926C295.252 71.1392 295.09 71.4361 294.888 71.6832C294.686 71.9332 294.439 72.1236 294.147 72.2543C293.857 72.3878 293.51 72.4545 293.107 72.4545ZM302.331 63.4545V64.6477H298.568V63.4545H302.331ZM299.497 61.8864H301.039V68.0312C301.039 68.2386 301.071 68.3977 301.133 68.5085C301.199 68.6165 301.284 68.6903 301.389 68.7301C301.494 68.7699 301.61 68.7898 301.738 68.7898C301.835 68.7898 301.923 68.7827 302.002 68.7685C302.085 68.7543 302.147 68.7415 302.19 68.7301L302.45 69.9361C302.368 69.9645 302.25 69.9957 302.096 70.0298C301.946 70.0639 301.761 70.0838 301.542 70.0895C301.156 70.1009 300.808 70.0426 300.498 69.9148C300.189 69.7841 299.943 69.5824 299.761 69.3097C299.582 69.0369 299.494 68.696 299.497 68.2869V61.8864ZM305.304 66.1648V70H303.761V61.2727H305.27V64.5668H305.347C305.5 64.1974 305.737 63.9062 306.058 63.6932C306.382 63.4773 306.794 63.3693 307.294 63.3693C307.749 63.3693 308.145 63.4645 308.483 63.6548C308.821 63.8452 309.082 64.1236 309.267 64.4901C309.455 64.8565 309.548 65.304 309.548 65.8324V70H308.006V66.071C308.006 65.6307 307.892 65.2884 307.665 65.044C307.44 64.7969 307.125 64.6733 306.719 64.6733C306.446 64.6733 306.202 64.733 305.986 64.8523C305.773 64.9687 305.605 65.1378 305.483 65.3594C305.364 65.581 305.304 65.8494 305.304 66.1648ZM311.121 70V63.4545H312.663V70H311.121ZM311.896 62.5256C311.652 62.5256 311.442 62.4446 311.266 62.2827C311.089 62.1179 311.001 61.9205 311.001 61.6903C311.001 61.4574 311.089 61.2599 311.266 61.098C311.442 60.9332 311.652 60.8509 311.896 60.8509C312.143 60.8509 312.354 60.9332 312.527 61.098C312.703 61.2599 312.791 61.4574 312.791 61.6903C312.791 61.9205 312.703 62.1179 312.527 62.2827C312.354 62.4446 312.143 62.5256 311.896 62.5256ZM315.792 66.1648V70H314.25V63.4545H315.724V64.5668H315.801C315.951 64.2003 316.191 63.9091 316.521 63.6932C316.853 63.4773 317.264 63.3693 317.752 63.3693C318.204 63.3693 318.598 63.4659 318.933 63.6591C319.271 63.8523 319.532 64.1321 319.717 64.4986C319.904 64.8651 319.997 65.3097 319.994 65.8324V70H318.451V66.071C318.451 65.6335 318.338 65.2912 318.11 65.044C317.886 64.7969 317.575 64.6733 317.177 64.6733C316.907 64.6733 316.667 64.733 316.457 64.8523C316.25 64.9687 316.086 65.1378 315.967 65.3594C315.85 65.581 315.792 65.8494 315.792 66.1648ZM324.409 72.5909C323.855 72.5909 323.379 72.5156 322.981 72.3651C322.583 72.2173 322.264 72.0185 322.022 71.7685C321.781 71.5185 321.613 71.2415 321.52 70.9375L322.909 70.6009C322.971 70.7287 323.062 70.8551 323.181 70.9801C323.301 71.108 323.461 71.2131 323.663 71.2955C323.868 71.3807 324.125 71.4233 324.434 71.4233C324.872 71.4233 325.234 71.3168 325.521 71.1037C325.808 70.8935 325.951 70.5469 325.951 70.0639V68.8239H325.875C325.795 68.983 325.679 69.1463 325.525 69.3139C325.375 69.4815 325.174 69.6222 324.924 69.7358C324.677 69.8494 324.366 69.9062 323.991 69.9062C323.488 69.9062 323.032 69.7884 322.623 69.5526C322.217 69.3139 321.893 68.9588 321.652 68.4872C321.413 68.0128 321.294 67.419 321.294 66.706C321.294 65.9872 321.413 65.3807 321.652 64.8864C321.893 64.3892 322.218 64.0128 322.627 63.7571C323.037 63.4986 323.493 63.3693 323.995 63.3693C324.379 63.3693 324.694 63.4347 324.941 63.5653C325.191 63.6932 325.39 63.848 325.538 64.0298C325.686 64.2088 325.798 64.3778 325.875 64.5369H325.96V63.4545H327.481V70.1065C327.481 70.6662 327.348 71.1293 327.081 71.4957C326.814 71.8622 326.449 72.1364 325.985 72.3182C325.522 72.5 324.997 72.5909 324.409 72.5909ZM324.422 68.696C324.748 68.696 325.027 68.6165 325.257 68.4574C325.487 68.2983 325.662 68.0696 325.781 67.7713C325.9 67.473 325.96 67.1151 325.96 66.6974C325.96 66.2855 325.9 65.9247 325.781 65.6151C325.664 65.3054 325.491 65.0653 325.261 64.8949C325.034 64.7216 324.754 64.6349 324.422 64.6349C324.078 64.6349 323.791 64.7244 323.561 64.9034C323.331 65.0824 323.157 65.3281 323.041 65.6406C322.924 65.9503 322.866 66.3026 322.866 66.6974C322.866 67.098 322.924 67.4489 323.041 67.75C323.16 68.0483 323.335 68.2812 323.565 68.4489C323.798 68.6136 324.083 68.696 324.422 68.696ZM333.39 70L331.54 63.4545H333.113L334.263 68.0568H334.323L335.499 63.4545H337.054L338.23 68.0312H338.294L339.428 63.4545H341.005L339.151 70H337.544L336.317 65.5767H336.228L335 70H333.39ZM342.082 70V63.4545H343.624V70H342.082ZM342.857 62.5256C342.613 62.5256 342.403 62.4446 342.227 62.2827C342.05 62.1179 341.962 61.9205 341.962 61.6903C341.962 61.4574 342.05 61.2599 342.227 61.098C342.403 60.9332 342.613 60.8509 342.857 60.8509C343.104 60.8509 343.315 60.9332 343.488 61.098C343.664 61.2599 343.752 61.4574 343.752 61.6903C343.752 61.9205 343.664 62.1179 343.488 62.2827C343.315 62.4446 343.104 62.5256 342.857 62.5256ZM348.479 63.4545V64.6477H344.716V63.4545H348.479ZM345.645 61.8864H347.188V68.0312C347.188 68.2386 347.219 68.3977 347.282 68.5085C347.347 68.6165 347.432 68.6903 347.537 68.7301C347.642 68.7699 347.759 68.7898 347.887 68.7898C347.983 68.7898 348.071 68.7827 348.151 68.7685C348.233 68.7543 348.296 68.7415 348.338 68.7301L348.598 69.9361C348.516 69.9645 348.398 69.9957 348.245 70.0298C348.094 70.0639 347.909 70.0838 347.691 70.0895C347.304 70.1009 346.956 70.0426 346.647 69.9148C346.337 69.7841 346.091 69.5824 345.909 69.3097C345.73 69.0369 345.642 68.696 345.645 68.2869V61.8864ZM351.452 66.1648V70H349.91V61.2727H351.418V64.5668H351.495C351.648 64.1974 351.886 63.9062 352.207 63.6932C352.531 63.4773 352.942 63.3693 353.442 63.3693C353.897 63.3693 354.293 63.4645 354.631 63.6548C354.969 63.8452 355.231 64.1236 355.415 64.4901C355.603 64.8565 355.697 65.304 355.697 65.8324V70H354.154V66.071C354.154 65.6307 354.04 65.2884 353.813 65.044C353.589 64.7969 353.273 64.6733 352.867 64.6733C352.594 64.6733 352.35 64.733 352.134 64.8523C351.921 64.9687 351.754 65.1378 351.631 65.3594C351.512 65.581 351.452 65.8494 351.452 66.1648ZM363.101 70.1278C362.447 70.1278 361.886 69.9844 361.418 69.6974C360.952 69.4105 360.592 69.0142 360.339 68.5085C360.089 68 359.964 67.4148 359.964 66.7528C359.964 66.0881 360.092 65.5014 360.348 64.9929C360.604 64.4815 360.964 64.0838 361.43 63.7997C361.899 63.5128 362.453 63.3693 363.092 63.3693C363.624 63.3693 364.094 63.4673 364.503 63.6634C364.915 63.8565 365.243 64.1307 365.487 64.4858C365.732 64.8381 365.871 65.25 365.905 65.7216H364.43C364.371 65.4062 364.229 65.1435 364.004 64.9332C363.783 64.7202 363.486 64.6136 363.114 64.6136C362.798 64.6136 362.521 64.6989 362.283 64.8693C362.044 65.0369 361.858 65.2784 361.724 65.5938C361.594 65.9091 361.528 66.2869 361.528 66.7273C361.528 67.1733 361.594 67.5568 361.724 67.8778C361.855 68.196 362.038 68.4418 362.274 68.6151C362.513 68.7855 362.793 68.8707 363.114 68.8707C363.341 68.8707 363.544 68.8281 363.723 68.7429C363.905 68.6548 364.057 68.5284 364.179 68.3636C364.301 68.1989 364.385 67.9986 364.43 67.7628H365.905C365.868 68.2259 365.732 68.6364 365.496 68.9943C365.26 69.3494 364.939 69.6278 364.533 69.8295C364.126 70.0284 363.649 70.1278 363.101 70.1278ZM367.172 70V63.4545H368.667V64.5455H368.735C368.855 64.1676 369.059 63.8764 369.349 63.6719C369.642 63.4645 369.975 63.3608 370.35 63.3608C370.436 63.3608 370.531 63.3651 370.636 63.3736C370.744 63.3793 370.833 63.3892 370.904 63.4034V64.8224C370.839 64.7997 370.735 64.7798 370.593 64.7628C370.454 64.7429 370.319 64.733 370.189 64.733C369.907 64.733 369.654 64.794 369.43 64.9162C369.208 65.0355 369.034 65.2017 368.906 65.4148C368.778 65.6278 368.714 65.8736 368.714 66.152V70H367.172ZM373.087 72.4545C372.877 72.4545 372.683 72.4375 372.504 72.4034C372.327 72.3722 372.187 72.3352 372.082 72.2926L372.44 71.0909C372.664 71.1563 372.864 71.1875 373.04 71.1847C373.217 71.1818 373.371 71.1264 373.505 71.0185C373.641 70.9134 373.756 70.7372 373.85 70.4901L373.982 70.1364L371.609 63.4545H373.245L374.754 68.3977H374.822L376.335 63.4545H377.975L375.354 70.7926C375.232 71.1392 375.07 71.4361 374.869 71.6832C374.667 71.9332 374.42 72.1236 374.127 72.2543C373.837 72.3878 373.491 72.4545 373.087 72.4545ZM379.043 72.4545V63.4545H380.56V64.5369H380.649C380.729 64.3778 380.841 64.2088 380.986 64.0298C381.131 63.848 381.327 63.6932 381.574 63.5653C381.821 63.4347 382.136 63.3693 382.52 63.3693C383.026 63.3693 383.482 63.4986 383.888 63.7571C384.297 64.0128 384.621 64.392 384.859 64.8949C385.101 65.3949 385.222 66.0085 385.222 66.7358C385.222 67.4545 385.104 68.0653 384.868 68.5682C384.632 69.071 384.311 69.4545 383.905 69.7188C383.499 69.983 383.038 70.1151 382.524 70.1151C382.149 70.1151 381.838 70.0526 381.591 69.9276C381.344 69.8026 381.145 69.652 380.994 69.4759C380.847 69.2969 380.732 69.1278 380.649 68.9688H380.585V72.4545H379.043ZM380.555 66.7273C380.555 67.1506 380.615 67.5213 380.734 67.8395C380.857 68.1577 381.031 68.4062 381.259 68.5852C381.489 68.7614 381.767 68.8494 382.094 68.8494C382.435 68.8494 382.72 68.7585 382.95 68.5767C383.18 68.392 383.354 68.1406 383.47 67.8224C383.589 67.5014 383.649 67.1364 383.649 66.7273C383.649 66.321 383.591 65.9602 383.474 65.6449C383.358 65.3295 383.185 65.0824 382.955 64.9034C382.724 64.7244 382.438 64.6349 382.094 64.6349C381.764 64.6349 381.484 64.7216 381.254 64.8949C381.024 65.0682 380.849 65.3111 380.73 65.6236C380.614 65.9361 380.555 66.304 380.555 66.7273ZM389.811 63.4545V64.6477H386.048V63.4545H389.811ZM386.977 61.8864H388.52V68.0312C388.52 68.2386 388.551 68.3977 388.614 68.5085C388.679 68.6165 388.764 68.6903 388.869 68.7301C388.974 68.7699 389.091 68.7898 389.219 68.7898C389.315 68.7898 389.403 68.7827 389.483 68.7685C389.565 68.7543 389.628 68.7415 389.67 68.7301L389.93 69.9361C389.848 69.9645 389.73 69.9957 389.577 70.0298C389.426 70.0639 389.241 70.0838 389.023 70.0895C388.636 70.1009 388.288 70.0426 387.979 69.9148C387.669 69.7841 387.423 69.5824 387.241 69.3097C387.063 69.0369 386.974 68.696 386.977 68.2869V61.8864ZM393.886 70.1278C393.247 70.1278 392.693 69.9872 392.224 69.706C391.755 69.4247 391.392 69.0312 391.133 68.5256C390.877 68.0199 390.75 67.429 390.75 66.7528C390.75 66.0767 390.877 65.4844 391.133 64.9759C391.392 64.4673 391.755 64.0724 392.224 63.7912C392.693 63.5099 393.247 63.3693 393.886 63.3693C394.525 63.3693 395.079 63.5099 395.548 63.7912C396.017 64.0724 396.379 64.4673 396.635 64.9759C396.893 65.4844 397.022 66.0767 397.022 66.7528C397.022 67.429 396.893 68.0199 396.635 68.5256C396.379 69.0312 396.017 69.4247 395.548 69.706C395.079 69.9872 394.525 70.1278 393.886 70.1278ZM393.895 68.892C394.241 68.892 394.531 68.7969 394.764 68.6065C394.997 68.4134 395.17 68.1548 395.284 67.831C395.4 67.5071 395.458 67.1463 395.458 66.7486C395.458 66.348 395.4 65.9858 395.284 65.6619C395.17 65.3352 394.997 65.0753 394.764 64.8821C394.531 64.6889 394.241 64.5923 393.895 64.5923C393.539 64.5923 393.244 64.6889 393.008 64.8821C392.775 65.0753 392.6 65.3352 392.484 65.6619C392.37 65.9858 392.314 66.348 392.314 66.7486C392.314 67.1463 392.37 67.5071 392.484 67.831C392.6 68.1548 392.775 68.4134 393.008 68.6065C393.244 68.7969 393.539 68.892 393.895 68.892Z" fill="white"/>
<defs>
<clipPath id="clip0_7_151">
<rect width="88" height="111" fill="white" transform="translate(10 89)"/>
</clipPath>
</defs>
</svg>
