<svg width="35" height="35" viewBox="0 0 35 35" fill="none" xmlns="http://www.w3.org/2000/svg">
<path fill-rule="evenodd" clip-rule="evenodd" d="M18.3721 5.23853C19.4785 4.13207 21.2426 4.10217 22.3121 5.17175L32.6409 15.5005C33.7104 16.5701 33.6805 18.3341 32.5741 19.4406L21.8892 30.1255C20.7827 31.2319 19.0187 31.2618 17.9491 30.1922C16.8795 29.1227 16.9094 27.3586 18.0159 26.2522L26.6974 17.5707L18.3053 9.17859C17.2357 8.10901 17.2656 6.34499 18.3721 5.23853Z" fill="white"/>
<path fill-rule="evenodd" clip-rule="evenodd" d="M33.1222 17.1404C33.1222 18.6851 31.87 19.9373 30.3253 19.9373L3.9555 19.9373C2.41079 19.9373 1.15856 18.6851 1.15856 17.1404C1.15856 15.5957 2.41079 14.3435 3.9555 14.3435L30.3253 14.3435C31.87 14.3435 33.1222 15.5957 33.1222 17.1404Z" fill="white"/>
</svg>
