<svg width="17" height="18" viewBox="0 0 17 18" fill="none" xmlns="http://www.w3.org/2000/svg">
<path d="M16.544 9.16321C16.544 8.58043 16.4971 7.99765 16.4034 7.42676H8.44336V10.7213H13.0037C12.8161 11.7798 12.2065 12.7313 11.3155 13.3259V15.4668H14.0353C15.6296 13.9801 16.544 11.7798 16.544 9.16321Z" fill="#4285F4"/>
<path d="M8.44421 17.5363C10.7185 17.5363 12.6411 16.7751 14.0361 15.4668L11.3164 13.326C10.5544 13.8493 9.58136 14.1466 8.44421 14.1466C6.24027 14.1466 4.37629 12.6362 3.70807 10.6143H0.90625V12.8265C2.33647 15.7166 5.25553 17.5363 8.44421 17.5363Z" fill="#34A853"/>
<path d="M3.70803 10.6147C3.35628 9.55623 3.35628 8.40255 3.70803 7.33214V5.13184H0.905755C-0.301918 7.54622 -0.301918 10.4007 0.905755 12.8151L3.70803 10.6147Z" fill="#FBBC04"/>
<path d="M8.44421 3.80033C9.65169 3.77654 10.8123 4.24039 11.6798 5.08483L14.0948 2.63476C12.559 1.18375 10.5427 0.386887 8.44421 0.410674C5.25553 0.410674 2.33647 2.24228 0.90625 5.1324L3.70807 7.3446C4.37629 5.31081 6.24027 3.80033 8.44421 3.80033Z" fill="#EA4335"/>
</svg>
