<svg width="39" height="29" viewBox="0 0 39 29" fill="none" xmlns="http://www.w3.org/2000/svg">
<path d="M1 6C1 3.23858 3.23858 1 6 1H33C35.7614 1 38 3.23858 38 6V23C38 25.7614 35.7614 28 33 28H6C3.23858 28 1 25.7614 1 23V6Z" stroke="white" stroke-width="2"/>
<circle cx="31.5" cy="7.5" r="2.5" fill="#C8ACFA"/>
<path d="M10.2836 23H5.71642C5.31343 23 5 22.5625 5 22C5 21.4375 5.31343 21 5.71642 21H10.2836C10.6866 21 11 21.4375 11 22C11 22.5625 10.6866 23 10.2836 23Z" fill="#2C66FF"/>
<path d="M18.2836 23H13.7164C13.3134 23 13 22.5625 13 22C13 21.4375 13.3134 21 13.7164 21H18.2836C18.6866 21 19 21.4375 19 22C19 22.5625 18.6866 23 18.2836 23Z" fill="#2C66FF"/>
<path d="M26.2836 23H21.7164C21.3134 23 21 22.5625 21 22C21 21.4375 21.3134 21 21.7164 21H26.2836C26.6866 21 27 21.4375 27 22C27 22.5625 26.6866 23 26.2836 23Z" fill="#2C66FF"/>
<path d="M34.2836 23H29.7164C29.3134 23 29 22.5625 29 22C29 21.4375 29.3134 21 29.7164 21H34.2836C34.6866 21 35 21.4375 35 22C35 22.5625 34.6866 23 34.2836 23Z" fill="#2C66FF"/>
<circle cx="28.5" cy="7.5" r="2.5" fill="#2C66FF"/>
</svg>
