<svg width="30" height="30" viewBox="0 0 30 30" fill="none" xmlns="http://www.w3.org/2000/svg">
<path fill-rule="evenodd" clip-rule="evenodd" d="M22.521 3.43751C21.647 3.43968 20.9375 4.15015 20.9375 5.0125V12.8125H24.275C25.0618 12.8125 25.6129 12.5676 25.9652 12.2152C26.3176 11.8629 26.5625 11.3118 26.5625 10.525V7.5C26.5625 6.38708 26.1084 5.37063 25.3724 4.62316C24.6448 3.89677 23.6315 3.4489 22.521 3.43751ZM19.0625 5.0125C19.0625 3.10118 20.6258 1.5625 22.525 1.5625H22.5336L22.5336 1.56254C24.1452 1.57732 25.6291 2.2283 26.7004 3.29959L26.705 3.30416L26.705 3.30418C27.7675 4.38148 28.4375 5.86407 28.4375 7.5V10.525C28.4375 11.7132 28.0574 12.7746 27.291 13.541C26.5246 14.3074 25.4632 14.6875 24.275 14.6875H20C19.4822 14.6875 19.0625 14.2678 19.0625 13.75V5.0125Z" fill="#292D32"/>
<path fill-rule="evenodd" clip-rule="evenodd" d="M2.8842 3.35133C3.89018 2.1864 5.43308 1.5625 7.5 1.5625H22.5C23.0178 1.5625 23.4375 1.98223 23.4375 2.5C23.4375 3.01777 23.0178 3.4375 22.5 3.4375C21.6428 3.4375 20.9375 4.14277 20.9375 5V26.25C20.9375 28.0522 18.8794 29.0705 17.4412 28.0027L17.4382 28.0005L15.2909 26.3931C15.1831 26.3102 15.0108 26.3151 14.9004 26.4254L12.8004 28.5254C11.9468 29.379 10.5532 29.379 9.69956 28.5254L9.69757 28.5234L7.62459 26.4379C7.6244 26.4377 7.62479 26.4381 7.62459 26.4379C7.50055 26.3144 7.3221 26.3084 7.2 26.4L5.06609 27.9973C5.06525 27.9979 5.06441 27.9985 5.06357 27.9992C3.61583 29.0929 1.5625 28.0543 1.5625 26.25V7.5C1.5625 5.99642 1.90042 4.49055 2.8842 3.35133ZM19.4397 3.4375H7.5C5.81692 3.4375 4.85982 3.93235 4.3033 4.5768C3.72458 5.24695 3.4375 6.24108 3.4375 7.5V26.25C3.4375 26.5197 3.73172 26.6559 3.93385 26.5027L3.93818 26.4995L6.075 24.9C6.9527 24.2417 8.17449 24.3362 8.95042 25.1121L8.95241 25.1141L11.0254 27.1996C11.0252 27.1994 11.0256 27.1998 11.0254 27.1996C11.1468 27.3204 11.3534 27.3208 11.4746 27.1996L13.5746 25.0996C14.3376 24.3366 15.5616 24.2402 16.4285 24.9026L18.5589 26.4973C18.5592 26.4975 18.5596 26.4978 18.5599 26.498C18.7717 26.654 19.0625 26.4974 19.0625 26.25V5C19.0625 4.43805 19.1987 3.90678 19.4397 3.4375Z" fill="#292D32"/>
<path fill-rule="evenodd" clip-rule="evenodd" d="M6.5625 11.25C6.5625 10.7322 6.98223 10.3125 7.5 10.3125H15C15.5178 10.3125 15.9375 10.7322 15.9375 11.25C15.9375 11.7678 15.5178 12.1875 15 12.1875H7.5C6.98223 12.1875 6.5625 11.7678 6.5625 11.25Z" fill="#2C66FF"/>
<path fill-rule="evenodd" clip-rule="evenodd" d="M7.5 16.25C7.5 15.7322 7.91973 15.3125 8.4375 15.3125H14.0625C14.5803 15.3125 15 15.7322 15 16.25C15 16.7678 14.5803 17.1875 14.0625 17.1875H8.4375C7.91973 17.1875 7.5 16.7678 7.5 16.25Z" fill="#2C66FF"/>
</svg>
