<svg width="28" height="32" viewBox="0 0 28 32" fill="none" xmlns="http://www.w3.org/2000/svg">
<rect x="3" y="1" width="24" height="30" rx="4" stroke="white" stroke-width="2"/>
<path d="M18.7085 10.6004L18.9643 8.62908C19.0593 7.89661 18.7426 7.14198 18.0286 6.95279C17.9806 6.94007 17.9323 6.92808 17.8838 6.9168C15.9749 6.47314 14.143 7.69537 13.275 9.45245C12.5679 10.8839 11.8589 12.8068 11.7073 14.959C11.439 18.7704 12.3666 21.8851 13.9583 23.7144C14.9037 24.8011 16.1204 25.1792 17.0594 24.9754C17.6525 24.8467 17.899 24.2059 17.8745 23.5995L17.7688 20.9855C17.731 20.0495 17.0486 19.2651 16.1268 19.0982L15.8343 19.0453C15.4259 18.9714 15.1025 18.6527 15.0399 18.2424C14.7262 16.188 14.8944 14.8553 15.6607 12.9556C15.8037 12.6013 16.1455 12.3692 16.5273 12.3531L16.8095 12.3412C17.7817 12.3001 18.5833 11.5653 18.7085 10.6004Z" fill="#2C66FF"/>
<path d="M0 9C0 8.44772 0.447715 8 1 8H5V11H1C0.447715 11 0 10.5523 0 10V9Z" fill="white"/>
<path d="M0 15C0 14.4477 0.447715 14 1 14H5V17H1C0.447715 17 0 16.5523 0 16V15Z" fill="white"/>
<path d="M0 21C0 20.4477 0.447715 20 1 20H5V23H1C0.447715 23 0 22.5523 0 22V21Z" fill="white"/>
<rect x="2" y="17" width="2" height="3" fill="white"/>
<rect x="2" y="11" width="2" height="3" fill="white"/>
</svg>
