<svg width="27" height="27" viewBox="0 0 27 27" fill="none" xmlns="http://www.w3.org/2000/svg">
<path fill-rule="evenodd" clip-rule="evenodd" d="M0.912474 26.0875C-0.304158 24.8709 -0.304158 22.8983 0.912474 21.6817L21.6817 0.912474C22.8983 -0.304158 24.8709 -0.304158 26.0875 0.912474C27.3042 2.12911 27.3042 4.10166 26.0875 5.31829L5.31829 26.0875C4.10166 27.3042 2.12911 27.3042 0.912474 26.0875Z" fill="#6CE84D"/>
<path fill-rule="evenodd" clip-rule="evenodd" d="M22.2354 23.9679C22.2354 25.6425 20.8778 27 19.2033 27L3.03214 27C1.35757 27 5.79357e-05 25.6425 5.79357e-05 23.9679L5.79357e-05 7.79679C5.79357e-05 6.12222 1.35757 4.76471 3.03214 4.76471C4.70672 4.76471 6.06423 6.12222 6.06423 7.79679L6.06423 20.9358H19.2033C20.8778 20.9358 22.2354 22.2933 22.2354 23.9679Z" fill="#6CE84D"/>
</svg>
