<svg width="30" height="30" viewBox="0 0 30 30" fill="none" xmlns="http://www.w3.org/2000/svg">
<path fill-rule="evenodd" clip-rule="evenodd" d="M13.7 11.55C13.2662 11.55 12.825 11.943 12.825 12.525C12.825 12.9657 12.9196 13.1246 12.967 13.185C13.0233 13.2567 13.1358 13.3459 13.4368 13.4533L17.2019 14.7668C17.6424 14.9236 18.1457 15.1696 18.5217 15.6511C18.906 16.1433 19.0625 16.7571 19.0625 17.4625C19.0625 18.9971 17.8748 20.3125 16.3125 20.3125H13.9625C12.2559 20.3125 10.9375 18.8781 10.9375 17.1875C10.9375 16.6697 11.3572 16.25 11.875 16.25C12.3928 16.25 12.8125 16.6697 12.8125 17.1875C12.8125 17.9219 13.3691 18.4375 13.9625 18.4375H16.3125C16.7502 18.4375 17.1875 18.0529 17.1875 17.4625C17.1875 17.0304 17.094 16.8692 17.0439 16.8051C16.9857 16.7306 16.8708 16.6395 16.5758 16.5342L12.8106 15.2207C12.376 15.0661 11.8703 14.8244 11.4924 14.3431C11.1054 13.8504 10.95 13.2343 10.95 12.525C10.95 11.007 12.1338 9.675 13.7 9.675H16.05C17.7566 9.675 19.075 11.1094 19.075 12.8C19.075 13.3178 18.6553 13.7375 18.1375 13.7375C17.6197 13.7375 17.2 13.3178 17.2 12.8C17.2 12.0656 16.6434 11.55 16.05 11.55H13.7Z" fill="#2C66FF"/>
<path fill-rule="evenodd" clip-rule="evenodd" d="M15 8.4375C15.5178 8.4375 15.9375 8.85723 15.9375 9.375V20.625C15.9375 21.1428 15.5178 21.5625 15 21.5625C14.4822 21.5625 14.0625 21.1428 14.0625 20.625V9.375C14.0625 8.85723 14.4822 8.4375 15 8.4375Z" fill="#2C66FF"/>
<path fill-rule="evenodd" clip-rule="evenodd" d="M15 3.4375C8.61777 3.4375 3.4375 8.61777 3.4375 15C3.4375 21.3822 8.61777 26.5625 15 26.5625C21.3822 26.5625 26.5625 21.3822 26.5625 15C26.5625 14.4822 26.9822 14.0625 27.5 14.0625C28.0178 14.0625 28.4375 14.4822 28.4375 15C28.4375 22.4178 22.4178 28.4375 15 28.4375C7.58223 28.4375 1.5625 22.4178 1.5625 15C1.5625 7.58223 7.58223 1.5625 15 1.5625C15.5178 1.5625 15.9375 1.98223 15.9375 2.5C15.9375 3.01777 15.5178 3.4375 15 3.4375Z" fill="white"/>
<path fill-rule="evenodd" clip-rule="evenodd" d="M21.5625 2.5C21.5625 1.98223 21.9822 1.5625 22.5 1.5625H27.5C28.0178 1.5625 28.4375 1.98223 28.4375 2.5V7.5C28.4375 8.01777 28.0178 8.4375 27.5 8.4375C26.9822 8.4375 26.5625 8.01777 26.5625 7.5V3.4375H22.5C21.9822 3.4375 21.5625 3.01777 21.5625 2.5Z" fill="white"/>
<path fill-rule="evenodd" clip-rule="evenodd" d="M28.1629 1.83709C28.529 2.2032 28.529 2.7968 28.1629 3.16291L21.9129 9.41291C21.5468 9.77903 20.9532 9.77903 20.5871 9.41291C20.221 9.0468 20.221 8.4532 20.5871 8.08709L26.8371 1.83709C27.2032 1.47097 27.7968 1.47097 28.1629 1.83709Z" fill="white"/>
</svg>
