<svg width="26" height="26" viewBox="0 0 26 26" fill="none" xmlns="http://www.w3.org/2000/svg">
<path fill-rule="evenodd" clip-rule="evenodd" d="M12.9662 8.58157C13.3323 8.21545 13.9259 8.21545 14.292 8.58157L17.8276 12.1171C18.1937 12.4832 18.1937 13.0768 17.8276 13.4429L14.292 16.9785C13.9259 17.3446 13.3323 17.3446 12.9662 16.9785C12.6001 16.6123 12.6001 16.0188 12.9662 15.6526L15.8388 12.78L12.9662 9.90739C12.6001 9.54128 12.6001 8.94768 12.9662 8.58157Z" fill="#2C66FF"/>
<path fill-rule="evenodd" clip-rule="evenodd" d="M18.1022 12.7453C18.1022 13.263 17.6824 13.6828 17.1647 13.6828L8.32583 13.6828C7.80806 13.6828 7.38833 13.263 7.38833 12.7453C7.38833 12.2275 7.80806 11.8078 8.32583 11.8078L17.1647 11.8078C17.6824 11.8078 18.1022 12.2275 18.1022 12.7453Z" fill="#2C66FF"/>
<circle cx="13" cy="13" r="12.05" stroke="white" stroke-width="1.9"/>
</svg>
