<svg width="27" height="27" viewBox="0 0 27 27" fill="none" xmlns="http://www.w3.org/2000/svg">
<path fill-rule="evenodd" clip-rule="evenodd" d="M26.0875 0.912475C27.3042 2.12911 27.3042 4.10166 26.0875 5.31829L5.31829 26.0875C4.10166 27.3042 2.12911 27.3042 0.912475 26.0875C-0.304158 24.8709 -0.304158 22.8983 0.912475 21.6817L21.6817 0.912475C22.8983 -0.304158 24.8709 -0.304158 26.0875 0.912475Z" fill="#E84D4D"/>
<path fill-rule="evenodd" clip-rule="evenodd" d="M4.76465 3.03209C4.76465 1.35751 6.12216 0 7.79673 0H23.9679C25.6424 0 26.9999 1.35751 26.9999 3.03209V19.2032C26.9999 20.8778 25.6424 22.2353 23.9679 22.2353C22.2933 22.2353 20.9358 20.8778 20.9358 19.2032V6.06417H7.79673C6.12216 6.06417 4.76465 4.70666 4.76465 3.03209Z" fill="#E84D4D"/>
</svg>
